<?xml version="1.0"?>
<!-- Generated by SVGo -->
<svg width="900" height="500"
     font-size="14px" font-family="Roboto,&quot;Helvetica Neue&quot;,Helvetica,Arial,sans-serif"
     xmlns="http://www.w3.org/2000/svg"
     xmlns:xlink="http://www.w3.org/1999/xlink">
<clipPath id="clip0" ><rect x="53" y="39" width="843" height="411" />
</clipPath>
<g clip-path="url(#clip0)" >
<rect x="53" y="39" width="843" height="411" style="fill:#eee" />
<path d="M114 39v411M194 39v411M274 39v411M354 39v411M434 39v411M515 39v411
M595 39v411M675 39v411M755 39v411M835 39v411" style="stroke: #fff; stroke-width:2" />
<path d="M53 429h843M53 244h843" style="stroke: #fff; stroke-width:2" />
<path d="M 73.6312 429.369 75.6406 429.369 77.65 429.369 79.6594 429.369
 81.6687 429.369 83.6781 429.369 85.6875 429.369 87.6968 429.369
 89.7062 429.369 91.7156 429.369 93.7249 429.369 95.7343 429.369
 97.7437 429.369 99.753 429.369 101.762 429.369 103.772 429.369
 105.781 429.369 107.79 429.368 109.8 429.368 111.809 429.368 113.819
 429.368 115.828 429.368 117.837 429.368 119.847 429.368 121.856
 429.367 123.865 429.367 125.875 429.366 127.884 429.366 129.894
 429.365 131.903 429.364 133.912 429.363 135.922 429.361 137.931
 429.359 139.94 429.357 141.95 429.354 143.959 429.351 145.968
 429.347 147.978 429.341 149.987 429.335 151.997 429.327 154.006
 429.318 156.015 429.307 158.025 429.294 160.034 429.278 162.043
 429.259 164.053 429.236 166.062 429.208 168.072 429.176 170.081
 429.138 172.09 429.092 174.1 429.039 176.109 428.976 178.118 428.903
 180.128 428.817 182.137 428.717 184.146 428.602 186.156 428.467
 188.165 428.312 190.175 428.133 192.184 427.928 194.193 427.693
 196.203 427.424 198.212 427.118 200.221 426.77 202.231 426.376
 204.24 425.93 206.249 425.429 208.259 424.865 210.268 424.234
 212.278 423.529 214.287 422.744 216.296 421.873 218.306 420.908
 220.315 419.842 222.324 418.67 224.334 417.383 226.343 415.975
 228.353 414.44 230.362 412.77 232.371 410.96 234.381 409.003 236.39
 406.895 238.399 404.631 240.409 402.207 242.418 399.621 244.427
 396.87 246.437 393.954 248.446 390.873 250.456 387.63 252.465
 384.226 254.474 380.667 256.484 376.96 258.493 373.112 260.502
 369.133 262.512 365.034 264.521 360.829 266.53 356.532 268.54 352.16
 270.549 347.731 272.559 343.265 274.568 338.782 276.577 334.305
 278.587 329.857 280.596 325.462 282.605 321.145 284.615 316.932
 286.624 312.848 288.634 308.919 290.643 305.17 292.652 301.625
 294.662 298.309 296.671 295.244 298.68 292.452 300.69 289.953
 302.699 287.764 304.708 285.902 306.718 284.38 308.727 283.209
 310.737 282.399 312.746 281.955 314.755 281.881 316.765 282.177
 318.774 282.842 320.783 283.869 322.793 285.251 324.802 286.979
 326.812 289.039 328.821 291.416 330.83 294.093 332.84 297.052
 334.849 300.27 336.858 303.726 338.868 307.396 340.877 311.257
 342.886 315.282 344.896 319.446 346.905 323.724 348.915 328.091
 350.924 332.52 352.933 336.989 354.943 341.472 356.952 345.947
 358.961 350.393 360.971 354.79 362.98 359.119 364.989 363.362
 366.999 367.504 369.008 371.532 371.018 375.433 373.027 379.197
 375.036 382.814 377.046 386.279 379.055 389.585 381.064 392.729
 383.074 395.708 385.083 398.521 387.093 401.169 389.102 403.652
 391.111 405.973 393.121 408.134 395.13 410.141 397.139 411.998
 399.149 413.709 401.158 415.28 403.167 416.718 405.177 418.028
 407.186 419.217 409.196 420.29 411.205 421.254 413.214 422.115
 415.224 422.878 417.233 423.548 419.242 424.131 421.252 424.631
 423.261 425.053 425.271 425.399 427.28 425.672 429.289 425.876
 431.299 426.012 433.308 426.082 435.317 426.085 437.327 426.022
 439.336 425.893 441.345 425.696 443.355 425.429 445.364 425.091
 447.374 424.677 449.383 424.185 451.392 423.61 453.402 422.949
 455.411 422.196 457.42 421.345 459.43 420.392 461.439 419.329
 463.448 418.153 465.458 416.855 467.467 415.43 469.477 413.872
 471.486 412.175 473.495 410.333 475.505 408.342 477.514 406.196
 479.523 403.891 481.533 401.425 483.542 398.794 485.552 395.997
 487.561 393.035 489.57 389.907 491.58 386.617 493.589 383.168
 495.598 379.565 497.608 375.816 499.617 371.928 501.626 367.912
 503.636 363.781 505.645 359.547 507.655 355.226 509.664 350.836
 511.673 346.393 513.683 341.92 515.692 337.437 517.701 332.966
 519.711 328.531 521.72 324.157 523.729 319.869 525.739 315.692
 527.748 311.652 529.758 307.774 531.767 304.084 533.776 300.605
 535.786 297.362 537.795 294.377 539.804 291.671 541.814 289.263
 543.823 287.17 545.833 285.409 547.842 283.991 549.851 282.928
 551.861 282.227 553.87 281.894 555.879 281.931 557.889 282.338
 559.898 283.112 561.907 284.247 563.917 285.734 565.926 287.563
 567.936 289.72 569.945 292.189 571.954 294.952 573.964 297.991
 575.973 301.283 577.982 304.806 579.992 308.536 582.001 312.448
 584.011 316.518 586.02 320.719 588.029 325.026 590.039 329.414
 592.048 333.858 594.057 338.334 596.067 342.817 598.076 347.286
 600.085 351.719 602.095 356.098 604.104 360.403 606.114 364.618
 608.123 368.728 610.132 372.72 612.142 376.581 614.151 380.303
 616.16 383.877 618.17 387.296 620.179 390.556 622.188 393.654
 624.198 396.586 626.207 399.353 628.217 401.956 630.226 404.396
 632.235 406.676 634.245 408.799 636.254 410.771 638.263 412.595
 640.273 414.279 642.282 415.828 644.292 417.248 646.301 418.546
 648.31 419.73 650.32 420.806 652.329 421.781 654.338 422.661 656.348
 423.455 658.357 424.167 660.366 424.805 662.376 425.375 664.385
 425.883 666.395 426.334 668.404 426.733 670.413 427.085 672.423
 427.395 674.432 427.667 676.441 427.906 678.451 428.114 680.46
 428.295 682.47 428.453 684.479 428.589 686.488 428.707 688.498
 428.808 690.507 428.895 692.516 428.969 694.526 429.033 696.535
 429.087 698.544 429.133 700.554 429.172 702.563 429.205 704.573
 429.233 706.582 429.256 708.591 429.276 710.601 429.292 712.61
 429.306 714.619 429.317 716.629 429.327 718.638 429.334 720.647
 429.341 722.657 429.346 724.666 429.35 726.676 429.354 728.685
 429.357 730.694 429.359 732.704 429.361 734.713 429.363 736.722
 429.364 738.732 429.365 740.741 429.366 742.751 429.366 744.76
 429.367 746.769 429.367 748.779 429.368 750.788 429.368 752.797
 429.368 754.807 429.368 756.816 429.368 758.825 429.368 760.835
 429.368 762.844 429.369 764.854 429.369 766.863 429.369 768.872
 429.369 770.882 429.369 772.891 429.369 774.9 429.369 776.91 429.369
 778.919 429.369 780.928 429.369 782.938 429.369 784.947 429.369
 786.957 429.369 788.966 429.369 790.975 429.369 792.985 429.369
 794.994 429.369 797.003 429.369 799.013 429.369 801.022 429.369
 803.032 429.369 805.041 429.369 807.05 429.369 809.06 429.369
 811.069 429.369 813.078 429.369 815.088 429.369 817.097 429.369
 819.106 429.369 821.116 429.369 823.125 429.369 825.135 429.369
 827.144 429.369 829.153 429.369 831.163 429.369 833.172 429.369
 835.181 429.369 837.191 429.369 839.2 429.369 841.21 429.369 843.219
 429.369 845.228 429.369 847.238 429.369 849.247 429.369 851.256
 429.369 853.266 429.369 855.275 429.369 857.284 429.369 859.294
 429.369 861.303 429.369 863.313 429.369 865.322 429.369 867.331
 429.369 869.341 429.369 871.35 429.369 873.359 429.369 875.369
 429.369" style="stroke:#4c72b0;fill:none;stroke-width:3" />
<path d="M 73.6312 429.369 75.6406 429.369 77.65 429.369 79.6594 429.369
 81.6687 429.369 83.6781 429.369 85.6875 429.369 87.6968 429.369
 89.7062 429.369 91.7156 429.369 93.7249 429.369 95.7343 429.369
 97.7437 429.369 99.753 429.369 101.762 429.369 103.772 429.369
 105.781 429.368 107.79 429.368 109.8 429.368 111.809 429.368 113.819
 429.368 115.828 429.368 117.837 429.368 119.847 429.367 121.856
 429.367 123.865 429.366 125.875 429.365 127.884 429.365 129.894
 429.363 131.903 429.362 133.912 429.36 135.922 429.358 137.931
 429.355 139.94 429.352 141.95 429.348 143.959 429.342 145.968
 429.336 147.978 429.328 149.987 429.319 151.997 429.307 154.006
 429.293 156.015 429.275 158.025 429.254 160.034 429.229 162.043
 429.198 164.053 429.162 166.062 429.118 168.072 429.065 170.081
 429.002 172.09 428.928 174.1 428.839 176.109 428.735 178.118 428.611
 180.128 428.466 182.137 428.296 184.146 428.098 186.156 427.866
 188.165 427.596 190.175 427.283 192.184 426.921 194.193 426.504
 196.203 426.023 198.212 425.472 200.221 424.841 202.231 424.122
 204.24 423.303 206.249 422.374 208.259 421.324 210.268 420.139
 212.278 418.805 214.287 417.31 216.296 415.637 218.306 413.772
 220.315 411.697 222.324 409.397 224.334 406.854 226.343 404.051
 228.353 400.971 230.362 397.596 232.371 393.909 234.381 389.893
 236.39 385.532 238.399 380.813 240.409 375.72 242.418 370.241
 244.427 364.367 246.437 358.088 248.446 351.399 250.456 344.296
 252.465 336.779 254.474 328.851 256.484 320.518 258.493 311.79
 260.502 302.68 262.512 293.208 264.521 283.394 266.53 273.266 268.54
 262.854 270.549 252.193 272.559 241.323 274.568 230.287 276.577
 219.132 278.587 207.908 280.596 196.672 282.605 185.478 284.615
 174.388 286.624 163.462 288.634 152.764 290.643 142.358 292.652
 132.307 294.662 122.676 296.671 113.527 298.68 104.922 300.69
 96.9184 302.699 89.5722 304.708 82.9353 306.718 77.0551 308.727
 71.9741 310.737 67.7297 312.746 64.3531 314.755 61.8695 316.765
 60.2975 318.774 59.6489 320.783 59.9285 322.793 61.1343 324.802
 63.2572 326.812 66.2813 328.821 70.184 330.83 74.9364 332.84 80.5035
 334.849 86.8449 336.858 93.915 338.868 101.663 340.877 110.036
 342.886 118.976 344.896 128.423 346.905 138.314 348.915 148.587
 350.924 159.176 352.933 170.019 354.943 181.052 356.952 192.211
 358.961 203.438 360.971 214.673 362.98 225.862 364.989 236.951
 366.999 247.893 369.008 258.642 371.018 269.157 373.027 279.402
 375.036 289.344 377.046 298.955 379.055 308.212 381.064 317.093
 383.074 325.585 385.083 333.675 387.093 341.356 389.102 348.624
 391.111 355.477 393.121 361.918 395.13 367.953 397.139 373.587
 399.149 378.832 401.158 383.699 403.167 388.201 405.177 392.352
 407.186 396.168 409.196 399.665 411.205 402.861 413.214 405.772
 415.224 408.416 417.233 410.81 419.242 412.973 421.252 414.919
 423.261 416.667 425.271 418.231 427.28 419.627 429.289 420.869
 431.299 421.972 433.308 422.948 435.317 423.809 437.327 424.566
 439.336 425.231 441.345 425.813 443.355 426.32 445.364 426.762
 447.374 427.145 449.383 427.477 451.392 427.763 453.402 428.01
 455.411 428.221 457.42 428.402 459.43 428.557 461.439 428.688
 463.448 428.8 465.458 428.894 467.467 428.974 469.477 429.041
 471.486 429.098 473.495 429.145 475.505 429.184 477.514 429.217
 479.523 429.245 481.533 429.267 483.542 429.286 485.552 429.302
 487.561 429.314 489.57 429.325 491.58 429.333 493.589 429.34 495.598
 429.346 497.608 429.35 499.617 429.354 501.626 429.357 503.636
 429.359 505.645 429.361 507.655 429.363 509.664 429.364 511.673
 429.365 513.683 429.366 515.692 429.367 517.701 429.367 519.711
 429.367 521.72 429.368 523.729 429.368 525.739 429.368 527.748
 429.368 529.758 429.368 531.767 429.368 533.776 429.369 535.786
 429.369 537.795 429.369 539.804 429.369 541.814 429.369 543.823
 429.369 545.833 429.369 547.842 429.369 549.851 429.369 551.861
 429.369 553.87 429.369 555.879 429.369 557.889 429.369 559.898
 429.369 561.907 429.369 563.917 429.369 565.926 429.369 567.936
 429.369 569.945 429.369 571.954 429.369 573.964 429.369 575.973
 429.369 577.982 429.369 579.992 429.369 582.001 429.369 584.011
 429.369 586.02 429.369 588.029 429.369 590.039 429.369 592.048
 429.369 594.057 429.369 596.067 429.369 598.076 429.369 600.085
 429.369 602.095 429.369 604.104 429.369 606.114 429.369 608.123
 429.369 610.132 429.369 612.142 429.369 614.151 429.369 616.16
 429.369 618.17 429.369 620.179 429.369 622.188 429.369 624.198
 429.369 626.207 429.369 628.217 429.369 630.226 429.369 632.235
 429.369 634.245 429.369 636.254 429.369 638.263 429.369 640.273
 429.369 642.282 429.369 644.292 429.369 646.301 429.369 648.31
 429.369 650.32 429.369 652.329 429.369 654.338 429.369 656.348
 429.369 658.357 429.369 660.366 429.369 662.376 429.369 664.385
 429.369 666.395 429.369 668.404 429.369 670.413 429.369 672.423
 429.369 674.432 429.369 676.441 429.369 678.451 429.369 680.46
 429.369 682.47 429.369 684.479 429.369 686.488 429.369 688.498
 429.369 690.507 429.369 692.516 429.369 694.526 429.369 696.535
 429.369 698.544 429.369 700.554 429.369 702.563 429.369 704.573
 429.369 706.582 429.369 708.591 429.369 710.601 429.369 712.61
 429.369 714.619 429.369 716.629 429.369 718.638 429.369 720.647
 429.369 722.657 429.369 724.666 429.369 726.676 429.369 728.685
 429.369 730.694 429.369 732.704 429.369 734.713 429.369 736.722
 429.369 738.732 429.369 740.741 429.369 742.751 429.369 744.76
 429.369 746.769 429.369 748.779 429.369 750.788 429.369 752.797
 429.369 754.807 429.369 756.816 429.369 758.825 429.369 760.835
 429.369 762.844 429.369 764.854 429.369 766.863 429.369 768.872
 429.369 770.882 429.369 772.891 429.369 774.9 429.369 776.91 429.369
 778.919 429.369 780.928 429.369 782.938 429.369 784.947 429.369
 786.957 429.369 788.966 429.369 790.975 429.369 792.985 429.369
 794.994 429.369 797.003 429.369 799.013 429.369 801.022 429.369
 803.032 429.369 805.041 429.369 807.05 429.369 809.06 429.369
 811.069 429.369 813.078 429.369 815.088 429.369 817.097 429.369
 819.106 429.369 821.116 429.369 823.125 429.369 825.135 429.369
 827.144 429.369 829.153 429.369 831.163 429.369 833.172 429.369
 835.181 429.369 837.191 429.369 839.2 429.369 841.21 429.369 843.219
 429.369 845.228 429.369 847.238 429.369 849.247 429.369 851.256
 429.369 853.266 429.369 855.275 429.369 857.284 429.369 859.294
 429.369 861.303 429.369 863.313 429.369 865.322 429.369 867.331
 429.369 869.341 429.369 871.35 429.369 873.359 429.369 875.369
 429.369" style="stroke:#4c72b0;fill:none;stroke-width:3" />
<path d="M 73.6312 429.369 75.6406 429.369 77.65 429.369 79.6594 429.369
 81.6687 429.369 83.6781 429.369 85.6875 429.369 87.6968 429.369
 89.7062 429.369 91.7156 429.369 93.7249 429.369 95.7343 429.369
 97.7437 429.369 99.753 429.369 101.762 429.369 103.772 429.369
 105.781 429.368 107.79 429.368 109.8 429.368 111.809 429.368 113.819
 429.368 115.828 429.368 117.837 429.368 119.847 429.367 121.856
 429.367 123.865 429.366 125.875 429.366 127.884 429.365 129.894
 429.364 131.903 429.362 133.912 429.36 135.922 429.358 137.931
 429.356 139.94 429.352 141.95 429.348 143.959 429.343 145.968
 429.337 147.978 429.329 149.987 429.32 151.997 429.309 154.006
 429.295 156.015 429.278 158.025 429.257 160.034 429.233 162.043
 429.203 164.053 429.167 166.062 429.124 168.072 429.073 170.081
 429.011 172.09 428.938 174.1 428.852 176.109 428.75 178.118 428.629
 180.128 428.487 182.137 428.321 184.146 428.126 186.156 427.899
 188.165 427.635 190.175 427.328 192.184 426.973 194.193 426.563
 196.203 426.091 198.212 425.55 200.221 424.931 202.231 424.224
 204.24 423.419 206.249 422.506 208.259 421.472 210.268 420.306
 212.278 418.993 214.287 417.52 216.296 415.872 218.306 414.034
 220.315 411.988 222.324 409.719 224.334 407.21 226.343 404.443
 228.353 401.401 230.362 398.066 232.371 394.422 234.381 390.451
 236.39 386.138 238.399 381.467 240.409 376.425 242.418 370.999
 244.427 365.178 246.437 358.954 248.446 352.32 250.456 345.273
 252.465 337.811 254.474 329.938 256.484 321.659 258.493 312.983
 260.502 303.924 262.512 294.499 264.521 284.729 266.53 274.642
 268.54 264.266 270.549 253.636 272.559 242.792 274.568 231.775
 276.577 220.633 278.587 209.416 280.596 198.177 282.605 186.975
 284.615 175.867 286.624 164.916 288.634 154.183 290.643 143.734
 292.652 133.632 294.662 123.941 296.671 114.724 298.68 106.042
 300.69 97.9547 302.699 90.5174 304.708 83.7825 306.718 77.7982
 308.727 72.6078 310.737 68.2492 312.746 64.7546 314.755 62.15
 316.765 60.4549 318.774 59.682 320.783 59.8371 322.793 60.9191
 324.802 62.9198 326.812 65.8241 328.821 69.6106 330.83 74.2509
 332.84 79.711 334.849 85.9511 336.858 92.9263 338.868 100.587
 340.877 108.879 342.886 117.746 344.896 127.129 346.905 136.964
 348.915 147.189 350.924 157.74 352.933 168.553 354.943 179.563
 356.952 190.71 358.961 201.931 360.971 213.168 362.98 224.366
 364.989 235.471 366.999 246.436 369.008 257.213 371.018 267.762
 373.027 278.045 375.036 288.03 377.046 297.687 379.055 306.992
 381.064 315.924 383.074 324.469 385.083 332.614 387.093 340.35
 389.102 347.673 391.111 354.582 393.121 361.078 395.13 367.167
 397.139 372.855 399.149 378.151 401.158 383.068 403.167 387.618
 405.177 391.815 407.186 395.675 409.196 399.214 411.205 402.449
 413.214 405.397 415.224 408.076 417.233 410.503 419.242 412.696
 421.252 414.67 423.261 416.443 425.271 418.031 427.28 419.449
 429.289 420.711 431.299 421.832 433.308 422.824 435.317 423.699
 437.327 424.47 439.336 425.147 441.345 425.739 443.355 426.256
 445.364 426.706 447.374 427.097 449.383 427.435 451.392 427.727
 453.402 427.979 455.411 428.195 457.42 428.379 459.43 428.537
 461.439 428.672 463.448 428.786 465.458 428.882 467.467 428.964
 469.477 429.033 471.486 429.091 473.495 429.139 475.505 429.18
 477.514 429.213 479.523 429.241 481.533 429.265 483.542 429.284
 485.552 429.3 487.561 429.313 489.57 429.323 491.58 429.332 493.589
 429.339 495.598 429.345 497.608 429.35 499.617 429.354 501.626
 429.357 503.636 429.359 505.645 429.361 507.655 429.363 509.664
 429.364 511.673 429.365 513.683 429.366 515.692 429.366 517.701
 429.367 519.711 429.367 521.72 429.368 523.729 429.368 525.739
 429.368 527.748 429.368 529.758 429.368 531.767 429.368 533.776
 429.369 535.786 429.369 537.795 429.369 539.804 429.369 541.814
 429.369 543.823 429.369 545.833 429.369 547.842 429.369 549.851
 429.369 551.861 429.369 553.87 429.369 555.879 429.369 557.889
 429.369 559.898 429.369 561.907 429.369 563.917 429.369 565.926
 429.369 567.936 429.369 569.945 429.369 571.954 429.369 573.964
 429.369 575.973 429.369 577.982 429.369 579.992 429.369 582.001
 429.369 584.011 429.369 586.02 429.369 588.029 429.369 590.039
 429.369 592.048 429.369 594.057 429.369 596.067 429.369 598.076
 429.369 600.085 429.369 602.095 429.369 604.104 429.369 606.114
 429.369 608.123 429.369 610.132 429.369 612.142 429.369 614.151
 429.369 616.16 429.369 618.17 429.369 620.179 429.369 622.188
 429.369 624.198 429.369 626.207 429.369 628.217 429.369 630.226
 429.369 632.235 429.369 634.245 429.369 636.254 429.369 638.263
 429.369 640.273 429.369 642.282 429.369 644.292 429.369 646.301
 429.369 648.31 429.369 650.32 429.369 652.329 429.369 654.338
 429.369 656.348 429.369 658.357 429.369 660.366 429.369 662.376
 429.369 664.385 429.369 666.395 429.369 668.404 429.369 670.413
 429.369 672.423 429.369 674.432 429.369 676.441 429.369 678.451
 429.369 680.46 429.369 682.47 429.369 684.479 429.369 686.488
 429.369 688.498 429.369 690.507 429.369 692.516 429.369 694.526
 429.369 696.535 429.369 698.544 429.369 700.554 429.369 702.563
 429.369 704.573 429.369 706.582 429.369 708.591 429.369 710.601
 429.369 712.61 429.369 714.619 429.369 716.629 429.369 718.638
 429.369 720.647 429.369 722.657 429.369 724.666 429.369 726.676
 429.369 728.685 429.369 730.694 429.369 732.704 429.369 734.713
 429.369 736.722 429.369 738.732 429.369 740.741 429.369 742.751
 429.369 744.76 429.369 746.769 429.369 748.779 429.369 750.788
 429.369 752.797 429.369 754.807 429.369 756.816 429.369 758.825
 429.369 760.835 429.369 762.844 429.369 764.854 429.369 766.863
 429.369 768.872 429.369 770.882 429.369 772.891 429.369 774.9
 429.369 776.91 429.369 778.919 429.369 780.928 429.369 782.938
 429.369 784.947 429.369 786.957 429.369 788.966 429.369 790.975
 429.369 792.985 429.369 794.994 429.369 797.003 429.369 799.013
 429.369 801.022 429.369 803.032 429.369 805.041 429.369 807.05
 429.369 809.06 429.369 811.069 429.369 813.078 429.369 815.088
 429.369 817.097 429.369 819.106 429.369 821.116 429.369 823.125
 429.369 825.135 429.369 827.144 429.369 829.153 429.369 831.163
 429.369 833.172 429.369 835.181 429.369 837.191 429.369 839.2
 429.369 841.21 429.369 843.219 429.369 845.228 429.369 847.238
 429.369 849.247 429.369 851.256 429.369 853.266 429.369 855.275
 429.369 857.284 429.369 859.294 429.369 861.303 429.369 863.313
 429.369 865.322 429.369 867.331 429.369 869.341 429.369 871.35
 429.369 873.359 429.369 875.369 429.369" style="stroke:#8172b2;fill:none;stroke-width:3" />
<path d="M 73.6312 429.369 75.6406 429.369 77.65 429.369 79.6594 429.369
 81.6687 429.369 83.6781 429.369 85.6875 429.369 87.6968 429.369
 89.7062 429.369 91.7156 429.369 93.7249 429.369 95.7343 429.369
 97.7437 429.369 99.753 429.369 101.762 429.369 103.772 429.369
 105.781 429.369 107.79 429.369 109.8 429.369 111.809 429.369 113.819
 429.369 115.828 429.369 117.837 429.369 119.847 429.369 121.856
 429.369 123.865 429.369 125.875 429.369 127.884 429.369 129.894
 429.369 131.903 429.369 133.912 429.369 135.922 429.369 137.931
 429.369 139.94 429.369 141.95 429.369 143.959 429.369 145.968
 429.369 147.978 429.369 149.987 429.369 151.997 429.369 154.006
 429.369 156.015 429.369 158.025 429.369 160.034 429.369 162.043
 429.369 164.053 429.369 166.062 429.369 168.072 429.369 170.081
 429.369 172.09 429.369 174.1 429.369 176.109 429.369 178.118 429.369
 180.128 429.369 182.137 429.369 184.146 429.369 186.156 429.369
 188.165 429.369 190.175 429.369 192.184 429.369 194.193 429.369
 196.203 429.369 198.212 429.369 200.221 429.369 202.231 429.369
 204.24 429.369 206.249 429.369 208.259 429.369 210.268 429.369
 212.278 429.369 214.287 429.369 216.296 429.369 218.306 429.369
 220.315 429.369 222.324 429.369 224.334 429.369 226.343 429.369
 228.353 429.369 230.362 429.369 232.371 429.369 234.381 429.369
 236.39 429.369 238.399 429.369 240.409 429.369 242.418 429.369
 244.427 429.369 246.437 429.369 248.446 429.369 250.456 429.369
 252.465 429.369 254.474 429.369 256.484 429.369 258.493 429.369
 260.502 429.369 262.512 429.369 264.521 429.369 266.53 429.369
 268.54 429.369 270.549 429.369 272.559 429.369 274.568 429.369
 276.577 429.369 278.587 429.369 280.596 429.369 282.605 429.369
 284.615 429.369 286.624 429.369 288.634 429.369 290.643 429.369
 292.652 429.369 294.662 429.369 296.671 429.369 298.68 429.369
 300.69 429.369 302.699 429.369 304.708 429.369 306.718 429.369
 308.727 429.369 310.737 429.369 312.746 429.369 314.755 429.369
 316.765 429.369 318.774 429.369 320.783 429.369 322.793 429.369
 324.802 429.369 326.812 429.369 328.821 429.369 330.83 429.369
 332.84 429.369 334.849 429.369 336.858 429.369 338.868 429.369
 340.877 429.369 342.886 429.369 344.896 429.369 346.905 429.369
 348.915 429.369 350.924 429.369 352.933 429.369 354.943 429.369
 356.952 429.369 358.961 429.369 360.971 429.369 362.98 429.369
 364.989 429.369 366.999 429.368 369.008 429.368 371.018 429.368
 373.027 429.368 375.036 429.368 377.046 429.368 379.055 429.367
 381.064 429.367 383.074 429.367 385.083 429.366 387.093 429.365
 389.102 429.364 391.111 429.363 393.121 429.362 395.13 429.36
 397.139 429.357 399.149 429.355 401.158 429.351 403.167 429.347
 405.177 429.341 407.186 429.334 409.196 429.326 411.205 429.316
 413.214 429.304 415.224 429.289 417.233 429.271 419.242 429.249
 421.252 429.222 423.261 429.19 425.271 429.152 427.28 429.106
 429.289 429.051 431.299 428.986 433.308 428.908 435.317 428.816
 437.327 428.707 439.336 428.579 441.345 428.428 443.355 428.252
 445.364 428.046 447.374 427.805 449.383 427.526 451.392 427.202
 453.402 426.827 455.411 426.395 457.42 425.899 459.43 425.329
 461.439 424.678 463.448 423.936 465.458 423.092 467.467 422.136
 469.477 421.054 471.486 419.835 473.495 418.465 475.505 416.928
 477.514 415.211 479.523 413.297 481.533 411.171 483.542 408.814
 485.552 406.211 487.561 403.344 489.57 400.195 491.58 396.747
 493.589 392.983 495.598 388.886 497.608 384.442 499.617 379.634
 501.626 374.45 503.636 368.878 505.645 362.908 507.655 356.532
 509.664 349.745 511.673 342.544 513.683 334.928 515.692 326.903
 517.701 318.475 519.711 309.654 521.72 300.457 523.729 290.901
 525.739 281.01 527.748 270.811 529.758 260.336 531.767 249.622
 533.776 238.708 535.786 227.639 537.795 216.463 539.804 205.232
 541.814 194 543.823 182.826 545.833 171.769 547.842 160.891 549.851
 150.257 551.861 139.93 553.87 129.973 555.879 120.451 557.889
 111.426 559.898 102.959 561.907 95.1073 563.917 87.9255 565.926
 81.4647 567.936 75.7711 569.945 70.8862 571.954 66.8458 573.964
 63.6799 575.973 61.4119 577.982 60.059 579.992 59.6313 582.001
 60.1319 584.011 61.5572 586.02 63.8964 588.029 67.132 590.039
 71.2398 592.048 76.1897 594.057 81.9451 596.067 88.4643 598.076
 95.7006 600.085 103.603 602.095 112.116 604.104 121.182 606.114
 130.74 608.123 140.728 610.132 151.082 612.142 161.738 614.151
 172.632 616.16 183.7 618.17 194.881 620.179 206.115 622.188 217.344
 624.198 228.513 626.207 239.572 628.217 250.472 630.226 261.169
 632.235 271.623 634.245 281.798 636.254 291.664 638.263 301.193
 640.273 310.361 642.282 319.151 644.292 327.548 646.301 335.542
 648.31 343.124 650.32 350.293 652.329 357.048 654.338 363.392
 656.348 369.33 658.357 374.871 660.366 380.025 662.376 384.804
 664.385 389.22 666.395 393.29 668.404 397.029 670.413 400.453
 672.423 403.579 674.432 406.425 676.441 409.008 678.451 411.346
 680.46 413.455 682.47 415.353 684.479 417.055 686.488 418.578
 688.498 419.936 690.507 421.144 692.516 422.215 694.526 423.163
 696.535 423.998 698.544 424.733 700.554 425.377 702.563 425.94
 704.573 426.431 706.582 426.858 708.591 427.229 710.601 427.549
 712.61 427.825 714.619 428.063 716.629 428.267 718.638 428.441
 720.647 428.59 722.657 428.716 724.666 428.824 726.676 428.914
 728.685 428.991 730.694 429.056 732.704 429.11 734.713 429.155
 736.722 429.193 738.732 429.224 740.741 429.251 742.751 429.272
 744.76 429.29 746.769 429.305 748.779 429.317 750.788 429.327
 752.797 429.335 754.807 429.342 756.816 429.347 758.825 429.351
 760.835 429.355 762.844 429.358 764.854 429.36 766.863 429.362
 768.872 429.363 770.882 429.364 772.891 429.365 774.9 429.366 776.91
 429.367 778.919 429.367 780.928 429.367 782.938 429.368 784.947
 429.368 786.957 429.368 788.966 429.368 790.975 429.368 792.985
 429.368 794.994 429.369 797.003 429.369 799.013 429.369 801.022
 429.369 803.032 429.369 805.041 429.369 807.05 429.369 809.06
 429.369 811.069 429.369 813.078 429.369 815.088 429.369 817.097
 429.369 819.106 429.369 821.116 429.369 823.125 429.369 825.135
 429.369 827.144 429.369 829.153 429.369 831.163 429.369 833.172
 429.369 835.181 429.369 837.191 429.369 839.2 429.369 841.21 429.369
 843.219 429.369 845.228 429.369 847.238 429.369 849.247 429.369
 851.256 429.369 853.266 429.369 855.275 429.369 857.284 429.369
 859.294 429.369 861.303 429.369 863.313 429.369 865.322 429.369
 867.331 429.369 869.341 429.369 871.35 429.369 873.359 429.369
 875.369 429.369" style="stroke:#ccb974;fill:none;stroke-width:3" />
<path d="M 73.6312 429.369 75.6406 429.369 77.65 429.369 79.6594 429.369
 81.6687 429.369 83.6781 429.369 85.6875 429.369 87.6968 429.369
 89.7062 429.369 91.7156 429.369 93.7249 429.369 95.7343 429.369
 97.7437 429.369 99.753 429.369 101.762 429.369 103.772 429.369
 105.781 429.369 107.79 429.369 109.8 429.369 111.809 429.369 113.819
 429.369 115.828 429.369 117.837 429.369 119.847 429.369 121.856
 429.369 123.865 429.369 125.875 429.369 127.884 429.369 129.894
 429.369 131.903 429.369 133.912 429.369 135.922 429.369 137.931
 429.369 139.94 429.369 141.95 429.369 143.959 429.369 145.968
 429.369 147.978 429.369 149.987 429.369 151.997 429.369 154.006
 429.369 156.015 429.369 158.025 429.369 160.034 429.369 162.043
 429.369 164.053 429.369 166.062 429.369 168.072 429.369 170.081
 429.369 172.09 429.369 174.1 429.369 176.109 429.369 178.118 429.369
 180.128 429.369 182.137 429.369 184.146 429.369 186.156 429.369
 188.165 429.369 190.175 429.369 192.184 429.369 194.193 429.369
 196.203 429.369 198.212 429.369 200.221 429.369 202.231 429.369
 204.24 429.369 206.249 429.369 208.259 429.369 210.268 429.369
 212.278 429.369 214.287 429.369 216.296 429.369 218.306 429.369
 220.315 429.369 222.324 429.369 224.334 429.369 226.343 429.369
 228.353 429.369 230.362 429.369 232.371 429.369 234.381 429.369
 236.39 429.369 238.399 429.369 240.409 429.369 242.418 429.369
 244.427 429.369 246.437 429.369 248.446 429.369 250.456 429.369
 252.465 429.369 254.474 429.369 256.484 429.369 258.493 429.369
 260.502 429.369 262.512 429.369 264.521 429.369 266.53 429.369
 268.54 429.369 270.549 429.369 272.559 429.369 274.568 429.369
 276.577 429.369 278.587 429.369 280.596 429.369 282.605 429.369
 284.615 429.369 286.624 429.369 288.634 429.368 290.643 429.368
 292.652 429.368 294.662 429.368 296.671 429.368 298.68 429.368
 300.69 429.367 302.699 429.367 304.708 429.367 306.718 429.366
 308.727 429.365 310.737 429.364 312.746 429.363 314.755 429.362
 316.765 429.36 318.774 429.358 320.783 429.355 322.793 429.352
 324.802 429.347 326.812 429.342 328.821 429.335 330.83 429.327
 332.84 429.318 334.849 429.306 336.858 429.291 338.868 429.273
 340.877 429.252 342.886 429.226 344.896 429.195 346.905 429.157
 348.915 429.113 350.924 429.059 352.933 428.995 354.943 428.919
 356.952 428.829 358.961 428.723 360.971 428.598 362.98 428.451
 364.989 428.278 366.999 428.076 369.008 427.84 371.018 427.567
 373.027 427.249 375.036 426.882 377.046 426.458 379.055 425.971
 381.064 425.412 383.074 424.773 385.083 424.044 387.093 423.215
 389.102 422.274 391.111 421.211 393.121 420.011 395.13 418.662
 397.139 417.15 399.149 415.458 401.158 413.572 403.167 411.476
 405.177 409.152 407.186 406.584 409.196 403.754 411.205 400.645
 413.214 397.239 415.224 393.519 417.233 389.469 419.242 385.073
 421.252 380.316 423.261 375.185 425.271 369.667 427.28 363.752
 429.289 357.432 431.299 350.702 433.308 343.557 435.317 335.999
 437.327 328.029 439.336 319.656 441.345 310.889 443.355 301.742
 445.364 292.234 447.374 282.387 449.383 272.229 451.392 261.79
 453.402 251.106 455.411 240.217 457.42 229.167 459.43 218.003
 461.439 206.776 463.448 195.541 465.458 184.355 467.467 173.278
 469.477 162.372 471.486 151.701 473.495 141.327 475.505 131.316
 477.514 121.731 479.523 112.634 481.533 104.087 483.542 96.1473
 485.552 88.8704 487.561 82.3076 489.57 76.5061 491.58 71.5079
 493.589 67.3496 495.598 64.062 497.608 61.6695 499.617 60.1902
 501.626 59.635 503.636 60.0082 505.645 61.3069 507.655 63.5215
 509.664 66.6353 511.673 70.625 513.683 75.4612 515.692 81.1083
 517.701 87.5253 519.711 94.6661 521.72 102.48 523.729 110.913
 525.739 119.906 527.748 129.401 529.758 139.333 531.767 149.641
 533.776 160.259 535.786 171.124 537.795 182.172 539.804 193.341
 541.814 204.571 543.823 215.804 545.833 226.985 547.842 238.061
 549.851 248.986 551.861 259.713 553.87 270.203 555.879 280.418
 557.889 290.328 559.898 299.905 561.907 309.124 563.917 317.967
 565.926 326.419 567.936 334.468 569.945 342.107 571.954 349.333
 573.964 356.145 575.973 362.545 577.982 368.538 579.992 374.134
 582.001 379.34 584.011 384.169 586.02 388.635 588.029 392.751
 590.039 396.534 592.048 400 594.057 403.167 596.067 406.05 598.076
 408.668 600.085 411.039 602.095 413.178 604.104 415.104 606.114
 416.832 608.123 418.379 610.132 419.759 612.142 420.987 614.151
 422.076 616.16 423.039 618.17 423.889 620.179 424.637 622.188
 425.293 624.198 425.867 626.207 426.368 628.217 426.803 630.226
 427.181 632.235 427.508 634.245 427.79 636.254 428.032 638.263
 428.241 640.273 428.419 642.282 428.571 644.292 428.7 646.301 428.81
 648.31 428.903 650.32 428.981 652.329 429.047 654.338 429.103
 656.348 429.149 658.357 429.188 660.366 429.22 662.376 429.247
 664.385 429.269 666.395 429.288 668.404 429.303 670.413 429.315
 672.423 429.326 674.432 429.334 676.441 429.341 678.451 429.346
 680.46 429.351 682.47 429.354 684.479 429.357 686.488 429.36 688.498
 429.362 690.507 429.363 692.516 429.364 694.526 429.365 696.535
 429.366 698.544 429.367 700.554 429.367 702.563 429.367 704.573
 429.368 706.582 429.368 708.591 429.368 710.601 429.368 712.61
 429.368 714.619 429.368 716.629 429.369 718.638 429.369 720.647
 429.369 722.657 429.369 724.666 429.369 726.676 429.369 728.685
 429.369 730.694 429.369 732.704 429.369 734.713 429.369 736.722
 429.369 738.732 429.369 740.741 429.369 742.751 429.369 744.76
 429.369 746.769 429.369 748.779 429.369 750.788 429.369 752.797
 429.369 754.807 429.369 756.816 429.369 758.825 429.369 760.835
 429.369 762.844 429.369 764.854 429.369 766.863 429.369 768.872
 429.369 770.882 429.369 772.891 429.369 774.9 429.369 776.91 429.369
 778.919 429.369 780.928 429.369 782.938 429.369 784.947 429.369
 786.957 429.369 788.966 429.369 790.975 429.369 792.985 429.369
 794.994 429.369 797.003 429.369 799.013 429.369 801.022 429.369
 803.032 429.369 805.041 429.369 807.05 429.369 809.06 429.369
 811.069 429.369 813.078 429.369 815.088 429.369 817.097 429.369
 819.106 429.369 821.116 429.369 823.125 429.369 825.135 429.369
 827.144 429.369 829.153 429.369 831.163 429.369 833.172 429.369
 835.181 429.369 837.191 429.369 839.2 429.369 841.21 429.369 843.219
 429.369 845.228 429.369 847.238 429.369 849.247 429.369 851.256
 429.369 853.266 429.369 855.275 429.369 857.284 429.369 859.294
 429.369 861.303 429.369 863.313 429.369 865.322 429.369 867.331
 429.369 869.341 429.369 871.35 429.369 873.359 429.369 875.369
 429.369" style="stroke:#64b5cd;fill:none;stroke-width:3" />
<path d="M 73.6312 429.369 75.6406 429.369 77.65 429.369 79.6594 429.369
 81.6687 429.369 83.6781 429.369 85.6875 429.369 87.6968 429.369
 89.7062 429.369 91.7156 429.369 93.7249 429.369 95.7343 429.369
 97.7437 429.369 99.753 429.369 101.762 429.369 103.772 429.369
 105.781 429.369 107.79 429.369 109.8 429.369 111.809 429.369 113.819
 429.369 115.828 429.368 117.837 429.368 119.847 429.368 121.856
 429.368 123.865 429.368 125.875 429.368 127.884 429.367 129.894
 429.367 131.903 429.366 133.912 429.366 135.922 429.365 137.931
 429.364 139.94 429.363 141.95 429.361 143.959 429.359 145.968
 429.356 147.978 429.353 149.987 429.349 151.997 429.345 154.006
 429.339 156.015 429.332 158.025 429.323 160.034 429.312 162.043
 429.299 164.053 429.283 166.062 429.263 168.072 429.24 170.081
 429.211 172.09 429.177 174.1 429.136 176.109 429.087 178.118 429.028
 180.128 428.959 182.137 428.876 184.146 428.778 186.156 428.663
 188.165 428.527 190.175 428.367 192.184 428.18 194.193 427.962
 196.203 427.708 198.212 427.412 200.221 427.071 202.231 426.676
 204.24 426.221 206.249 425.699 208.259 425.101 210.268 424.418
 212.278 423.64 214.287 422.756 216.296 421.755 218.306 420.625
 220.315 419.351 222.324 417.922 224.334 416.321 226.343 414.534
 228.353 412.544 230.362 410.335 232.371 407.891 234.381 405.193
 236.39 402.224 238.399 398.968 240.409 395.406 242.418 391.522
 244.427 387.3 246.437 382.724 248.446 377.78 250.456 372.455 252.465
 366.739 254.474 360.621 256.484 354.095 258.493 347.156 260.502
 339.803 262.512 332.037 264.521 323.863 266.53 315.29 268.54 306.329
 270.549 296.998 272.559 287.316 274.568 277.309 276.577 267.005
 278.587 256.439 280.596 245.646 282.605 234.67 284.615 223.556
 286.624 212.354 288.634 201.116 290.643 189.898 292.652 178.76
 294.662 167.761 296.671 156.965 298.68 146.436 300.69 136.237
 302.699 126.432 304.708 117.085 306.718 108.258 308.727 100.009
 310.737 92.3968 312.746 85.4733 314.755 79.2883 316.765 73.8864
 318.774 69.3069 320.783 65.5836 322.793 62.7441 324.802 60.8096
 326.812 59.7947 328.821 59.7069 330.83 60.547 332.84 62.3085 334.849
 64.9784 336.858 68.5365 338.868 72.9566 340.877 78.2059 342.886
 84.2462 344.896 91.0337 346.905 98.52 348.915 106.653 350.924
 115.375 352.933 124.629 354.943 134.351 356.952 144.481 358.961
 154.953 360.971 165.703 362.98 176.668 364.989 187.785 366.999
 198.992 369.008 210.23 371.018 221.444 373.027 232.579 375.036
 243.584 377.046 254.415 379.055 265.027 381.064 275.383 383.074
 285.449 385.083 295.194 387.093 304.593 389.102 313.625 391.111
 322.273 393.121 330.523 395.13 338.366 397.139 345.798 399.149
 352.815 401.158 359.419 403.167 365.613 405.177 371.405 407.186
 376.803 409.196 381.818 411.205 386.462 413.214 390.75 415.224
 394.697 417.233 398.318 419.242 401.631 421.252 404.653 423.261
 407.401 425.271 409.892 427.28 412.144 429.289 414.174 431.299
 415.998 433.308 417.633 435.317 419.094 437.327 420.395 439.336
 421.552 441.345 422.576 443.355 423.481 445.364 424.278 447.374
 424.978 449.383 425.592 451.392 426.128 453.402 426.595 455.411 427
 457.42 427.352 459.43 427.655 461.439 427.917 463.448 428.141
 465.458 428.334 467.467 428.498 469.477 428.639 471.486 428.758
 473.495 428.859 475.505 428.944 477.514 429.016 479.523 429.077
 481.533 429.127 483.542 429.17 485.552 429.205 487.561 429.235
 489.57 429.259 491.58 429.279 493.589 429.296 495.598 429.31 497.608
 429.321 499.617 429.33 501.626 429.338 503.636 429.344 505.645
 429.349 507.655 429.353 509.664 429.356 511.673 429.359 513.683
 429.361 515.692 429.362 517.701 429.364 519.711 429.365 521.72
 429.366 523.729 429.366 525.739 429.367 527.748 429.367 529.758
 429.368 531.767 429.368 533.776 429.368 535.786 429.368 537.795
 429.368 539.804 429.368 541.814 429.369 543.823 429.369 545.833
 429.369 547.842 429.369 549.851 429.369 551.861 429.369 553.87
 429.369 555.879 429.369 557.889 429.369 559.898 429.369 561.907
 429.369 563.917 429.369 565.926 429.369 567.936 429.369 569.945
 429.369 571.954 429.369 573.964 429.369 575.973 429.369 577.982
 429.369 579.992 429.369 582.001 429.369 584.011 429.369 586.02
 429.369 588.029 429.369 590.039 429.369 592.048 429.369 594.057
 429.369 596.067 429.369 598.076 429.369 600.085 429.369 602.095
 429.369 604.104 429.369 606.114 429.369 608.123 429.369 610.132
 429.369 612.142 429.369 614.151 429.369 616.16 429.369 618.17
 429.369 620.179 429.369 622.188 429.369 624.198 429.369 626.207
 429.369 628.217 429.369 630.226 429.369 632.235 429.369 634.245
 429.369 636.254 429.369 638.263 429.369 640.273 429.369 642.282
 429.369 644.292 429.369 646.301 429.369 648.31 429.369 650.32
 429.369 652.329 429.369 654.338 429.369 656.348 429.369 658.357
 429.369 660.366 429.369 662.376 429.369 664.385 429.369 666.395
 429.369 668.404 429.369 670.413 429.369 672.423 429.369 674.432
 429.369 676.441 429.369 678.451 429.369 680.46 429.369 682.47
 429.369 684.479 429.369 686.488 429.369 688.498 429.369 690.507
 429.369 692.516 429.369 694.526 429.369 696.535 429.369 698.544
 429.369 700.554 429.369 702.563 429.369 704.573 429.369 706.582
 429.369 708.591 429.369 710.601 429.369 712.61 429.369 714.619
 429.369 716.629 429.369 718.638 429.369 720.647 429.369 722.657
 429.369 724.666 429.369 726.676 429.369 728.685 429.369 730.694
 429.369 732.704 429.369 734.713 429.369 736.722 429.369 738.732
 429.369 740.741 429.369 742.751 429.369 744.76 429.369 746.769
 429.369 748.779 429.369 750.788 429.369 752.797 429.369 754.807
 429.369 756.816 429.369 758.825 429.369 760.835 429.369 762.844
 429.369 764.854 429.369 766.863 429.369 768.872 429.369 770.882
 429.369 772.891 429.369 774.9 429.369 776.91 429.369 778.919 429.369
 780.928 429.369 782.938 429.369 784.947 429.369 786.957 429.369
 788.966 429.369 790.975 429.369 792.985 429.369 794.994 429.369
 797.003 429.369 799.013 429.369 801.022 429.369 803.032 429.369
 805.041 429.369 807.05 429.369 809.06 429.369 811.069 429.369
 813.078 429.369 815.088 429.369 817.097 429.369 819.106 429.369
 821.116 429.369 823.125 429.369 825.135 429.369 827.144 429.369
 829.153 429.369 831.163 429.369 833.172 429.369 835.181 429.369
 837.191 429.369 839.2 429.369 841.21 429.369 843.219 429.369 845.228
 429.369 847.238 429.369 849.247 429.369 851.256 429.369 853.266
 429.369 855.275 429.369 857.284 429.369 859.294 429.369 861.303
 429.369 863.313 429.369 865.322 429.369 867.331 429.369 869.341
 429.369 871.35 429.369 873.359 429.369 875.369 429.369" style="stroke:#4c72b0;fill:none;stroke-width:3" />
<path d="M 73.6312 429.369 75.6406 429.369 77.65 429.369 79.6594 429.369
 81.6687 429.369 83.6781 429.369 85.6875 429.368 87.6968 429.368
 89.7062 429.368 91.7156 429.368 93.7249 429.368 95.7343 429.368
 97.7437 429.368 99.753 429.367 101.762 429.367 103.772 429.366
 105.781 429.365 107.79 429.365 109.8 429.363 111.809 429.362 113.819
 429.36 115.828 429.358 117.837 429.355 119.847 429.352 121.856
 429.348 123.865 429.342 125.875 429.336 127.884 429.328 129.894
 429.319 131.903 429.307 133.912 429.293 135.922 429.275 137.931
 429.254 139.94 429.229 141.95 429.198 143.959 429.162 145.968
 429.118 147.978 429.065 149.987 429.002 151.997 428.928 154.006
 428.839 156.015 428.735 158.025 428.612 160.034 428.467 162.043
 428.297 164.053 428.098 166.062 427.866 168.072 427.596 170.081
 427.284 172.09 426.922 174.1 426.504 176.109 426.024 178.118 425.473
 180.128 424.842 182.137 424.123 184.146 423.304 186.156 422.376
 188.165 421.325 190.175 420.14 192.184 418.807 194.193 417.312
 196.203 415.64 198.212 413.775 200.221 411.7 202.231 409.401 204.24
 406.858 206.249 404.056 208.259 400.976 210.268 397.601 212.278
 393.914 214.287 389.899 216.296 385.539 218.306 380.82 220.315
 375.727 222.324 370.249 224.334 364.375 226.343 358.097 228.353
 351.409 230.362 344.307 232.371 336.79 234.381 328.863 236.39 320.53
 238.399 311.803 240.409 302.694 242.418 293.222 244.427 283.409
 246.437 273.281 248.446 262.869 250.456 252.209 252.465 241.339
 254.474 230.303 256.484 219.148 258.493 207.924 260.502 196.688
 262.512 185.494 264.521 174.404 266.53 163.478 268.54 152.779
 270.549 142.372 272.559 132.321 274.568 122.689 276.577 113.54
 278.587 104.934 280.596 96.9293 282.605 89.5822 284.615 82.9443
 286.624 77.0629 288.634 71.9808 290.643 67.7351 292.652 64.3573
 294.662 61.8724 296.671 60.2991 298.68 59.6492 300.69 59.9275
 302.699 61.132 304.708 63.2535 306.718 66.2763 308.727 70.1778
 310.737 74.929 312.746 80.495 314.755 86.8354 316.765 93.9044
 318.774 101.652 320.783 110.024 322.793 118.963 324.802 128.409
 326.812 138.3 328.821 148.572 330.83 159.161 332.84 170.004 334.849
 181.036 336.858 192.195 338.868 203.422 340.877 214.657 342.886
 225.846 344.896 236.935 346.905 247.877 348.915 258.627 350.924
 269.142 352.933 279.388 354.943 289.33 356.952 298.942 358.961
 308.199 360.971 317.081 362.98 325.573 364.989 333.664 366.999
 341.345 369.008 348.614 371.018 355.467 373.027 361.909 375.036
 367.944 377.046 373.58 379.055 378.825 381.064 383.692 383.074
 388.194 385.083 392.346 387.093 396.162 389.102 399.66 391.111
 402.856 393.121 405.768 395.13 408.412 397.139 410.807 399.149
 412.97 401.158 414.917 403.167 416.664 405.177 418.229 407.186
 419.625 409.196 420.868 411.205 421.97 413.214 422.946 415.224
 423.807 417.233 424.565 419.242 425.23 421.252 425.812 423.261
 426.32 425.271 426.761 427.28 427.145 429.289 427.477 431.299
 427.763 433.308 428.009 435.317 428.221 437.327 428.402 439.336
 428.556 441.345 428.688 443.355 428.8 445.364 428.894 447.374
 428.974 449.383 429.041 451.392 429.098 453.402 429.145 455.411
 429.184 457.42 429.217 459.43 429.245 461.439 429.267 463.448
 429.286 465.458 429.302 467.467 429.314 469.477 429.325 471.486
 429.333 473.495 429.34 475.505 429.346 477.514 429.35 479.523
 429.354 481.533 429.357 483.542 429.359 485.552 429.361 487.561
 429.363 489.57 429.364 491.58 429.365 493.589 429.366 495.598
 429.367 497.608 429.367 499.617 429.367 501.626 429.368 503.636
 429.368 505.645 429.368 507.655 429.368 509.664 429.368 511.673
 429.368 513.683 429.369 515.692 429.369 517.701 429.369 519.711
 429.369 521.72 429.369 523.729 429.369 525.739 429.369 527.748
 429.369 529.758 429.369 531.767 429.369 533.776 429.369 535.786
 429.369 537.795 429.369 539.804 429.369 541.814 429.369 543.823
 429.369 545.833 429.369 547.842 429.369 549.851 429.369 551.861
 429.369 553.87 429.369 555.879 429.369 557.889 429.369 559.898
 429.369 561.907 429.369 563.917 429.369 565.926 429.369 567.936
 429.369 569.945 429.369 571.954 429.369 573.964 429.369 575.973
 429.369 577.982 429.369 579.992 429.369 582.001 429.369 584.011
 429.369 586.02 429.369 588.029 429.369 590.039 429.369 592.048
 429.369 594.057 429.369 596.067 429.369 598.076 429.369 600.085
 429.369 602.095 429.369 604.104 429.369 606.114 429.369 608.123
 429.369 610.132 429.369 612.142 429.369 614.151 429.369 616.16
 429.369 618.17 429.369 620.179 429.369 622.188 429.369 624.198
 429.369 626.207 429.369 628.217 429.369 630.226 429.369 632.235
 429.369 634.245 429.369 636.254 429.369 638.263 429.369 640.273
 429.369 642.282 429.369 644.292 429.369 646.301 429.369 648.31
 429.369 650.32 429.369 652.329 429.369 654.338 429.369 656.348
 429.369 658.357 429.369 660.366 429.369 662.376 429.369 664.385
 429.369 666.395 429.369 668.404 429.369 670.413 429.369 672.423
 429.369 674.432 429.369 676.441 429.369 678.451 429.369 680.46
 429.369 682.47 429.369 684.479 429.369 686.488 429.369 688.498
 429.369 690.507 429.369 692.516 429.369 694.526 429.369 696.535
 429.369 698.544 429.369 700.554 429.369 702.563 429.369 704.573
 429.369 706.582 429.369 708.591 429.369 710.601 429.369 712.61
 429.369 714.619 429.369 716.629 429.369 718.638 429.369 720.647
 429.369 722.657 429.369 724.666 429.369 726.676 429.369 728.685
 429.369 730.694 429.369 732.704 429.369 734.713 429.369 736.722
 429.369 738.732 429.369 740.741 429.369 742.751 429.369 744.76
 429.369 746.769 429.369 748.779 429.369 750.788 429.369 752.797
 429.369 754.807 429.369 756.816 429.369 758.825 429.369 760.835
 429.369 762.844 429.369 764.854 429.369 766.863 429.369 768.872
 429.369 770.882 429.369 772.891 429.369 774.9 429.369 776.91 429.369
 778.919 429.369 780.928 429.369 782.938 429.369 784.947 429.369
 786.957 429.369 788.966 429.369 790.975 429.369 792.985 429.369
 794.994 429.369 797.003 429.369 799.013 429.369 801.022 429.369
 803.032 429.369 805.041 429.369 807.05 429.369 809.06 429.369
 811.069 429.369 813.078 429.369 815.088 429.369 817.097 429.369
 819.106 429.369 821.116 429.369 823.125 429.369 825.135 429.369
 827.144 429.369 829.153 429.369 831.163 429.369 833.172 429.369
 835.181 429.369 837.191 429.369 839.2 429.369 841.21 429.369 843.219
 429.369 845.228 429.369 847.238 429.369 849.247 429.369 851.256
 429.369 853.266 429.369 855.275 429.369 857.284 429.369 859.294
 429.369 861.303 429.369 863.313 429.369 865.322 429.369 867.331
 429.369 869.341 429.369 871.35 429.369 873.359 429.369 875.369
 429.369" style="stroke:#55a868;fill:none;stroke-width:3" />
<path d="M 73.6312 429.369 75.6406 429.369 77.65 429.369 79.6594 429.369
 81.6687 429.369 83.6781 429.369 85.6875 429.369 87.6968 429.369
 89.7062 429.369 91.7156 429.369 93.7249 429.369 95.7343 429.369
 97.7437 429.369 99.753 429.369 101.762 429.369 103.772 429.369
 105.781 429.369 107.79 429.369 109.8 429.369 111.809 429.369 113.819
 429.369 115.828 429.369 117.837 429.369 119.847 429.369 121.856
 429.369 123.865 429.369 125.875 429.369 127.884 429.369 129.894
 429.369 131.903 429.369 133.912 429.369 135.922 429.369 137.931
 429.369 139.94 429.369 141.95 429.369 143.959 429.369 145.968
 429.369 147.978 429.369 149.987 429.369 151.997 429.369 154.006
 429.369 156.015 429.369 158.025 429.369 160.034 429.369 162.043
 429.369 164.053 429.369 166.062 429.369 168.072 429.369 170.081
 429.369 172.09 429.369 174.1 429.369 176.109 429.369 178.118 429.369
 180.128 429.369 182.137 429.369 184.146 429.369 186.156 429.369
 188.165 429.369 190.175 429.369 192.184 429.369 194.193 429.369
 196.203 429.369 198.212 429.369 200.221 429.369 202.231 429.369
 204.24 429.369 206.249 429.369 208.259 429.369 210.268 429.369
 212.278 429.369 214.287 429.369 216.296 429.369 218.306 429.369
 220.315 429.369 222.324 429.369 224.334 429.369 226.343 429.369
 228.353 429.369 230.362 429.369 232.371 429.369 234.381 429.369
 236.39 429.369 238.399 429.369 240.409 429.369 242.418 429.369
 244.427 429.369 246.437 429.369 248.446 429.369 250.456 429.369
 252.465 429.369 254.474 429.369 256.484 429.369 258.493 429.369
 260.502 429.369 262.512 429.369 264.521 429.369 266.53 429.369
 268.54 429.369 270.549 429.369 272.559 429.369 274.568 429.369
 276.577 429.369 278.587 429.369 280.596 429.369 282.605 429.369
 284.615 429.369 286.624 429.369 288.634 429.369 290.643 429.369
 292.652 429.369 294.662 429.369 296.671 429.369 298.68 429.369
 300.69 429.369 302.699 429.369 304.708 429.369 306.718 429.369
 308.727 429.369 310.737 429.369 312.746 429.369 314.755 429.369
 316.765 429.369 318.774 429.369 320.783 429.369 322.793 429.369
 324.802 429.369 326.812 429.369 328.821 429.369 330.83 429.369
 332.84 429.369 334.849 429.369 336.858 429.369 338.868 429.368
 340.877 429.368 342.886 429.368 344.896 429.368 346.905 429.368
 348.915 429.368 350.924 429.367 352.933 429.367 354.943 429.367
 356.952 429.366 358.961 429.365 360.971 429.364 362.98 429.363
 364.989 429.362 366.999 429.36 369.008 429.358 371.018 429.355
 373.027 429.352 375.036 429.347 377.046 429.342 379.055 429.336
 381.064 429.328 383.074 429.318 385.083 429.306 387.093 429.291
 389.102 429.274 391.111 429.253 393.121 429.227 395.13 429.196
 397.139 429.159 399.149 429.114 401.158 429.061 403.167 428.997
 405.177 428.922 407.186 428.832 409.196 428.726 411.205 428.602
 413.214 428.455 415.224 428.283 417.233 428.082 419.242 427.848
 421.252 427.575 423.261 427.259 425.271 426.893 427.28 426.471
 429.289 425.986 431.299 425.429 433.308 424.792 435.317 424.066
 437.327 423.24 439.336 422.303 441.345 421.243 443.355 420.047
 445.364 418.703 447.374 417.195 449.383 415.509 451.392 413.629
 453.402 411.539 455.411 409.222 457.42 406.661 459.43 403.838
 461.439 400.737 463.448 397.34 465.458 393.63 467.467 389.59 469.477
 385.204 471.486 380.457 473.495 375.337 475.505 369.83 477.514
 363.927 479.523 357.619 481.533 350.9 483.542 343.767 485.552 336.22
 487.561 328.263 489.57 319.901 491.58 311.144 493.589 302.008
 495.598 292.51 497.608 282.673 499.617 272.523 501.626 262.092
 503.636 251.415 505.645 240.531 507.655 229.484 509.664 218.323
 511.673 207.097 513.683 195.861 515.692 184.673 517.701 173.592
 519.711 162.681 521.72 152.002 523.729 141.619 525.739 131.597
 527.748 121.998 529.758 112.887 531.767 104.323 533.776 96.3651
 535.786 89.0685 537.795 82.4847 539.804 76.6609 541.814 71.6392
 543.823 67.4564 545.833 64.1436 547.842 61.7253 549.851 60.2196
 551.861 59.638 553.87 59.9847 555.879 61.2571 557.889 63.4457
 559.898 66.534 561.907 70.4991 563.917 75.3116 565.926 80.9361
 567.936 87.3317 569.945 94.4525 571.954 102.248 573.964 110.664
 575.973 119.642 577.982 129.123 579.992 139.044 582.001 149.342
 584.011 159.952 586.02 170.811 588.029 181.854 590.039 193.021
 592.048 204.25 594.057 215.483 596.067 226.666 598.076 237.747
 600.085 248.676 602.095 259.41 604.104 269.907 606.114 280.131
 608.123 290.05 610.132 299.636 612.142 308.866 614.151 317.72 616.16
 326.183 618.17 334.244 620.179 341.895 622.188 349.132 624.198
 355.956 626.207 362.368 628.217 368.373 630.226 373.979 632.235
 379.196 634.245 384.036 636.254 388.512 638.263 392.638 640.273
 396.431 642.282 399.906 644.292 403.08 646.301 405.971 648.31
 408.597 650.32 410.974 652.329 413.12 654.338 415.052 656.348
 416.786 658.357 418.337 660.366 419.722 662.376 420.953 664.385
 422.046 666.395 423.014 668.404 423.867 670.413 424.617 672.423
 425.276 674.432 425.852 676.441 426.354 678.451 426.792 680.46
 427.171 682.47 427.499 684.479 427.782 686.488 428.026 688.498
 428.235 690.507 428.414 692.516 428.567 694.526 428.697 696.535
 428.807 698.544 428.9 700.554 428.979 702.563 429.046 704.573
 429.101 706.582 429.148 708.591 429.187 710.601 429.22 712.61
 429.247 714.619 429.269 716.629 429.287 718.638 429.303 720.647
 429.315 722.657 429.325 724.666 429.334 726.676 429.341 728.685
 429.346 730.694 429.351 732.704 429.354 734.713 429.357 736.722
 429.36 738.732 429.361 740.741 429.363 742.751 429.364 744.76
 429.365 746.769 429.366 748.779 429.367 750.788 429.367 752.797
 429.367 754.807 429.368 756.816 429.368 758.825 429.368 760.835
 429.368 762.844 429.368 764.854 429.368 766.863 429.369 768.872
 429.369 770.882 429.369 772.891 429.369 774.9 429.369 776.91 429.369
 778.919 429.369 780.928 429.369 782.938 429.369 784.947 429.369
 786.957 429.369 788.966 429.369 790.975 429.369 792.985 429.369
 794.994 429.369 797.003 429.369 799.013 429.369 801.022 429.369
 803.032 429.369 805.041 429.369 807.05 429.369 809.06 429.369
 811.069 429.369 813.078 429.369 815.088 429.369 817.097 429.369
 819.106 429.369 821.116 429.369 823.125 429.369 825.135 429.369
 827.144 429.369 829.153 429.369 831.163 429.369 833.172 429.369
 835.181 429.369 837.191 429.369 839.2 429.369 841.21 429.369 843.219
 429.369 845.228 429.369 847.238 429.369 849.247 429.369 851.256
 429.369 853.266 429.369 855.275 429.369 857.284 429.369 859.294
 429.369 861.303 429.369 863.313 429.369 865.322 429.369 867.331
 429.369 869.341 429.369 871.35 429.369 873.359 429.369 875.369
 429.369" style="stroke:#c44e52;fill:none;stroke-width:3" />
<path d="M 73.6312 429.369 75.6406 429.369 77.65 429.369 79.6594 429.369
 81.6687 429.369 83.6781 429.369 85.6875 429.369 87.6968 429.369
 89.7062 429.369 91.7156 429.369 93.7249 429.369 95.7343 429.369
 97.7437 429.369 99.753 429.369 101.762 429.369 103.772 429.369
 105.781 429.369 107.79 429.369 109.8 429.369 111.809 429.369 113.819
 429.369 115.828 429.368 117.837 429.368 119.847 429.368 121.856
 429.368 123.865 429.368 125.875 429.368 127.884 429.368 129.894
 429.367 131.903 429.367 133.912 429.366 135.922 429.365 137.931
 429.365 139.94 429.363 141.95 429.362 143.959 429.36 145.968 429.358
 147.978 429.355 149.987 429.352 151.997 429.348 154.006 429.342
 156.015 429.336 158.025 429.328 160.034 429.318 162.043 429.307
 164.053 429.292 166.062 429.275 168.072 429.254 170.081 429.228
 172.09 429.197 174.1 429.161 176.109 429.116 178.118 429.063 180.128
 429 182.137 428.925 184.146 428.837 186.156 428.732 188.165 428.608
 190.175 428.462 192.184 428.292 194.193 428.092 196.203 427.859
 198.212 427.588 200.221 427.274 202.231 426.911 204.24 426.492
 206.249 426.009 208.259 425.456 210.268 424.823 212.278 424.101
 214.287 423.28 216.296 422.348 218.306 421.294 220.315 420.105
 222.324 418.768 224.334 417.268 226.343 415.591 228.353 413.72
 230.362 411.64 232.371 409.333 234.381 406.784 236.39 403.974
 238.399 400.886 240.409 397.503 242.418 393.807 244.427 389.782
 246.437 385.412 248.446 380.683 250.456 375.58 252.465 370.091
 254.474 364.206 256.484 357.917 258.493 351.217 260.502 344.103
 262.512 336.575 264.521 328.636 266.53 320.293 268.54 311.554
 270.549 302.435 272.559 292.953 274.568 283.131 276.577 272.995
 278.587 262.576 280.596 251.909 282.605 241.034 284.615 229.994
 286.624 218.836 288.634 207.612 290.643 196.375 292.652 185.184
 294.662 174.097 296.671 163.177 298.68 152.485 300.69 142.088
 302.699 132.047 304.708 122.428 306.718 113.293 308.727 104.703
 310.737 96.7158 312.746 89.3878 314.755 82.7702 316.765 76.9105
 318.774 71.8512 320.783 67.6293 322.793 64.276 324.802 61.8163
 326.812 60.2685 328.821 59.6443 330.83 59.9485 332.84 61.1786
 334.849 63.3255 336.858 66.3731 338.868 70.2986 340.877 75.073
 342.886 80.6611 344.896 87.0224 346.905 94.111 348.915 101.877
 350.924 110.265 352.933 119.219 354.943 128.678 356.952 138.581
 358.961 148.862 360.971 159.46 362.98 170.308 364.989 181.345
 366.999 192.507 369.008 203.735 371.018 214.969 373.027 226.156
 375.036 237.242 377.046 248.179 379.055 258.922 381.064 269.431
 383.074 279.669 385.083 289.602 387.093 299.204 389.102 308.451
 391.111 317.322 393.121 325.804 395.13 333.883 397.139 341.553
 399.149 348.81 401.158 355.652 403.167 362.083 405.177 368.106
 407.186 373.731 409.196 378.966 411.205 383.822 413.214 388.315
 415.224 392.457 417.233 396.264 419.242 399.753 421.252 402.941
 423.261 405.845 425.271 408.482 427.28 410.87 429.289 413.027
 431.299 414.968 433.308 416.71 435.317 418.27 437.327 419.662
 439.336 420.9 441.345 421.999 443.355 422.972 445.364 423.83 447.374
 424.585 449.383 425.247 451.392 425.827 453.402 426.333 455.411
 426.773 457.42 427.155 459.43 427.485 461.439 427.77 463.448 428.016
 465.458 428.226 467.467 428.406 469.477 428.56 471.486 428.691
 473.495 428.802 475.505 428.897 477.514 428.976 479.523 429.043
 481.533 429.099 483.542 429.146 485.552 429.185 487.561 429.218
 489.57 429.245 491.58 429.268 493.589 429.287 495.598 429.302
 497.608 429.315 499.617 429.325 501.626 429.333 503.636 429.34
 505.645 429.346 507.655 429.35 509.664 429.354 511.673 429.357
 513.683 429.359 515.692 429.361 517.701 429.363 519.711 429.364
 521.72 429.365 523.729 429.366 525.739 429.367 527.748 429.367
 529.758 429.367 531.767 429.368 533.776 429.368 535.786 429.368
 537.795 429.368 539.804 429.368 541.814 429.368 543.823 429.369
 545.833 429.369 547.842 429.369 549.851 429.369 551.861 429.369
 553.87 429.369 555.879 429.369 557.889 429.369 559.898 429.369
 561.907 429.369 563.917 429.369 565.926 429.369 567.936 429.369
 569.945 429.369 571.954 429.369 573.964 429.369 575.973 429.369
 577.982 429.369 579.992 429.369 582.001 429.369 584.011 429.369
 586.02 429.369 588.029 429.369 590.039 429.369 592.048 429.369
 594.057 429.369 596.067 429.369 598.076 429.369 600.085 429.369
 602.095 429.369 604.104 429.369 606.114 429.369 608.123 429.369
 610.132 429.369 612.142 429.369 614.151 429.369 616.16 429.369
 618.17 429.369 620.179 429.369 622.188 429.369 624.198 429.369
 626.207 429.369 628.217 429.369 630.226 429.369 632.235 429.369
 634.245 429.369 636.254 429.369 638.263 429.369 640.273 429.369
 642.282 429.369 644.292 429.369 646.301 429.369 648.31 429.369
 650.32 429.369 652.329 429.369 654.338 429.369 656.348 429.369
 658.357 429.369 660.366 429.369 662.376 429.369 664.385 429.369
 666.395 429.369 668.404 429.369 670.413 429.369 672.423 429.369
 674.432 429.369 676.441 429.369 678.451 429.369 680.46 429.369
 682.47 429.369 684.479 429.369 686.488 429.369 688.498 429.369
 690.507 429.369 692.516 429.369 694.526 429.369 696.535 429.369
 698.544 429.369 700.554 429.369 702.563 429.369 704.573 429.369
 706.582 429.369 708.591 429.369 710.601 429.369 712.61 429.369
 714.619 429.369 716.629 429.369 718.638 429.369 720.647 429.369
 722.657 429.369 724.666 429.369 726.676 429.369 728.685 429.369
 730.694 429.369 732.704 429.369 734.713 429.369 736.722 429.369
 738.732 429.369 740.741 429.369 742.751 429.369 744.76 429.369
 746.769 429.369 748.779 429.369 750.788 429.369 752.797 429.369
 754.807 429.369 756.816 429.369 758.825 429.369 760.835 429.369
 762.844 429.369 764.854 429.369 766.863 429.369 768.872 429.369
 770.882 429.369 772.891 429.369 774.9 429.369 776.91 429.369 778.919
 429.369 780.928 429.369 782.938 429.369 784.947 429.369 786.957
 429.369 788.966 429.369 790.975 429.369 792.985 429.369 794.994
 429.369 797.003 429.369 799.013 429.369 801.022 429.369 803.032
 429.369 805.041 429.369 807.05 429.369 809.06 429.369 811.069
 429.369 813.078 429.369 815.088 429.369 817.097 429.369 819.106
 429.369 821.116 429.369 823.125 429.369 825.135 429.369 827.144
 429.369 829.153 429.369 831.163 429.369 833.172 429.369 835.181
 429.369 837.191 429.369 839.2 429.369 841.21 429.369 843.219 429.369
 845.228 429.369 847.238 429.369 849.247 429.369 851.256 429.369
 853.266 429.369 855.275 429.369 857.284 429.369 859.294 429.369
 861.303 429.369 863.313 429.369 865.322 429.369 867.331 429.369
 869.341 429.369 871.35 429.369 873.359 429.369 875.369 429.369" style="stroke:#8172b2;fill:none;stroke-width:3" />
<path d="M 73.6312 429.369 75.6406 429.369 77.65 429.369 79.6594 429.369
 81.6687 429.369 83.6781 429.369 85.6875 429.369 87.6968 429.369
 89.7062 429.369 91.7156 429.369 93.7249 429.369 95.7343 429.369
 97.7437 429.369 99.753 429.369 101.762 429.369 103.772 429.369
 105.781 429.369 107.79 429.369 109.8 429.369 111.809 429.369 113.819
 429.369 115.828 429.369 117.837 429.369 119.847 429.369 121.856
 429.369 123.865 429.369 125.875 429.369 127.884 429.369 129.894
 429.369 131.903 429.369 133.912 429.369 135.922 429.369 137.931
 429.369 139.94 429.369 141.95 429.369 143.959 429.369 145.968
 429.369 147.978 429.369 149.987 429.369 151.997 429.369 154.006
 429.369 156.015 429.369 158.025 429.369 160.034 429.369 162.043
 429.369 164.053 429.369 166.062 429.369 168.072 429.369 170.081
 429.369 172.09 429.369 174.1 429.369 176.109 429.369 178.118 429.369
 180.128 429.369 182.137 429.369 184.146 429.369 186.156 429.369
 188.165 429.369 190.175 429.369 192.184 429.369 194.193 429.369
 196.203 429.369 198.212 429.369 200.221 429.369 202.231 429.369
 204.24 429.369 206.249 429.369 208.259 429.369 210.268 429.369
 212.278 429.369 214.287 429.369 216.296 429.369 218.306 429.369
 220.315 429.369 222.324 429.369 224.334 429.369 226.343 429.369
 228.353 429.369 230.362 429.369 232.371 429.369 234.381 429.369
 236.39 429.369 238.399 429.369 240.409 429.369 242.418 429.369
 244.427 429.369 246.437 429.369 248.446 429.369 250.456 429.369
 252.465 429.369 254.474 429.369 256.484 429.369 258.493 429.369
 260.502 429.369 262.512 429.369 264.521 429.369 266.53 429.369
 268.54 429.369 270.549 429.369 272.559 429.369 274.568 429.369
 276.577 429.369 278.587 429.369 280.596 429.369 282.605 429.369
 284.615 429.369 286.624 429.369 288.634 429.369 290.643 429.369
 292.652 429.369 294.662 429.369 296.671 429.369 298.68 429.369
 300.69 429.369 302.699 429.369 304.708 429.369 306.718 429.369
 308.727 429.369 310.737 429.369 312.746 429.369 314.755 429.369
 316.765 429.369 318.774 429.369 320.783 429.369 322.793 429.369
 324.802 429.369 326.812 429.369 328.821 429.369 330.83 429.369
 332.84 429.369 334.849 429.369 336.858 429.369 338.868 429.369
 340.877 429.369 342.886 429.369 344.896 429.369 346.905 429.369
 348.915 429.368 350.924 429.368 352.933 429.368 354.943 429.368
 356.952 429.368 358.961 429.368 360.971 429.367 362.98 429.367
 364.989 429.366 366.999 429.366 369.008 429.365 371.018 429.364
 373.027 429.363 375.036 429.361 377.046 429.359 379.055 429.357
 381.064 429.353 383.074 429.35 385.083 429.345 387.093 429.339
 389.102 429.332 391.111 429.323 393.121 429.312 395.13 429.299
 397.139 429.283 399.149 429.264 401.158 429.241 403.167 429.213
 405.177 429.179 407.186 429.138 409.196 429.089 411.205 429.031
 413.214 428.962 415.224 428.88 417.233 428.783 419.242 428.668
 421.252 428.534 423.261 428.375 425.271 428.189 427.28 427.973
 429.289 427.72 431.299 427.427 433.308 427.088 435.317 426.696
 437.327 426.244 439.336 425.725 441.345 425.131 443.355 424.452
 445.364 423.678 447.374 422.8 449.383 421.805 451.392 420.681
 453.402 419.415 455.411 417.993 457.42 416.4 459.43 414.622 461.439
 412.642 463.448 410.444 465.458 408.011 467.467 405.325 469.477
 402.37 471.486 399.127 473.495 395.58 475.505 391.712 477.514
 387.506 479.523 382.947 481.533 378.02 483.542 372.714 485.552
 367.016 487.561 360.917 489.57 354.41 491.58 347.491 493.589 340.157
 495.598 332.41 497.608 324.255 499.617 315.7 501.626 306.758 503.636
 297.444 505.645 287.778 507.655 277.785 509.664 267.495 511.673
 256.94 513.683 246.157 515.692 235.188 517.701 224.08 519.711 212.88
 521.72 201.643 523.729 190.423 525.739 179.279 527.748 168.273
 529.758 157.466 531.767 146.923 533.776 136.707 535.786 126.882
 537.795 117.513 539.804 108.659 541.814 100.383 543.823 92.7388
 545.833 85.7819 547.842 79.5613 549.851 74.1217 551.861 69.5028
 553.87 65.7387 555.879 62.8572 557.889 60.8799 559.898 59.8216
 561.907 59.6903 563.917 60.4869 565.926 62.2055 567.936 64.8331
 569.945 68.3501 571.954 72.7305 573.964 77.9417 575.973 83.9458
 577.982 90.6993 579.992 98.154 582.001 106.257 584.011 114.954
 586.02 124.184 588.029 133.886 590.039 143.998 592.048 154.455
 594.057 165.194 596.067 176.15 598.076 187.261 600.085 198.465
 602.095 209.703 604.104 220.919 606.114 232.059 608.123 243.072
 610.132 253.911 612.142 264.535 614.151 274.904 616.16 284.984
 618.17 294.744 620.179 304.16 622.188 313.21 624.198 321.876 626.207
 330.145 628.217 338.008 630.226 345.458 632.235 352.495 634.245
 359.118 636.254 365.332 638.263 371.142 640.273 376.559 642.282
 381.591 644.292 386.253 646.301 390.557 648.31 394.519 650.32
 398.155 652.329 401.482 654.338 404.517 656.348 407.278 658.357
 409.78 660.366 412.043 662.376 414.083 664.385 415.917 666.395
 417.56 668.404 419.029 670.413 420.338 672.423 421.5 674.432 422.531
 676.441 423.441 678.451 424.243 680.46 424.948 682.47 425.565
 684.479 426.104 686.488 426.574 688.498 426.982 690.507 427.336
 692.516 427.642 694.526 427.905 696.535 428.132 698.544 428.325
 700.554 428.491 702.563 428.632 704.573 428.753 706.582 428.854
 708.591 428.94 710.601 429.013 712.61 429.074 714.619 429.125
 716.629 429.168 718.638 429.204 720.647 429.233 722.657 429.258
 724.666 429.278 726.676 429.295 728.685 429.309 730.694 429.32
 732.704 429.33 734.713 429.337 736.722 429.343 738.732 429.348
 740.741 429.352 742.751 429.356 744.76 429.358 746.769 429.361
 748.779 429.362 750.788 429.364 752.797 429.365 754.807 429.366
 756.816 429.366 758.825 429.367 760.835 429.367 762.844 429.368
 764.854 429.368 766.863 429.368 768.872 429.368 770.882 429.368
 772.891 429.368 774.9 429.369 776.91 429.369 778.919 429.369 780.928
 429.369 782.938 429.369 784.947 429.369 786.957 429.369 788.966
 429.369 790.975 429.369 792.985 429.369 794.994 429.369 797.003
 429.369 799.013 429.369 801.022 429.369 803.032 429.369 805.041
 429.369 807.05 429.369 809.06 429.369 811.069 429.369 813.078
 429.369 815.088 429.369 817.097 429.369 819.106 429.369 821.116
 429.369 823.125 429.369 825.135 429.369 827.144 429.369 829.153
 429.369 831.163 429.369 833.172 429.369 835.181 429.369 837.191
 429.369 839.2 429.369 841.21 429.369 843.219 429.369 845.228 429.369
 847.238 429.369 849.247 429.369 851.256 429.369 853.266 429.369
 855.275 429.369 857.284 429.369 859.294 429.369 861.303 429.369
 863.313 429.369 865.322 429.369 867.331 429.369 869.341 429.369
 871.35 429.369 873.359 429.369 875.369 429.369" style="stroke:#ccb974;fill:none;stroke-width:3" />
<path d="M 73.6312 429.369 75.6406 429.369 77.65 429.369 79.6594 429.369
 81.6687 429.369 83.6781 429.369 85.6875 429.369 87.6968 429.369
 89.7062 429.369 91.7156 429.369 93.7249 429.369 95.7343 429.369
 97.7437 429.369 99.753 429.369 101.762 429.369 103.772 429.369
 105.781 429.369 107.79 429.369 109.8 429.369 111.809 429.369 113.819
 429.369 115.828 429.369 117.837 429.369 119.847 429.369 121.856
 429.369 123.865 429.369 125.875 429.369 127.884 429.369 129.894
 429.369 131.903 429.369 133.912 429.369 135.922 429.369 137.931
 429.369 139.94 429.369 141.95 429.369 143.959 429.369 145.968
 429.369 147.978 429.369 149.987 429.369 151.997 429.368 154.006
 429.368 156.015 429.368 158.025 429.368 160.034 429.368 162.043
 429.368 164.053 429.367 166.062 429.367 168.072 429.367 170.081
 429.366 172.09 429.365 174.1 429.364 176.109 429.363 178.118 429.361
 180.128 429.36 182.137 429.357 184.146 429.354 186.156 429.351
 188.165 429.346 190.175 429.34 192.184 429.334 194.193 429.325
 196.203 429.315 198.212 429.302 200.221 429.287 202.231 429.268
 204.24 429.246 206.249 429.219 208.259 429.186 210.268 429.147
 212.278 429.1 214.287 429.044 216.296 428.978 218.306 428.899
 220.315 428.805 222.324 428.694 224.334 428.564 226.343 428.41
 228.353 428.231 230.362 428.021 232.371 427.777 234.381 427.492
 236.39 427.163 238.399 426.783 240.409 426.344 242.418 425.84
 244.427 425.262 246.437 424.602 248.446 423.849 250.456 422.993
 252.465 422.024 254.474 420.928 256.484 419.693 258.493 418.305
 260.502 416.749 262.512 415.011 264.521 413.075 266.53 410.924
 268.54 408.541 270.549 405.91 272.559 403.013 274.568 399.832
 276.577 396.35 278.587 392.55 280.596 388.416 282.605 383.933
 284.615 379.085 286.624 373.859 288.634 368.244 290.643 362.23
 292.652 355.809 294.662 348.976 296.671 341.729 298.68 334.069
 300.69 325.999 302.699 317.527 304.708 308.665 306.718 299.427
 308.727 289.833 310.737 279.907 312.746 269.676 314.755 259.174
 316.765 248.435 318.774 237.502 320.783 226.419 322.793 215.234
 324.802 204 326.812 192.772 328.821 181.607 330.83 170.567 332.84
 159.713 334.849 149.109 336.858 138.82 338.868 128.908 340.877
 119.437 342.886 110.471 344.896 102.068 346.905 94.2869 348.915
 87.1817 350.924 80.8027 352.933 75.1958 354.943 70.4018 356.952
 66.4559 358.961 63.3872 360.971 61.2188 362.98 59.9669 364.989
 59.6408 366.999 60.2431 369.008 61.7691 371.018 64.2075 373.027
 67.5399 375.036 71.7417 377.046 76.7816 379.055 82.6228 381.064
 89.223 383.074 96.5348 385.083 104.507 387.093 113.083 389.102
 122.206 391.111 131.815 393.121 141.846 395.13 152.236 397.139
 162.921 399.149 173.837 401.158 184.92 403.167 196.11 405.177
 207.346 407.186 218.571 409.196 229.731 411.205 240.775 413.214
 251.654 415.224 262.326 417.233 272.752 419.242 282.895 421.252
 292.725 423.261 302.215 425.271 311.343 427.28 320.091 429.289
 328.444 431.299 336.392 433.308 343.93 435.317 351.053 437.327
 357.763 439.336 364.062 441.345 369.957 443.355 375.455 445.364
 380.567 447.374 385.305 449.383 389.683 451.392 393.716 453.402
 397.419 455.411 400.809 457.42 403.904 459.43 406.72 461.439 409.276
 463.448 411.588 465.458 413.673 467.467 415.549 469.477 417.231
 471.486 418.735 473.495 420.076 475.505 421.268 477.514 422.325
 479.523 423.259 481.533 424.083 483.542 424.807 485.552 425.442
 487.561 425.997 489.57 426.481 491.58 426.902 493.589 427.266
 495.598 427.581 497.608 427.853 499.617 428.087 501.626 428.287
 503.636 428.459 505.645 428.605 507.655 428.729 509.664 428.834
 511.673 428.924 513.683 428.999 515.692 429.062 517.701 429.115
 519.711 429.16 521.72 429.197 523.729 429.227 525.739 429.253
 527.748 429.274 529.758 429.292 531.767 429.306 533.776 429.318
 535.786 429.328 537.795 429.336 539.804 429.342 541.814 429.347
 543.823 429.352 545.833 429.355 547.842 429.358 549.851 429.36
 551.861 429.362 553.87 429.363 555.879 429.364 557.889 429.365
 559.898 429.366 561.907 429.367 563.917 429.367 565.926 429.368
 567.936 429.368 569.945 429.368 571.954 429.368 573.964 429.368
 575.973 429.368 577.982 429.368 579.992 429.369 582.001 429.369
 584.011 429.369 586.02 429.369 588.029 429.369 590.039 429.369
 592.048 429.369 594.057 429.369 596.067 429.369 598.076 429.369
 600.085 429.369 602.095 429.369 604.104 429.369 606.114 429.369
 608.123 429.369 610.132 429.369 612.142 429.369 614.151 429.369
 616.16 429.369 618.17 429.369 620.179 429.369 622.188 429.369
 624.198 429.369 626.207 429.369 628.217 429.369 630.226 429.369
 632.235 429.369 634.245 429.369 636.254 429.369 638.263 429.369
 640.273 429.369 642.282 429.369 644.292 429.369 646.301 429.369
 648.31 429.369 650.32 429.369 652.329 429.369 654.338 429.369
 656.348 429.369 658.357 429.369 660.366 429.369 662.376 429.369
 664.385 429.369 666.395 429.369 668.404 429.369 670.413 429.369
 672.423 429.369 674.432 429.369 676.441 429.369 678.451 429.369
 680.46 429.369 682.47 429.369 684.479 429.369 686.488 429.369
 688.498 429.369 690.507 429.369 692.516 429.369 694.526 429.369
 696.535 429.369 698.544 429.369 700.554 429.369 702.563 429.369
 704.573 429.369 706.582 429.369 708.591 429.369 710.601 429.369
 712.61 429.369 714.619 429.369 716.629 429.369 718.638 429.369
 720.647 429.369 722.657 429.369 724.666 429.369 726.676 429.369
 728.685 429.369 730.694 429.369 732.704 429.369 734.713 429.369
 736.722 429.369 738.732 429.369 740.741 429.369 742.751 429.369
 744.76 429.369 746.769 429.369 748.779 429.369 750.788 429.369
 752.797 429.369 754.807 429.369 756.816 429.369 758.825 429.369
 760.835 429.369 762.844 429.369 764.854 429.369 766.863 429.369
 768.872 429.369 770.882 429.369 772.891 429.369 774.9 429.369 776.91
 429.369 778.919 429.369 780.928 429.369 782.938 429.369 784.947
 429.369 786.957 429.369 788.966 429.369 790.975 429.369 792.985
 429.369 794.994 429.369 797.003 429.369 799.013 429.369 801.022
 429.369 803.032 429.369 805.041 429.369 807.05 429.369 809.06
 429.369 811.069 429.369 813.078 429.369 815.088 429.369 817.097
 429.369 819.106 429.369 821.116 429.369 823.125 429.369 825.135
 429.369 827.144 429.369 829.153 429.369 831.163 429.369 833.172
 429.369 835.181 429.369 837.191 429.369 839.2 429.369 841.21 429.369
 843.219 429.369 845.228 429.369 847.238 429.369 849.247 429.369
 851.256 429.369 853.266 429.369 855.275 429.369 857.284 429.369
 859.294 429.369 861.303 429.369 863.313 429.369 865.322 429.369
 867.331 429.369 869.341 429.369 871.35 429.369 873.359 429.369
 875.369 429.369" style="stroke:#64b5cd;fill:none;stroke-width:3" />
<path d="M 73.6312 429.369 75.6406 429.369 77.65 429.368 79.6594 429.368
 81.6687 429.368 83.6781 429.368 85.6875 429.368 87.6968 429.368
 89.7062 429.368 91.7156 429.367 93.7249 429.367 95.7343 429.366
 97.7437 429.365 99.753 429.365 101.762 429.363 103.772 429.362
 105.781 429.36 107.79 429.358 109.8 429.355 111.809 429.352 113.819
 429.348 115.828 429.343 117.837 429.336 119.847 429.329 121.856
 429.319 123.865 429.308 125.875 429.293 127.884 429.276 129.894
 429.256 131.903 429.23 133.912 429.2 135.922 429.164 137.931 429.12
 139.94 429.068 141.95 429.006 143.959 428.932 145.968 428.844
 147.978 428.741 149.987 428.619 151.997 428.475 154.006 428.307
 156.015 428.109 158.025 427.88 160.034 427.612 162.043 427.302
 164.053 426.942 166.062 426.528 168.072 426.051 170.081 425.504
 172.09 424.878 174.1 424.164 176.109 423.351 178.118 422.429 180.128
 421.385 182.137 420.208 184.146 418.883 186.156 417.397 188.165
 415.734 190.175 413.88 192.184 411.817 194.193 409.53 196.203
 407.001 198.212 404.213 200.221 401.148 202.231 397.79 204.24 394.12
 206.249 390.123 208.259 385.782 210.268 381.082 212.278 376.01
 214.287 370.553 216.296 364.701 218.306 358.445 220.315 351.778
 222.324 344.698 224.334 337.204 226.343 329.299 228.353 320.988
 230.362 312.281 232.371 303.192 234.381 293.739 236.39 283.944
 238.399 273.832 240.409 263.435 242.418 252.787 244.427 241.927
 246.437 230.899 248.446 219.749 250.456 208.528 252.465 197.291
 254.474 186.093 256.484 174.996 258.493 164.059 260.502 153.347
 262.512 142.923 264.521 132.851 266.53 123.195 268.54 114.018
 270.549 105.381 272.559 97.343 274.568 89.9592 276.577 83.2819
 278.587 77.3588 280.596 72.2328 282.605 67.9413 284.615 64.5162
 286.624 61.9829 288.634 60.3602 290.643 59.6605 292.652 59.8889
 294.662 61.0439 296.671 63.1165 298.68 66.0915 300.69 69.9464
 302.699 74.6528 304.708 80.1761 306.718 86.4759 308.727 93.5071
 310.737 101.22 312.746 109.559 314.755 118.47 316.765 127.89 318.774
 137.758 320.783 148.012 322.793 158.586 324.802 169.416 326.812
 180.44 328.821 191.594 330.83 202.818 332.84 214.054 334.849 225.247
 336.858 236.343 338.868 247.294 340.877 258.055 342.886 268.584
 344.896 278.845 346.905 288.805 348.915 298.435 350.924 307.711
 352.933 316.614 354.943 325.127 356.952 333.24 358.961 340.943
 360.971 348.234 362.98 355.11 364.989 361.574 366.999 367.63 369.008
 373.287 371.018 378.553 373.027 383.44 375.036 387.962 377.046
 392.132 379.055 395.966 381.064 399.48 383.074 402.692 385.083
 405.618 387.093 408.277 389.102 410.685 391.111 412.859 393.121
 414.817 395.13 416.575 397.139 418.149 399.149 419.554 401.158
 420.805 403.167 421.915 405.177 422.897 407.186 423.764 409.196
 424.527 411.205 425.197 413.214 425.783 415.224 426.294 417.233
 426.739 419.242 427.126 421.252 427.46 423.261 427.749 425.271
 427.997 427.28 428.21 429.289 428.393 431.299 428.549 433.308
 428.681 435.317 428.794 437.327 428.889 439.336 428.97 441.345
 429.038 443.355 429.095 445.364 429.143 447.374 429.183 449.383
 429.216 451.392 429.243 453.402 429.266 455.411 429.285 457.42
 429.301 459.43 429.314 461.439 429.324 463.448 429.333 465.458
 429.34 467.467 429.345 469.477 429.35 471.486 429.354 473.495
 429.357 475.505 429.359 477.514 429.361 479.523 429.363 481.533
 429.364 483.542 429.365 485.552 429.366 487.561 429.366 489.57
 429.367 491.58 429.367 493.589 429.368 495.598 429.368 497.608
 429.368 499.617 429.368 501.626 429.368 503.636 429.368 505.645
 429.369 507.655 429.369 509.664 429.369 511.673 429.369 513.683
 429.369 515.692 429.369 517.701 429.369 519.711 429.369 521.72
 429.369 523.729 429.369 525.739 429.369 527.748 429.369 529.758
 429.369 531.767 429.369 533.776 429.369 535.786 429.369 537.795
 429.369 539.804 429.369 541.814 429.369 543.823 429.369 545.833
 429.369 547.842 429.369 549.851 429.369 551.861 429.369 553.87
 429.369 555.879 429.369 557.889 429.369 559.898 429.369 561.907
 429.369 563.917 429.369 565.926 429.369 567.936 429.369 569.945
 429.369 571.954 429.369 573.964 429.369 575.973 429.369 577.982
 429.369 579.992 429.369 582.001 429.369 584.011 429.369 586.02
 429.369 588.029 429.369 590.039 429.369 592.048 429.369 594.057
 429.369 596.067 429.369 598.076 429.369 600.085 429.369 602.095
 429.369 604.104 429.369 606.114 429.369 608.123 429.369 610.132
 429.369 612.142 429.369 614.151 429.369 616.16 429.369 618.17
 429.369 620.179 429.369 622.188 429.369 624.198 429.369 626.207
 429.369 628.217 429.369 630.226 429.369 632.235 429.369 634.245
 429.369 636.254 429.369 638.263 429.369 640.273 429.369 642.282
 429.369 644.292 429.369 646.301 429.369 648.31 429.369 650.32
 429.369 652.329 429.369 654.338 429.369 656.348 429.369 658.357
 429.369 660.366 429.369 662.376 429.369 664.385 429.369 666.395
 429.369 668.404 429.369 670.413 429.369 672.423 429.369 674.432
 429.369 676.441 429.369 678.451 429.369 680.46 429.369 682.47
 429.369 684.479 429.369 686.488 429.369 688.498 429.369 690.507
 429.369 692.516 429.369 694.526 429.369 696.535 429.369 698.544
 429.369 700.554 429.369 702.563 429.369 704.573 429.369 706.582
 429.369 708.591 429.369 710.601 429.369 712.61 429.369 714.619
 429.369 716.629 429.369 718.638 429.369 720.647 429.369 722.657
 429.369 724.666 429.369 726.676 429.369 728.685 429.369 730.694
 429.369 732.704 429.369 734.713 429.369 736.722 429.369 738.732
 429.369 740.741 429.369 742.751 429.369 744.76 429.369 746.769
 429.369 748.779 429.369 750.788 429.369 752.797 429.369 754.807
 429.369 756.816 429.369 758.825 429.369 760.835 429.369 762.844
 429.369 764.854 429.369 766.863 429.369 768.872 429.369 770.882
 429.369 772.891 429.369 774.9 429.369 776.91 429.369 778.919 429.369
 780.928 429.369 782.938 429.369 784.947 429.369 786.957 429.369
 788.966 429.369 790.975 429.369 792.985 429.369 794.994 429.369
 797.003 429.369 799.013 429.369 801.022 429.369 803.032 429.369
 805.041 429.369 807.05 429.369 809.06 429.369 811.069 429.369
 813.078 429.369 815.088 429.369 817.097 429.369 819.106 429.369
 821.116 429.369 823.125 429.369 825.135 429.369 827.144 429.369
 829.153 429.369 831.163 429.369 833.172 429.369 835.181 429.369
 837.191 429.369 839.2 429.369 841.21 429.369 843.219 429.369 845.228
 429.369 847.238 429.369 849.247 429.369 851.256 429.369 853.266
 429.369 855.275 429.369 857.284 429.369 859.294 429.369 861.303
 429.369 863.313 429.369 865.322 429.369 867.331 429.369 869.341
 429.369 871.35 429.369 873.359 429.369 875.369 429.369" style="stroke:#55a868;fill:none;stroke-width:3" />
<path d="M 73.6312 429.369 75.6406 429.369 77.65 429.369 79.6594 429.369
 81.6687 429.369 83.6781 429.369 85.6875 429.369 87.6968 429.369
 89.7062 429.369 91.7156 429.369 93.7249 429.369 95.7343 429.369
 97.7437 429.369 99.753 429.369 101.762 429.369 103.772 429.369
 105.781 429.369 107.79 429.369 109.8 429.369 111.809 429.369 113.819
 429.369 115.828 429.369 117.837 429.369 119.847 429.369 121.856
 429.369 123.865 429.369 125.875 429.369 127.884 429.369 129.894
 429.369 131.903 429.369 133.912 429.369 135.922 429.369 137.931
 429.369 139.94 429.369 141.95 429.369 143.959 429.369 145.968
 429.369 147.978 429.369 149.987 429.369 151.997 429.369 154.006
 429.369 156.015 429.369 158.025 429.369 160.034 429.369 162.043
 429.369 164.053 429.369 166.062 429.369 168.072 429.369 170.081
 429.369 172.09 429.369 174.1 429.369 176.109 429.369 178.118 429.369
 180.128 429.369 182.137 429.369 184.146 429.369 186.156 429.369
 188.165 429.369 190.175 429.369 192.184 429.369 194.193 429.369
 196.203 429.369 198.212 429.369 200.221 429.369 202.231 429.369
 204.24 429.369 206.249 429.369 208.259 429.369 210.268 429.369
 212.278 429.369 214.287 429.369 216.296 429.369 218.306 429.369
 220.315 429.369 222.324 429.369 224.334 429.369 226.343 429.369
 228.353 429.369 230.362 429.369 232.371 429.369 234.381 429.369
 236.39 429.369 238.399 429.369 240.409 429.369 242.418 429.369
 244.427 429.369 246.437 429.369 248.446 429.369 250.456 429.369
 252.465 429.369 254.474 429.369 256.484 429.369 258.493 429.369
 260.502 429.369 262.512 429.369 264.521 429.369 266.53 429.369
 268.54 429.369 270.549 429.369 272.559 429.369 274.568 429.369
 276.577 429.369 278.587 429.369 280.596 429.369 282.605 429.369
 284.615 429.369 286.624 429.369 288.634 429.369 290.643 429.369
 292.652 429.369 294.662 429.369 296.671 429.369 298.68 429.369
 300.69 429.369 302.699 429.369 304.708 429.369 306.718 429.369
 308.727 429.369 310.737 429.369 312.746 429.369 314.755 429.369
 316.765 429.369 318.774 429.369 320.783 429.369 322.793 429.369
 324.802 429.369 326.812 429.369 328.821 429.369 330.83 429.369
 332.84 429.369 334.849 429.369 336.858 429.369 338.868 429.369
 340.877 429.369 342.886 429.369 344.896 429.369 346.905 429.369
 348.915 429.369 350.924 429.369 352.933 429.368 354.943 429.368
 356.952 429.368 358.961 429.368 360.971 429.368 362.98 429.368
 364.989 429.367 366.999 429.367 369.008 429.367 371.018 429.366
 373.027 429.365 375.036 429.364 377.046 429.363 379.055 429.361
 381.064 429.359 383.074 429.357 385.083 429.354 387.093 429.35
 389.102 429.346 391.111 429.34 393.121 429.333 395.13 429.324
 397.139 429.314 399.149 429.301 401.158 429.286 403.167 429.267
 405.177 429.244 407.186 429.217 409.196 429.184 411.205 429.144
 413.214 429.097 415.224 429.04 417.233 428.972 419.242 428.892
 421.252 428.797 423.261 428.685 425.271 428.553 427.28 428.398
 429.289 428.217 431.299 428.005 433.308 427.758 435.317 427.47
 437.327 427.138 439.336 426.753 441.345 426.31 443.355 425.801
 445.364 425.218 447.374 424.551 449.383 423.791 451.392 422.928
 453.402 421.95 455.411 420.844 457.42 419.599 459.43 418.199 461.439
 416.631 463.448 414.88 465.458 412.928 467.467 410.762 469.477
 408.362 471.486 405.712 473.495 402.795 475.505 399.593 477.514
 396.089 479.523 392.266 481.533 388.108 483.542 383.598 485.552
 378.724 487.561 373.47 489.57 367.827 491.58 361.784 493.589 355.334
 495.598 348.472 497.608 341.195 499.617 333.505 501.626 325.407
 503.636 316.906 505.645 308.016 507.655 298.752 509.664 289.134
 511.673 279.185 513.683 268.934 515.692 258.413 517.701 247.659
 519.711 236.714 521.72 225.622 523.729 214.432 525.739 203.196
 527.748 191.97 529.758 180.813 531.767 169.784 533.776 158.946
 535.786 148.362 537.795 138.097 539.804 128.215 541.814 118.778
 543.823 109.85 545.833 101.49 547.842 93.7556 549.851 86.7007
 551.861 80.3755 553.87 74.8255 555.879 70.091 557.889 66.2069
 559.898 63.202 561.907 61.0987 563.917 59.9128 565.926 59.6531
 567.936 60.3216 569.945 61.9134 571.954 64.4164 573.964 67.8119
 575.973 72.0747 577.982 77.1733 579.992 83.0702 582.001 89.7229
 584.011 97.0837 586.02 105.101 588.029 113.718 590.039 122.878
 592.048 132.519 594.057 142.578 596.067 152.991 598.076 163.695
 600.085 174.625 602.095 185.718 604.104 196.913 606.114 208.15
 608.123 219.372 610.132 230.525 612.142 241.559 614.151 252.425
 616.16 263.081 618.17 273.487 620.179 283.609 622.188 293.415
 624.198 302.88 626.207 311.982 628.217 320.701 630.226 329.026
 632.235 336.945 634.245 344.453 636.254 351.547 638.263 358.227
 640.273 364.497 642.282 370.363 644.292 375.833 646.301 380.918
 648.31 385.63 650.32 389.983 652.329 393.991 654.338 397.672 656.348
 401.04 658.357 404.115 660.366 406.912 662.376 409.449 664.385
 411.744 666.395 413.814 668.404 415.675 670.413 417.344 672.423
 418.836 674.432 420.166 676.441 421.348 678.451 422.396 680.46
 423.322 682.47 424.138 684.479 424.856 686.488 425.485 688.498
 426.034 690.507 426.513 692.516 426.929 694.526 427.29 696.535
 427.602 698.544 427.871 700.554 428.102 702.563 428.3 704.573 428.47
 706.582 428.614 708.591 428.737 710.601 428.841 712.61 428.929
 714.619 429.004 716.629 429.066 718.638 429.119 720.647 429.162
 722.657 429.199 724.666 429.229 726.676 429.255 728.685 429.276
 730.694 429.293 732.704 429.307 734.713 429.319 736.722 429.328
 738.732 429.336 740.741 429.343 742.751 429.348 744.76 429.352
 746.769 429.355 748.779 429.358 750.788 429.36 752.797 429.362
 754.807 429.363 756.816 429.365 758.825 429.365 760.835 429.366
 762.844 429.367 764.854 429.367 766.863 429.368 768.872 429.368
 770.882 429.368 772.891 429.368 774.9 429.368 776.91 429.368 778.919
 429.368 780.928 429.369 782.938 429.369 784.947 429.369 786.957
 429.369 788.966 429.369 790.975 429.369 792.985 429.369 794.994
 429.369 797.003 429.369 799.013 429.369 801.022 429.369 803.032
 429.369 805.041 429.369 807.05 429.369 809.06 429.369 811.069
 429.369 813.078 429.369 815.088 429.369 817.097 429.369 819.106
 429.369 821.116 429.369 823.125 429.369 825.135 429.369 827.144
 429.369 829.153 429.369 831.163 429.369 833.172 429.369 835.181
 429.369 837.191 429.369 839.2 429.369 841.21 429.369 843.219 429.369
 845.228 429.369 847.238 429.369 849.247 429.369 851.256 429.369
 853.266 429.369 855.275 429.369 857.284 429.369 859.294 429.369
 861.303 429.369 863.313 429.369 865.322 429.369 867.331 429.369
 869.341 429.369 871.35 429.369 873.359 429.369 875.369 429.369" style="stroke:#c44e52;fill:none;stroke-width:3" />
</g>
<path d="M53 39V450H896" style="stroke:#888; fill:none; stroke-width:2" />
<path d="M114 450v-8M194 450v-8M274 450v-8M354 450v-8M434 450v-8M515 450v-8
M595 450v-8M675 450v-8M755 450v-8M835 450v-8M74 450v-4M154 450v-4
M234 450v-4M314 450v-4M394 450v-4M475 450v-4M555 450v-4M635 450v-4
M715 450v-4M795 450v-4M875 450v-4" style="stroke:#888; stroke-width:2" />
<path d="M53 429h8M53 244h8M53 392h4M53 355h4M53 318h4M53 281h4M53 208h4
M53 171h4M53 134h4M53 97h4" style="stroke:#888; stroke-width:2" />
<text x="47" y="430" text-anchor="end" dy=".3em" fill="#666" >0</text>
<text x="47" y="244" text-anchor="end" dy=".3em" fill="#666" >0.5</text>
<text x="113" y="455" text-anchor="middle" dy="1em" fill="#666" >-4</text>
<text x="193" y="455" text-anchor="middle" dy="1em" fill="#666" >-3</text>
<text x="273" y="455" text-anchor="middle" dy="1em" fill="#666" >-2</text>
<text x="354" y="455" text-anchor="middle" dy="1em" fill="#666" >-1</text>
<text x="434" y="455" text-anchor="middle" dy="1em" fill="#666" >0</text>
<text x="514" y="455" text-anchor="middle" dy="1em" fill="#666" >1</text>
<text x="594" y="455" text-anchor="middle" dy="1em" fill="#666" >2</text>
<text x="674" y="455" text-anchor="middle" dy="1em" fill="#666" >3</text>
<text x="755" y="455" text-anchor="middle" dy="1em" fill="#666" >4</text>
<text x="835" y="455" text-anchor="middle" dy="1em" fill="#666" >5</text>
<clipPath id="clip1" ><rect x="52" y="0" width="843" height="34" />
</clipPath>
<g clip-path="url(#clip1)" >
<text x="474" y="17" text-anchor="middle" dy=".3em" >Step 1: Each sample xi spawns K(xi, ·) in the RKHS  [σ=0.50]</text>
</g>
<clipPath id="clip2" ><rect x="52" y="477" width="843" height="22" />
</clipPath>
<g clip-path="url(#clip2)" >
<text x="474" y="488" text-anchor="middle" dy=".3em" >t</text>
</g>
<clipPath id="clip3" ><rect x="0" y="38" width="22" height="412" />
</clipPath>
<g clip-path="url(#clip3)" >
<text x="11" y="244" text-anchor="middle" dy=".3em" transform="rotate(-90 11 244)" >value</text>
</g>
</svg>
