<?xml version="1.0"?>
<!-- Generated by SVGo -->
<svg width="900" height="500"
     font-size="14px" font-family="Roboto,&quot;Helvetica Neue&quot;,Helvetica,Arial,sans-serif"
     xmlns="http://www.w3.org/2000/svg"
     xmlns:xlink="http://www.w3.org/1999/xlink">
<clipPath id="clip0" ><rect x="53" y="39" width="843" height="411" />
</clipPath>
<g clip-path="url(#clip0)" >
<rect x="53" y="39" width="843" height="411" style="fill:#eee" />
<path d="M114 39v411M194 39v411M274 39v411M354 39v411M434 39v411M515 39v411
M595 39v411M675 39v411M755 39v411M835 39v411" style="stroke: #fff; stroke-width:2" />
<path d="M53 429h843M53 244h843" style="stroke: #fff; stroke-width:2" />
<path d="M 73.6312 429.369 73.6312 429.369 73.6312 429.369 73.6312 429.369
 73.6312 429.369 73.6312 429.369 73.6312 429.369 73.6312 429.369
 73.6312 429.369 73.6312 429.369 73.6312 429.369 73.6312 429.369
 75.6406 429.369 75.6406 429.369 75.6406 429.369 75.6406 429.369
 75.6406 429.369 75.6406 429.369 75.6406 429.369 75.6406 429.369
 75.6406 429.369 75.6406 429.369 75.6406 429.369 75.6406 429.369
 77.65 429.369 77.65 429.369 77.65 429.369 77.65 429.369 77.65
 429.369 77.65 429.369 77.65 429.369 77.65 429.369 77.65 429.369
 77.65 429.369 77.65 429.368 77.65 429.369 79.6594 429.369 79.6594
 429.369 79.6594 429.369 79.6594 429.369 79.6594 429.369 79.6594
 429.369 79.6594 429.369 79.6594 429.369 79.6594 429.369 79.6594
 429.369 79.6594 429.368 79.6594 429.369 81.6687 429.369 81.6687
 429.369 81.6687 429.369 81.6687 429.369 81.6687 429.369 81.6687
 429.369 81.6687 429.369 81.6687 429.369 81.6687 429.369 81.6687
 429.369 81.6687 429.368 81.6687 429.369 83.6781 429.369 83.6781
 429.369 83.6781 429.369 83.6781 429.369 83.6781 429.369 83.6781
 429.369 83.6781 429.369 83.6781 429.369 83.6781 429.369 83.6781
 429.369 83.6781 429.368 83.6781 429.369 85.6875 429.369 85.6875
 429.369 85.6875 429.369 85.6875 429.369 85.6875 429.369 85.6875
 429.368 85.6875 429.369 85.6875 429.369 85.6875 429.369 85.6875
 429.369 85.6875 429.368 85.6875 429.369 87.6968 429.369 87.6968
 429.369 87.6968 429.369 87.6968 429.369 87.6968 429.369 87.6968
 429.368 87.6968 429.369 87.6968 429.369 87.6968 429.369 87.6968
 429.369 87.6968 429.368 87.6968 429.369 89.7062 429.369 89.7062
 429.369 89.7062 429.369 89.7062 429.369 89.7062 429.369 89.7062
 429.368 89.7062 429.369 89.7062 429.369 89.7062 429.369 89.7062
 429.369 89.7062 429.368 89.7062 429.369 91.7156 429.369 91.7156
 429.369 91.7156 429.369 91.7156 429.369 91.7156 429.369 91.7156
 429.368 91.7156 429.369 91.7156 429.369 91.7156 429.369 91.7156
 429.369 91.7156 429.367 91.7156 429.369 93.7249 429.369 93.7249
 429.369 93.7249 429.369 93.7249 429.369 93.7249 429.369 93.7249
 429.368 93.7249 429.369 93.7249 429.369 93.7249 429.369 93.7249
 429.369 93.7249 429.367 93.7249 429.369 95.7343 429.369 95.7343
 429.369 95.7343 429.369 95.7343 429.369 95.7343 429.369 95.7343
 429.368 95.7343 429.369 95.7343 429.369 95.7343 429.369 95.7343
 429.369 95.7343 429.366 95.7343 429.369 97.7437 429.369 97.7437
 429.369 97.7437 429.369 97.7437 429.369 97.7437 429.369 97.7437
 429.368 97.7437 429.369 97.7437 429.369 97.7437 429.369 97.7437
 429.369 97.7437 429.365 97.7437 429.369 99.753 429.369 99.753
 429.369 99.753 429.369 99.753 429.369 99.753 429.369 99.753 429.367
 99.753 429.369 99.753 429.369 99.753 429.369 99.753 429.369 99.753
 429.365 99.753 429.369 101.762 429.369 101.762 429.369 101.762
 429.369 101.762 429.369 101.762 429.369 101.762 429.367 101.762
 429.369 101.762 429.369 101.762 429.369 101.762 429.369 101.762
 429.363 101.762 429.369 103.772 429.369 103.772 429.369 103.772
 429.369 103.772 429.369 103.772 429.369 103.772 429.366 103.772
 429.369 103.772 429.369 103.772 429.369 103.772 429.369 103.772
 429.362 103.772 429.369 105.781 429.368 105.781 429.368 105.781
 429.369 105.781 429.369 105.781 429.369 105.781 429.365 105.781
 429.369 105.781 429.369 105.781 429.369 105.781 429.369 105.781
 429.36 105.781 429.369 107.79 429.368 107.79 429.368 107.79 429.369
 107.79 429.369 107.79 429.369 107.79 429.365 107.79 429.369 107.79
 429.369 107.79 429.369 107.79 429.369 107.79 429.358 107.79 429.369
 109.8 429.368 109.8 429.368 109.8 429.369 109.8 429.369 109.8
 429.369 109.8 429.363 109.8 429.369 109.8 429.369 109.8 429.369
 109.8 429.369 109.8 429.355 109.8 429.369 111.809 429.368 111.809
 429.368 111.809 429.369 111.809 429.369 111.809 429.369 111.809
 429.362 111.809 429.369 111.809 429.369 111.809 429.369 111.809
 429.369 111.809 429.352 111.809 429.369 113.819 429.368 113.819
 429.368 113.819 429.369 113.819 429.369 113.819 429.369 113.819
 429.36 113.819 429.369 113.819 429.369 113.819 429.369 113.819
 429.369 113.819 429.348 113.819 429.369 115.828 429.368 115.828
 429.368 115.828 429.369 115.828 429.369 115.828 429.368 115.828
 429.358 115.828 429.369 115.828 429.368 115.828 429.369 115.828
 429.369 115.828 429.343 115.828 429.369 117.837 429.368 117.837
 429.368 117.837 429.369 117.837 429.369 117.837 429.368 117.837
 429.355 117.837 429.369 117.837 429.368 117.837 429.369 117.837
 429.369 117.837 429.336 117.837 429.369 119.847 429.367 119.847
 429.367 119.847 429.369 119.847 429.369 119.847 429.368 119.847
 429.352 119.847 429.369 119.847 429.368 119.847 429.369 119.847
 429.369 119.847 429.329 119.847 429.369 121.856 429.367 121.856
 429.367 121.856 429.369 121.856 429.369 121.856 429.368 121.856
 429.348 121.856 429.369 121.856 429.368 121.856 429.369 121.856
 429.369 121.856 429.319 121.856 429.369 123.865 429.366 123.865
 429.366 123.865 429.369 123.865 429.369 123.865 429.368 123.865
 429.342 123.865 429.369 123.865 429.368 123.865 429.369 123.865
 429.369 123.865 429.308 123.865 429.369 125.875 429.365 125.875
 429.366 125.875 429.369 125.875 429.369 125.875 429.368 125.875
 429.336 125.875 429.369 125.875 429.368 125.875 429.369 125.875
 429.369 125.875 429.293 125.875 429.369 127.884 429.365 127.884
 429.365 127.884 429.369 127.884 429.369 127.884 429.367 127.884
 429.328 127.884 429.369 127.884 429.368 127.884 429.369 127.884
 429.369 127.884 429.276 127.884 429.369 129.894 429.363 129.894
 429.364 129.894 429.369 129.894 429.369 129.894 429.367 129.894
 429.319 129.894 429.369 129.894 429.367 129.894 429.369 129.894
 429.369 129.894 429.256 129.894 429.369 131.903 429.362 131.903
 429.362 131.903 429.369 131.903 429.369 131.903 429.366 131.903
 429.307 131.903 429.369 131.903 429.367 131.903 429.369 131.903
 429.369 131.903 429.23 131.903 429.369 133.912 429.36 133.912 429.36
 133.912 429.369 133.912 429.369 133.912 429.366 133.912 429.293
 133.912 429.369 133.912 429.366 133.912 429.369 133.912 429.369
 133.912 429.2 133.912 429.369 135.922 429.358 135.922 429.358
 135.922 429.369 135.922 429.369 135.922 429.365 135.922 429.275
 135.922 429.369 135.922 429.365 135.922 429.369 135.922 429.369
 135.922 429.164 135.922 429.369 137.931 429.355 137.931 429.356
 137.931 429.369 137.931 429.369 137.931 429.364 137.931 429.254
 137.931 429.369 137.931 429.365 137.931 429.369 137.931 429.369
 137.931 429.12 137.931 429.369 139.94 429.352 139.94 429.352 139.94
 429.369 139.94 429.369 139.94 429.363 139.94 429.229 139.94 429.369
 139.94 429.363 139.94 429.369 139.94 429.369 139.94 429.068 139.94
 429.369 141.95 429.348 141.95 429.348 141.95 429.369 141.95 429.369
 141.95 429.361 141.95 429.198 141.95 429.369 141.95 429.362 141.95
 429.369 141.95 429.369 141.95 429.006 141.95 429.369 143.959 429.342
 143.959 429.343 143.959 429.369 143.959 429.369 143.959 429.359
 143.959 429.162 143.959 429.369 143.959 429.36 143.959 429.369
 143.959 429.369 143.959 428.932 143.959 429.369 145.968 429.336
 145.968 429.337 145.968 429.369 145.968 429.369 145.968 429.356
 145.968 429.118 145.968 429.369 145.968 429.358 145.968 429.369
 145.968 429.369 145.968 428.844 145.968 429.369 147.978 429.328
 147.978 429.329 147.978 429.369 147.978 429.369 147.978 429.353
 147.978 429.065 147.978 429.369 147.978 429.355 147.978 429.369
 147.978 429.369 147.978 428.741 147.978 429.369 149.987 429.319
 149.987 429.32 149.987 429.369 149.987 429.369 149.987 429.349
 149.987 429.002 149.987 429.369 149.987 429.352 149.987 429.369
 149.987 429.369 149.987 428.619 149.987 429.369 151.997 429.307
 151.997 429.309 151.997 429.369 151.997 429.369 151.997 429.345
 151.997 428.928 151.997 429.369 151.997 429.348 151.997 429.369
 151.997 429.368 151.997 428.475 151.997 429.369 154.006 429.293
 154.006 429.295 154.006 429.369 154.006 429.369 154.006 429.339
 154.006 428.839 154.006 429.369 154.006 429.342 154.006 429.369
 154.006 429.368 154.006 428.307 154.006 429.369 156.015 429.275
 156.015 429.278 156.015 429.369 156.015 429.369 156.015 429.332
 156.015 428.735 156.015 429.369 156.015 429.336 156.015 429.369
 156.015 429.368 156.015 428.109 156.015 429.369 158.025 429.254
 158.025 429.257 158.025 429.369 158.025 429.369 158.025 429.323
 158.025 428.612 158.025 429.369 158.025 429.328 158.025 429.369
 158.025 429.368 158.025 427.88 158.025 429.369 160.034 429.229
 160.034 429.233 160.034 429.369 160.034 429.369 160.034 429.312
 160.034 428.467 160.034 429.369 160.034 429.318 160.034 429.369
 160.034 429.368 160.034 427.612 160.034 429.369 162.043 429.198
 162.043 429.203 162.043 429.369 162.043 429.369 162.043 429.299
 162.043 428.297 162.043 429.369 162.043 429.307 162.043 429.369
 162.043 429.368 162.043 427.302 162.043 429.369 164.053 429.162
 164.053 429.167 164.053 429.369 164.053 429.369 164.053 429.283
 164.053 428.098 164.053 429.369 164.053 429.292 164.053 429.369
 164.053 429.367 164.053 426.942 164.053 429.369 166.062 429.118
 166.062 429.124 166.062 429.369 166.062 429.369 166.062 429.263
 166.062 427.866 166.062 429.369 166.062 429.275 166.062 429.369
 166.062 429.367 166.062 426.528 166.062 429.369 168.072 429.065
 168.072 429.073 168.072 429.369 168.072 429.369 168.072 429.24
 168.072 427.596 168.072 429.369 168.072 429.254 168.072 429.369
 168.072 429.367 168.072 426.051 168.072 429.369 170.081 429.002
 170.081 429.011 170.081 429.369 170.081 429.369 170.081 429.211
 170.081 427.284 170.081 429.369 170.081 429.228 170.081 429.369
 170.081 429.366 170.081 425.504 170.081 429.369 172.09 428.928
 172.09 428.938 172.09 429.369 172.09 429.369 172.09 429.177 172.09
 426.922 172.09 429.369 172.09 429.197 172.09 429.369 172.09 429.365
 172.09 424.878 172.09 429.369 174.1 428.839 174.1 428.852 174.1
 429.369 174.1 429.369 174.1 429.136 174.1 426.504 174.1 429.369
 174.1 429.161 174.1 429.369 174.1 429.364 174.1 424.164 174.1
 429.369 176.109 428.735 176.109 428.75 176.109 429.369 176.109
 429.369 176.109 429.087 176.109 426.024 176.109 429.369 176.109
 429.116 176.109 429.369 176.109 429.363 176.109 423.351 176.109
 429.369 178.118 428.611 178.118 428.629 178.118 429.369 178.118
 429.369 178.118 429.028 178.118 425.473 178.118 429.369 178.118
 429.063 178.118 429.369 178.118 429.361 178.118 422.429 178.118
 429.369 180.128 428.466 180.128 428.487 180.128 429.369 180.128
 429.369 180.128 428.959 180.128 424.842 180.128 429.369 180.128 429
 180.128 429.369 180.128 429.36 180.128 421.385 180.128 429.369
 182.137 428.296 182.137 428.321 182.137 429.369 182.137 429.369
 182.137 428.876 182.137 424.123 182.137 429.369 182.137 428.925
 182.137 429.369 182.137 429.357 182.137 420.208 182.137 429.369
 184.146 428.098 184.146 428.126 184.146 429.369 184.146 429.369
 184.146 428.778 184.146 423.304 184.146 429.369 184.146 428.837
 184.146 429.369 184.146 429.354 184.146 418.883 184.146 429.369
 186.156 427.866 186.156 427.899 186.156 429.369 186.156 429.369
 186.156 428.663 186.156 422.376 186.156 429.369 186.156 428.732
 186.156 429.369 186.156 429.351 186.156 417.397 186.156 429.369
 188.165 427.596 188.165 427.635 188.165 429.369 188.165 429.369
 188.165 428.527 188.165 421.325 188.165 429.369 188.165 428.608
 188.165 429.369 188.165 429.346 188.165 415.734 188.165 429.369
 190.175 427.283 190.175 427.328 190.175 429.369 190.175 429.369
 190.175 428.367 190.175 420.14 190.175 429.369 190.175 428.462
 190.175 429.369 190.175 429.34 190.175 413.88 190.175 429.369
 192.184 426.921 192.184 426.973 192.184 429.369 192.184 429.369
 192.184 428.18 192.184 418.807 192.184 429.369 192.184 428.292
 192.184 429.369 192.184 429.334 192.184 411.817 192.184 429.369
 194.193 426.504 194.193 426.563 194.193 429.369 194.193 429.369
 194.193 427.962 194.193 417.312 194.193 429.369 194.193 428.092
 194.193 429.369 194.193 429.325 194.193 409.53 194.193 429.369
 196.203 426.023 196.203 426.091 196.203 429.369 196.203 429.369
 196.203 427.708 196.203 415.64 196.203 429.369 196.203 427.859
 196.203 429.369 196.203 429.315 196.203 407.001 196.203 429.369
 198.212 425.472 198.212 425.55 198.212 429.369 198.212 429.369
 198.212 427.412 198.212 413.775 198.212 429.369 198.212 427.588
 198.212 429.369 198.212 429.302 198.212 404.213 198.212 429.369
 200.221 424.841 200.221 424.931 200.221 429.369 200.221 429.369
 200.221 427.071 200.221 411.7 200.221 429.369 200.221 427.274
 200.221 429.369 200.221 429.287 200.221 401.148 200.221 429.369
 202.231 424.122 202.231 424.224 202.231 429.369 202.231 429.369
 202.231 426.676 202.231 409.401 202.231 429.369 202.231 426.911
 202.231 429.369 202.231 429.268 202.231 397.79 202.231 429.369
 204.24 423.303 204.24 423.419 204.24 429.369 204.24 429.369 204.24
 426.221 204.24 406.858 204.24 429.369 204.24 426.492 204.24 429.369
 204.24 429.246 204.24 394.12 204.24 429.369 206.249 422.374 206.249
 422.506 206.249 429.369 206.249 429.369 206.249 425.699 206.249
 404.056 206.249 429.369 206.249 426.009 206.249 429.369 206.249
 429.219 206.249 390.123 206.249 429.369 208.259 421.324 208.259
 421.472 208.259 429.369 208.259 429.369 208.259 425.101 208.259
 400.976 208.259 429.369 208.259 425.456 208.259 429.369 208.259
 429.186 208.259 385.782 208.259 429.369 210.268 420.139 210.268
 420.306 210.268 429.369 210.268 429.369 210.268 424.418 210.268
 397.601 210.268 429.369 210.268 424.823 210.268 429.369 210.268
 429.147 210.268 381.082 210.268 429.369 212.278 418.805 212.278
 418.993 212.278 429.369 212.278 429.369 212.278 423.64 212.278
 393.914 212.278 429.369 212.278 424.101 212.278 429.369 212.278
 429.1 212.278 376.01 212.278 429.369 214.287 417.31 214.287 417.52
 214.287 429.369 214.287 429.369 214.287 422.756 214.287 389.899
 214.287 429.369 214.287 423.28 214.287 429.369 214.287 429.044
 214.287 370.553 214.287 429.369 216.296 415.637 216.296 415.872
 216.296 429.369 216.296 429.369 216.296 421.755 216.296 385.539
 216.296 429.369 216.296 422.348 216.296 429.369 216.296 428.978
 216.296 364.701 216.296 429.369 218.306 413.772 218.306 414.034
 218.306 429.369 218.306 429.369 218.306 420.625 218.306 380.82
 218.306 429.369 218.306 421.294 218.306 429.369 218.306 428.899
 218.306 358.445 218.306 429.369 220.315 411.697 220.315 411.988
 220.315 429.369 220.315 429.369 220.315 419.351 220.315 375.727
 220.315 429.369 220.315 420.105 220.315 429.369 220.315 428.805
 220.315 351.778 220.315 429.369 222.324 409.397 222.324 409.719
 222.324 429.369 222.324 429.369 222.324 417.922 222.324 370.249
 222.324 429.369 222.324 418.768 222.324 429.369 222.324 428.694
 222.324 344.698 222.324 429.369 224.334 406.854 224.334 407.21
 224.334 429.369 224.334 429.369 224.334 416.321 224.334 364.375
 224.334 429.369 224.334 417.268 224.334 429.369 224.334 428.564
 224.334 337.204 224.334 429.369 226.343 404.051 226.343 404.443
 226.343 429.369 226.343 429.369 226.343 414.534 226.343 358.097
 226.343 429.369 226.343 415.591 226.343 429.369 226.343 428.41
 226.343 329.299 226.343 429.369 228.353 400.971 228.353 401.401
 228.353 429.369 228.353 429.369 228.353 412.544 228.353 351.409
 228.353 429.369 228.353 413.72 228.353 429.369 228.353 428.231
 228.353 320.988 228.353 429.369 230.362 397.596 230.362 398.066
 230.362 429.369 230.362 429.369 230.362 410.335 230.362 344.307
 230.362 429.369 230.362 411.64 230.362 429.369 230.362 428.021
 230.362 312.281 230.362 429.369 232.371 393.909 232.371 394.422
 232.371 429.369 232.371 429.369 232.371 407.891 232.371 336.79
 232.371 429.369 232.371 409.333 232.371 429.369 232.371 427.777
 232.371 303.192 232.371 429.369 234.381 389.893 234.381 390.451
 234.381 429.369 234.381 429.369 234.381 405.193 234.381 328.863
 234.381 429.369 234.381 406.784 234.381 429.369 234.381 427.492
 234.381 293.739 234.381 429.369 236.39 385.532 236.39 386.138 236.39
 429.369 236.39 429.369 236.39 402.224 236.39 320.53 236.39 429.369
 236.39 403.974 236.39 429.369 236.39 427.163 236.39 283.944 236.39
 429.369 238.399 380.813 238.399 381.467 238.399 429.369 238.399
 429.369 238.399 398.968 238.399 311.803 238.399 429.369 238.399
 400.886 238.399 429.369 238.399 426.783 238.399 273.832 238.399
 429.369 240.409 375.72 240.409 376.425 240.409 429.369 240.409
 429.369 240.409 395.406 240.409 302.694 240.409 429.369 240.409
 397.503 240.409 429.369 240.409 426.344 240.409 263.435 240.409
 429.369 242.418 370.241 242.418 370.999 242.418 429.369 242.418
 429.369 242.418 391.522 242.418 293.222 242.418 429.369 242.418
 393.807 242.418 429.369 242.418 425.84 242.418 252.787 242.418
 429.369 244.427 364.367 244.427 365.178 244.427 429.369 244.427
 429.369 244.427 387.3 244.427 283.409 244.427 429.369 244.427
 389.782 244.427 429.369 244.427 425.262 244.427 241.927 244.427
 429.369 246.437 358.088 246.437 358.954 246.437 429.369 246.437
 429.369 246.437 382.724 246.437 273.281 246.437 429.369 246.437
 385.412 246.437 429.369 246.437 424.602 246.437 230.899 246.437
 429.369 248.446 351.399 248.446 352.32 248.446 429.369 248.446
 429.369 248.446 377.78 248.446 262.869 248.446 429.369 248.446
 380.683 248.446 429.369 248.446 423.849 248.446 219.749 248.446
 429.369 250.456 344.296 250.456 345.273 250.456 429.369 250.456
 429.369 250.456 372.455 250.456 252.209 250.456 429.369 250.456
 375.58 250.456 429.369 250.456 422.993 250.456 208.528 250.456
 429.369 252.465 336.779 252.465 337.811 252.465 429.369 252.465
 429.369 252.465 366.739 252.465 241.339 252.465 429.369 252.465
 370.091 252.465 429.369 252.465 422.024 252.465 197.291 252.465
 429.369 254.474 328.851 254.474 329.938 254.474 429.369 254.474
 429.369 254.474 360.621 254.474 230.303 254.474 429.369 254.474
 364.206 254.474 429.369 254.474 420.928 254.474 186.093 254.474
 429.369 256.484 320.518 256.484 321.659 256.484 429.369 256.484
 429.369 256.484 354.095 256.484 219.148 256.484 429.369 256.484
 357.917 256.484 429.369 256.484 419.693 256.484 174.996 256.484
 429.369 258.493 311.79 258.493 312.983 258.493 429.369 258.493
 429.369 258.493 347.156 258.493 207.924 258.493 429.369 258.493
 351.217 258.493 429.369 258.493 418.305 258.493 164.059 258.493
 429.369 260.502 302.68 260.502 303.924 260.502 429.369 260.502
 429.369 260.502 339.803 260.502 196.688 260.502 429.369 260.502
 344.103 260.502 429.369 260.502 416.749 260.502 153.347 260.502
 429.369 262.512 293.208 262.512 294.499 262.512 429.369 262.512
 429.369 262.512 332.037 262.512 185.494 262.512 429.369 262.512
 336.575 262.512 429.369 262.512 415.011 262.512 142.923 262.512
 429.369 264.521 283.394 264.521 284.729 264.521 429.369 264.521
 429.369 264.521 323.863 264.521 174.404 264.521 429.369 264.521
 328.636 264.521 429.369 264.521 413.075 264.521 132.851 264.521
 429.369 266.53 273.266 266.53 274.642 266.53 429.369 266.53 429.369
 266.53 315.29 266.53 163.478 266.53 429.369 266.53 320.293 266.53
 429.369 266.53 410.924 266.53 123.195 266.53 429.369 268.54 262.854
 268.54 264.266 268.54 429.369 268.54 429.369 268.54 306.329 268.54
 152.779 268.54 429.369 268.54 311.554 268.54 429.369 268.54 408.541
 268.54 114.018 268.54 429.369 270.549 252.193 270.549 253.636
 270.549 429.369 270.549 429.369 270.549 296.998 270.549 142.372
 270.549 429.369 270.549 302.435 270.549 429.369 270.549 405.91
 270.549 105.381 270.549 429.369 272.559 241.323 272.559 242.792
 272.559 429.369 272.559 429.369 272.559 287.316 272.559 132.321
 272.559 429.369 272.559 292.953 272.559 429.369 272.559 403.013
 272.559 97.343 272.559 429.369 274.568 230.287 274.568 231.775
 274.568 429.369 274.568 429.369 274.568 277.309 274.568 122.689
 274.568 429.369 274.568 283.131 274.568 429.369 274.568 399.832
 274.568 89.9592 274.568 429.369 276.577 219.132 276.577 220.633
 276.577 429.369 276.577 429.369 276.577 267.005 276.577 113.54
 276.577 429.369 276.577 272.995 276.577 429.369 276.577 396.35
 276.577 83.2819 276.577 429.369 278.587 207.908 278.587 209.416
 278.587 429.369 278.587 429.369 278.587 256.439 278.587 104.934
 278.587 429.369 278.587 262.576 278.587 429.369 278.587 392.55
 278.587 77.3588 278.587 429.369 280.596 196.672 280.596 198.177
 280.596 429.369 280.596 429.369 280.596 245.646 280.596 96.9293
 280.596 429.369 280.596 251.909 280.596 429.369 280.596 388.416
 280.596 72.2328 280.596 429.369 282.605 185.478 282.605 186.975
 282.605 429.369 282.605 429.369 282.605 234.67 282.605 89.5822
 282.605 429.369 282.605 241.034 282.605 429.369 282.605 383.933
 282.605 67.9413 282.605 429.369 284.615 174.388 284.615 175.867
 284.615 429.369 284.615 429.369 284.615 223.556 284.615 82.9443
 284.615 429.369 284.615 229.994 284.615 429.369 284.615 379.085
 284.615 64.5162 284.615 429.369 286.624 163.462 286.624 164.916
 286.624 429.369 286.624 429.369 286.624 212.354 286.624 77.0629
 286.624 429.369 286.624 218.836 286.624 429.369 286.624 373.859
 286.624 61.9829 286.624 429.369 288.634 152.764 288.634 154.183
 288.634 429.369 288.634 429.368 288.634 201.116 288.634 71.9808
 288.634 429.369 288.634 207.612 288.634 429.369 288.634 368.244
 288.634 60.3602 288.634 429.369 290.643 142.358 290.643 143.734
 290.643 429.369 290.643 429.368 290.643 189.898 290.643 67.7351
 290.643 429.369 290.643 196.375 290.643 429.369 290.643 362.23
 290.643 59.6605 290.643 429.369 292.652 132.307 292.652 133.632
 292.652 429.369 292.652 429.368 292.652 178.76 292.652 64.3573
 292.652 429.369 292.652 185.184 292.652 429.369 292.652 355.809
 292.652 59.8889 292.652 429.369 294.662 122.676 294.662 123.941
 294.662 429.369 294.662 429.368 294.662 167.761 294.662 61.8724
 294.662 429.369 294.662 174.097 294.662 429.369 294.662 348.976
 294.662 61.0439 294.662 429.369 296.671 113.527 296.671 114.724
 296.671 429.369 296.671 429.368 296.671 156.965 296.671 60.2991
 296.671 429.369 296.671 163.177 296.671 429.369 296.671 341.729
 296.671 63.1165 296.671 429.369 298.68 104.922 298.68 106.042 298.68
 429.369 298.68 429.368 298.68 146.436 298.68 59.6492 298.68 429.369
 298.68 152.485 298.68 429.369 298.68 334.069 298.68 66.0915 298.68
 429.369 300.69 96.9184 300.69 97.9547 300.69 429.369 300.69 429.367
 300.69 136.237 300.69 59.9275 300.69 429.369 300.69 142.088 300.69
 429.369 300.69 325.999 300.69 69.9464 300.69 429.369 302.699 89.5722
 302.699 90.5174 302.699 429.369 302.699 429.367 302.699 126.432
 302.699 61.132 302.699 429.369 302.699 132.047 302.699 429.369
 302.699 317.527 302.699 74.6528 302.699 429.369 304.708 82.9353
 304.708 83.7825 304.708 429.369 304.708 429.367 304.708 117.085
 304.708 63.2535 304.708 429.369 304.708 122.428 304.708 429.369
 304.708 308.665 304.708 80.1761 304.708 429.369 306.718 77.0551
 306.718 77.7982 306.718 429.369 306.718 429.366 306.718 108.258
 306.718 66.2763 306.718 429.369 306.718 113.293 306.718 429.369
 306.718 299.427 306.718 86.4759 306.718 429.369 308.727 71.9741
 308.727 72.6078 308.727 429.369 308.727 429.365 308.727 100.009
 308.727 70.1778 308.727 429.369 308.727 104.703 308.727 429.369
 308.727 289.833 308.727 93.5071 308.727 429.369 310.737 67.7297
 310.737 68.2492 310.737 429.369 310.737 429.364 310.737 92.3968
 310.737 74.929 310.737 429.369 310.737 96.7158 310.737 429.369
 310.737 279.907 310.737 101.22 310.737 429.369 312.746 64.3531
 312.746 64.7546 312.746 429.369 312.746 429.363 312.746 85.4733
 312.746 80.495 312.746 429.369 312.746 89.3878 312.746 429.369
 312.746 269.676 312.746 109.559 312.746 429.369 314.755 61.8695
 314.755 62.15 314.755 429.369 314.755 429.362 314.755 79.2883
 314.755 86.8354 314.755 429.369 314.755 82.7702 314.755 429.369
 314.755 259.174 314.755 118.47 314.755 429.369 316.765 60.2975
 316.765 60.4549 316.765 429.369 316.765 429.36 316.765 73.8864
 316.765 93.9044 316.765 429.369 316.765 76.9105 316.765 429.369
 316.765 248.435 316.765 127.89 316.765 429.369 318.774 59.6489
 318.774 59.682 318.774 429.369 318.774 429.358 318.774 69.3069
 318.774 101.652 318.774 429.369 318.774 71.8512 318.774 429.369
 318.774 237.502 318.774 137.758 318.774 429.369 320.783 59.9285
 320.783 59.8371 320.783 429.369 320.783 429.355 320.783 65.5836
 320.783 110.024 320.783 429.369 320.783 67.6293 320.783 429.369
 320.783 226.419 320.783 148.012 320.783 429.369 322.793 61.1343
 322.793 60.9191 322.793 429.369 322.793 429.352 322.793 62.7441
 322.793 118.963 322.793 429.369 322.793 64.276 322.793 429.369
 322.793 215.234 322.793 158.586 322.793 429.369 324.802 63.2572
 324.802 62.9198 324.802 429.369 324.802 429.347 324.802 60.8096
 324.802 128.409 324.802 429.369 324.802 61.8163 324.802 429.369
 324.802 204 324.802 169.416 324.802 429.369 326.812 66.2813 326.812
 65.8241 326.812 429.369 326.812 429.342 326.812 59.7947 326.812
 138.3 326.812 429.369 326.812 60.2685 326.812 429.369 326.812
 192.772 326.812 180.44 326.812 429.369 328.821 70.184 328.821
 69.6106 328.821 429.369 328.821 429.335 328.821 59.7069 328.821
 148.572 328.821 429.369 328.821 59.6443 328.821 429.369 328.821
 181.607 328.821 191.594 328.821 429.369 330.83 74.9364 330.83
 74.2509 330.83 429.369 330.83 429.327 330.83 60.547 330.83 159.161
 330.83 429.369 330.83 59.9485 330.83 429.369 330.83 170.567 330.83
 202.818 330.83 429.369 332.84 80.5035 332.84 79.711 332.84 429.369
 332.84 429.318 332.84 62.3085 332.84 170.004 332.84 429.369 332.84
 61.1786 332.84 429.369 332.84 159.713 332.84 214.054 332.84 429.369
 334.849 86.8449 334.849 85.9511 334.849 429.369 334.849 429.306
 334.849 64.9784 334.849 181.036 334.849 429.369 334.849 63.3255
 334.849 429.369 334.849 149.109 334.849 225.247 334.849 429.369
 336.858 93.915 336.858 92.9263 336.858 429.369 336.858 429.291
 336.858 68.5365 336.858 192.195 336.858 429.369 336.858 66.3731
 336.858 429.369 336.858 138.82 336.858 236.343 336.858 429.369
 338.868 101.663 338.868 100.587 338.868 429.369 338.868 429.273
 338.868 72.9566 338.868 203.422 338.868 429.368 338.868 70.2986
 338.868 429.369 338.868 128.908 338.868 247.294 338.868 429.369
 340.877 110.036 340.877 108.879 340.877 429.369 340.877 429.252
 340.877 78.2059 340.877 214.657 340.877 429.368 340.877 75.073
 340.877 429.369 340.877 119.437 340.877 258.055 340.877 429.369
 342.886 118.976 342.886 117.746 342.886 429.369 342.886 429.226
 342.886 84.2462 342.886 225.846 342.886 429.368 342.886 80.6611
 342.886 429.369 342.886 110.471 342.886 268.584 342.886 429.369
 344.896 128.423 344.896 127.129 344.896 429.369 344.896 429.195
 344.896 91.0337 344.896 236.935 344.896 429.368 344.896 87.0224
 344.896 429.369 344.896 102.068 344.896 278.845 344.896 429.369
 346.905 138.314 346.905 136.964 346.905 429.369 346.905 429.157
 346.905 98.52 346.905 247.877 346.905 429.368 346.905 94.111 346.905
 429.369 346.905 94.2869 346.905 288.805 346.905 429.369 348.915
 148.587 348.915 147.189 348.915 429.369 348.915 429.113 348.915
 106.653 348.915 258.627 348.915 429.368 348.915 101.877 348.915
 429.368 348.915 87.1817 348.915 298.435 348.915 429.369 350.924
 159.176 350.924 157.74 350.924 429.369 350.924 429.059 350.924
 115.375 350.924 269.142 350.924 429.367 350.924 110.265 350.924
 429.368 350.924 80.8027 350.924 307.711 350.924 429.369 352.933
 170.019 352.933 168.553 352.933 429.369 352.933 428.995 352.933
 124.629 352.933 279.388 352.933 429.367 352.933 119.219 352.933
 429.368 352.933 75.1958 352.933 316.614 352.933 429.368 354.943
 181.052 354.943 179.563 354.943 429.369 354.943 428.919 354.943
 134.351 354.943 289.33 354.943 429.367 354.943 128.678 354.943
 429.368 354.943 70.4018 354.943 325.127 354.943 429.368 356.952
 192.211 356.952 190.71 356.952 429.369 356.952 428.829 356.952
 144.481 356.952 298.942 356.952 429.366 356.952 138.581 356.952
 429.368 356.952 66.4559 356.952 333.24 356.952 429.368 358.961
 203.438 358.961 201.931 358.961 429.369 358.961 428.723 358.961
 154.953 358.961 308.199 358.961 429.365 358.961 148.862 358.961
 429.368 358.961 63.3872 358.961 340.943 358.961 429.368 360.971
 214.673 360.971 213.168 360.971 429.369 360.971 428.598 360.971
 165.703 360.971 317.081 360.971 429.364 360.971 159.46 360.971
 429.367 360.971 61.2188 360.971 348.234 360.971 429.368 362.98
 225.862 362.98 224.366 362.98 429.369 362.98 428.451 362.98 176.668
 362.98 325.573 362.98 429.363 362.98 170.308 362.98 429.367 362.98
 59.9669 362.98 355.11 362.98 429.368 364.989 236.951 364.989 235.471
 364.989 429.369 364.989 428.278 364.989 187.785 364.989 333.664
 364.989 429.362 364.989 181.345 364.989 429.366 364.989 59.6408
 364.989 361.574 364.989 429.367 366.999 247.893 366.999 246.436
 366.999 429.368 366.999 428.076 366.999 198.992 366.999 341.345
 366.999 429.36 366.999 192.507 366.999 429.366 366.999 60.2431
 366.999 367.63 366.999 429.367 369.008 258.642 369.008 257.213
 369.008 429.368 369.008 427.84 369.008 210.23 369.008 348.614
 369.008 429.358 369.008 203.735 369.008 429.365 369.008 61.7691
 369.008 373.287 369.008 429.367 371.018 269.157 371.018 267.762
 371.018 429.368 371.018 427.567 371.018 221.444 371.018 355.467
 371.018 429.355 371.018 214.969 371.018 429.364 371.018 64.2075
 371.018 378.553 371.018 429.366 373.027 279.402 373.027 278.045
 373.027 429.368 373.027 427.249 373.027 232.579 373.027 361.909
 373.027 429.352 373.027 226.156 373.027 429.363 373.027 67.5399
 373.027 383.44 373.027 429.365 375.036 289.344 375.036 288.03
 375.036 429.368 375.036 426.882 375.036 243.584 375.036 367.944
 375.036 429.347 375.036 237.242 375.036 429.361 375.036 71.7417
 375.036 387.962 375.036 429.364 377.046 298.955 377.046 297.687
 377.046 429.368 377.046 426.458 377.046 254.415 377.046 373.58
 377.046 429.342 377.046 248.179 377.046 429.359 377.046 76.7816
 377.046 392.132 377.046 429.363 379.055 308.212 379.055 306.992
 379.055 429.367 379.055 425.971 379.055 265.027 379.055 378.825
 379.055 429.336 379.055 258.922 379.055 429.357 379.055 82.6228
 379.055 395.966 379.055 429.361 381.064 317.093 381.064 315.924
 381.064 429.367 381.064 425.412 381.064 275.383 381.064 383.692
 381.064 429.328 381.064 269.431 381.064 429.353 381.064 89.223
 381.064 399.48 381.064 429.359 383.074 325.585 383.074 324.469
 383.074 429.367 383.074 424.773 383.074 285.449 383.074 388.194
 383.074 429.318 383.074 279.669 383.074 429.35 383.074 96.5348
 383.074 402.692 383.074 429.357 385.083 333.675 385.083 332.614
 385.083 429.366 385.083 424.044 385.083 295.194 385.083 392.346
 385.083 429.306 385.083 289.602 385.083 429.345 385.083 104.507
 385.083 405.618 385.083 429.354 387.093 341.356 387.093 340.35
 387.093 429.365 387.093 423.215 387.093 304.593 387.093 396.162
 387.093 429.291 387.093 299.204 387.093 429.339 387.093 113.083
 387.093 408.277 387.093 429.35 389.102 348.624 389.102 347.673
 389.102 429.364 389.102 422.274 389.102 313.625 389.102 399.66
 389.102 429.274 389.102 308.451 389.102 429.332 389.102 122.206
 389.102 410.685 389.102 429.346 391.111 355.477 391.111 354.582
 391.111 429.363 391.111 421.211 391.111 322.273 391.111 402.856
 391.111 429.253 391.111 317.322 391.111 429.323 391.111 131.815
 391.111 412.859 391.111 429.34 393.121 361.918 393.121 361.078
 393.121 429.362 393.121 420.011 393.121 330.523 393.121 405.768
 393.121 429.227 393.121 325.804 393.121 429.312 393.121 141.846
 393.121 414.817 393.121 429.333 395.13 367.953 395.13 367.167 395.13
 429.36 395.13 418.662 395.13 338.366 395.13 408.412 395.13 429.196
 395.13 333.883 395.13 429.299 395.13 152.236 395.13 416.575 395.13
 429.324 397.139 373.587 397.139 372.855 397.139 429.357 397.139
 417.15 397.139 345.798 397.139 410.807 397.139 429.159 397.139
 341.553 397.139 429.283 397.139 162.921 397.139 418.149 397.139
 429.314 399.149 378.832 399.149 378.151 399.149 429.355 399.149
 415.458 399.149 352.815 399.149 412.97 399.149 429.114 399.149
 348.81 399.149 429.264 399.149 173.837 399.149 419.554 399.149
 429.301 401.158 383.699 401.158 383.068 401.158 429.351 401.158
 413.572 401.158 359.419 401.158 414.917 401.158 429.061 401.158
 355.652 401.158 429.241 401.158 184.92 401.158 420.805 401.158
 429.286 403.167 388.201 403.167 387.618 403.167 429.347 403.167
 411.476 403.167 365.613 403.167 416.664 403.167 428.997 403.167
 362.083 403.167 429.213 403.167 196.11 403.167 421.915 403.167
 429.267 405.177 392.352 405.177 391.815 405.177 429.341 405.177
 409.152 405.177 371.405 405.177 418.229 405.177 428.922 405.177
 368.106 405.177 429.179 405.177 207.346 405.177 422.897 405.177
 429.244 407.186 396.168 407.186 395.675 407.186 429.334 407.186
 406.584 407.186 376.803 407.186 419.625 407.186 428.832 407.186
 373.731 407.186 429.138 407.186 218.571 407.186 423.764 407.186
 429.217 409.196 399.665 409.196 399.214 409.196 429.326 409.196
 403.754 409.196 381.818 409.196 420.868 409.196 428.726 409.196
 378.966 409.196 429.089 409.196 229.731 409.196 424.527 409.196
 429.184 411.205 402.861 411.205 402.449 411.205 429.316 411.205
 400.645 411.205 386.462 411.205 421.97 411.205 428.602 411.205
 383.822 411.205 429.031 411.205 240.775 411.205 425.197 411.205
 429.144 413.214 405.772 413.214 405.397 413.214 429.304 413.214
 397.239 413.214 390.75 413.214 422.946 413.214 428.455 413.214
 388.315 413.214 428.962 413.214 251.654 413.214 425.783 413.214
 429.097 415.224 408.416 415.224 408.076 415.224 429.289 415.224
 393.519 415.224 394.697 415.224 423.807 415.224 428.283 415.224
 392.457 415.224 428.88 415.224 262.326 415.224 426.294 415.224
 429.04 417.233 410.81 417.233 410.503 417.233 429.271 417.233
 389.469 417.233 398.318 417.233 424.565 417.233 428.082 417.233
 396.264 417.233 428.783 417.233 272.752 417.233 426.739 417.233
 428.972 419.242 412.973 419.242 412.696 419.242 429.249 419.242
 385.073 419.242 401.631 419.242 425.23 419.242 427.848 419.242
 399.753 419.242 428.668 419.242 282.895 419.242 427.126 419.242
 428.892 421.252 414.919 421.252 414.67 421.252 429.222 421.252
 380.316 421.252 404.653 421.252 425.812 421.252 427.575 421.252
 402.941 421.252 428.534 421.252 292.725 421.252 427.46 421.252
 428.797 423.261 416.667 423.261 416.443 423.261 429.19 423.261
 375.185 423.261 407.401 423.261 426.32 423.261 427.259 423.261
 405.845 423.261 428.375 423.261 302.215 423.261 427.749 423.261
 428.685 425.271 418.231 425.271 418.031 425.271 429.152 425.271
 369.667 425.271 409.892 425.271 426.761 425.271 426.893 425.271
 408.482 425.271 428.189 425.271 311.343 425.271 427.997 425.271
 428.553 427.28 419.627 427.28 419.449 427.28 429.106 427.28 363.752
 427.28 412.144 427.28 427.145 427.28 426.471 427.28 410.87 427.28
 427.973 427.28 320.091 427.28 428.21 427.28 428.398 429.289 420.869
 429.289 420.711 429.289 429.051 429.289 357.432 429.289 414.174
 429.289 427.477 429.289 425.986 429.289 413.027 429.289 427.72
 429.289 328.444 429.289 428.393 429.289 428.217 431.299 421.972
 431.299 421.832 431.299 428.986 431.299 350.702 431.299 415.998
 431.299 427.763 431.299 425.429 431.299 414.968 431.299 427.427
 431.299 336.392 431.299 428.549 431.299 428.005 433.308 422.948
 433.308 422.824 433.308 428.908 433.308 343.557 433.308 417.633
 433.308 428.009 433.308 424.792 433.308 416.71 433.308 427.088
 433.308 343.93 433.308 428.681 433.308 427.758 435.317 423.809
 435.317 423.699 435.317 428.816 435.317 335.999 435.317 419.094
 435.317 428.221 435.317 424.066 435.317 418.27 435.317 426.696
 435.317 351.053 435.317 428.794 435.317 427.47 437.327 424.566
 437.327 424.47 437.327 428.707 437.327 328.029 437.327 420.395
 437.327 428.402 437.327 423.24 437.327 419.662 437.327 426.244
 437.327 357.763 437.327 428.889 437.327 427.138 439.336 425.231
 439.336 425.147 439.336 428.579 439.336 319.656 439.336 421.552
 439.336 428.556 439.336 422.303 439.336 420.9 439.336 425.725
 439.336 364.062 439.336 428.97 439.336 426.753 441.345 425.813
 441.345 425.739 441.345 428.428 441.345 310.889 441.345 422.576
 441.345 428.688 441.345 421.243 441.345 421.999 441.345 425.131
 441.345 369.957 441.345 429.038 441.345 426.31 443.355 426.32
 443.355 426.256 443.355 428.252 443.355 301.742 443.355 423.481
 443.355 428.8 443.355 420.047 443.355 422.972 443.355 424.452
 443.355 375.455 443.355 429.095 443.355 425.801 445.364 426.762
 445.364 426.706 445.364 428.046 445.364 292.234 445.364 424.278
 445.364 428.894 445.364 418.703 445.364 423.83 445.364 423.678
 445.364 380.567 445.364 429.143 445.364 425.218 447.374 427.145
 447.374 427.097 447.374 427.805 447.374 282.387 447.374 424.978
 447.374 428.974 447.374 417.195 447.374 424.585 447.374 422.8
 447.374 385.305 447.374 429.183 447.374 424.551 449.383 427.477
 449.383 427.435 449.383 427.526 449.383 272.229 449.383 425.592
 449.383 429.041 449.383 415.509 449.383 425.247 449.383 421.805
 449.383 389.683 449.383 429.216 449.383 423.791 451.392 427.763
 451.392 427.727 451.392 427.202 451.392 261.79 451.392 426.128
 451.392 429.098 451.392 413.629 451.392 425.827 451.392 420.681
 451.392 393.716 451.392 429.243 451.392 422.928 453.402 428.01
 453.402 427.979 453.402 426.827 453.402 251.106 453.402 426.595
 453.402 429.145 453.402 411.539 453.402 426.333 453.402 419.415
 453.402 397.419 453.402 429.266 453.402 421.95 455.411 428.221
 455.411 428.195 455.411 426.395 455.411 240.217 455.411 427 455.411
 429.184 455.411 409.222 455.411 426.773 455.411 417.993 455.411
 400.809 455.411 429.285 455.411 420.844 457.42 428.402 457.42
 428.379 457.42 425.899 457.42 229.167 457.42 427.352 457.42 429.217
 457.42 406.661 457.42 427.155 457.42 416.4 457.42 403.904 457.42
 429.301 457.42 419.599 459.43 428.557 459.43 428.537 459.43 425.329
 459.43 218.003 459.43 427.655 459.43 429.245 459.43 403.838 459.43
 427.485 459.43 414.622 459.43 406.72 459.43 429.314 459.43 418.199
 461.439 428.688 461.439 428.672 461.439 424.678 461.439 206.776
 461.439 427.917 461.439 429.267 461.439 400.737 461.439 427.77
 461.439 412.642 461.439 409.276 461.439 429.324 461.439 416.631
 463.448 428.8 463.448 428.786 463.448 423.936 463.448 195.541
 463.448 428.141 463.448 429.286 463.448 397.34 463.448 428.016
 463.448 410.444 463.448 411.588 463.448 429.333 463.448 414.88
 465.458 428.894 465.458 428.882 465.458 423.092 465.458 184.355
 465.458 428.334 465.458 429.302 465.458 393.63 465.458 428.226
 465.458 408.011 465.458 413.673 465.458 429.34 465.458 412.928
 467.467 428.974 467.467 428.964 467.467 422.136 467.467 173.278
 467.467 428.498 467.467 429.314 467.467 389.59 467.467 428.406
 467.467 405.325 467.467 415.549 467.467 429.345 467.467 410.762
 469.477 429.041 469.477 429.033 469.477 421.054 469.477 162.372
 469.477 428.639 469.477 429.325 469.477 385.204 469.477 428.56
 469.477 402.37 469.477 417.231 469.477 429.35 469.477 408.362
 471.486 429.098 471.486 429.091 471.486 419.835 471.486 151.701
 471.486 428.758 471.486 429.333 471.486 380.457 471.486 428.691
 471.486 399.127 471.486 418.735 471.486 429.354 471.486 405.712
 473.495 429.145 473.495 429.139 473.495 418.465 473.495 141.327
 473.495 428.859 473.495 429.34 473.495 375.337 473.495 428.802
 473.495 395.58 473.495 420.076 473.495 429.357 473.495 402.795
 475.505 429.184 475.505 429.18 475.505 416.928 475.505 131.316
 475.505 428.944 475.505 429.346 475.505 369.83 475.505 428.897
 475.505 391.712 475.505 421.268 475.505 429.359 475.505 399.593
 477.514 429.217 477.514 429.213 477.514 415.211 477.514 121.731
 477.514 429.016 477.514 429.35 477.514 363.927 477.514 428.976
 477.514 387.506 477.514 422.325 477.514 429.361 477.514 396.089
 479.523 429.245 479.523 429.241 479.523 413.297 479.523 112.634
 479.523 429.077 479.523 429.354 479.523 357.619 479.523 429.043
 479.523 382.947 479.523 423.259 479.523 429.363 479.523 392.266
 481.533 429.267 481.533 429.265 481.533 411.171 481.533 104.087
 481.533 429.127 481.533 429.357 481.533 350.9 481.533 429.099
 481.533 378.02 481.533 424.083 481.533 429.364 481.533 388.108
 483.542 429.286 483.542 429.284 483.542 408.814 483.542 96.1473
 483.542 429.17 483.542 429.359 483.542 343.767 483.542 429.146
 483.542 372.714 483.542 424.807 483.542 429.365 483.542 383.598
 485.552 429.302 485.552 429.3 485.552 406.211 485.552 88.8704
 485.552 429.205 485.552 429.361 485.552 336.22 485.552 429.185
 485.552 367.016 485.552 425.442 485.552 429.366 485.552 378.724
 487.561 429.314 487.561 429.313 487.561 403.344 487.561 82.3076
 487.561 429.235 487.561 429.363 487.561 328.263 487.561 429.218
 487.561 360.917 487.561 425.997 487.561 429.366 487.561 373.47
 489.57 429.325 489.57 429.323 489.57 400.195 489.57 76.5061 489.57
 429.259 489.57 429.364 489.57 319.901 489.57 429.245 489.57 354.41
 489.57 426.481 489.57 429.367 489.57 367.827 491.58 429.333 491.58
 429.332 491.58 396.747 491.58 71.5079 491.58 429.279 491.58 429.365
 491.58 311.144 491.58 429.268 491.58 347.491 491.58 426.902 491.58
 429.367 491.58 361.784 493.589 429.34 493.589 429.339 493.589
 392.983 493.589 67.3496 493.589 429.296 493.589 429.366 493.589
 302.008 493.589 429.287 493.589 340.157 493.589 427.266 493.589
 429.368 493.589 355.334 495.598 429.346 495.598 429.345 495.598
 388.886 495.598 64.062 495.598 429.31 495.598 429.367 495.598 292.51
 495.598 429.302 495.598 332.41 495.598 427.581 495.598 429.368
 495.598 348.472 497.608 429.35 497.608 429.35 497.608 384.442
 497.608 61.6695 497.608 429.321 497.608 429.367 497.608 282.673
 497.608 429.315 497.608 324.255 497.608 427.853 497.608 429.368
 497.608 341.195 499.617 429.354 499.617 429.354 499.617 379.634
 499.617 60.1902 499.617 429.33 499.617 429.367 499.617 272.523
 499.617 429.325 499.617 315.7 499.617 428.087 499.617 429.368
 499.617 333.505 501.626 429.357 501.626 429.357 501.626 374.45
 501.626 59.635 501.626 429.338 501.626 429.368 501.626 262.092
 501.626 429.333 501.626 306.758 501.626 428.287 501.626 429.368
 501.626 325.407 503.636 429.359 503.636 429.359 503.636 368.878
 503.636 60.0082 503.636 429.344 503.636 429.368 503.636 251.415
 503.636 429.34 503.636 297.444 503.636 428.459 503.636 429.368
 503.636 316.906 505.645 429.361 505.645 429.361 505.645 362.908
 505.645 61.3069 505.645 429.349 505.645 429.368 505.645 240.531
 505.645 429.346 505.645 287.778 505.645 428.605 505.645 429.369
 505.645 308.016 507.655 429.363 507.655 429.363 507.655 356.532
 507.655 63.5215 507.655 429.353 507.655 429.368 507.655 229.484
 507.655 429.35 507.655 277.785 507.655 428.729 507.655 429.369
 507.655 298.752 509.664 429.364 509.664 429.364 509.664 349.745
 509.664 66.6353 509.664 429.356 509.664 429.368 509.664 218.323
 509.664 429.354 509.664 267.495 509.664 428.834 509.664 429.369
 509.664 289.134 511.673 429.365 511.673 429.365 511.673 342.544
 511.673 70.625 511.673 429.359 511.673 429.368 511.673 207.097
 511.673 429.357 511.673 256.94 511.673 428.924 511.673 429.369
 511.673 279.185 513.683 429.366 513.683 429.366 513.683 334.928
 513.683 75.4612 513.683 429.361 513.683 429.369 513.683 195.861
 513.683 429.359 513.683 246.157 513.683 428.999 513.683 429.369
 513.683 268.934 515.692 429.367 515.692 429.366 515.692 326.903
 515.692 81.1083 515.692 429.362 515.692 429.369 515.692 184.673
 515.692 429.361 515.692 235.188 515.692 429.062 515.692 429.369
 515.692 258.413 517.701 429.367 517.701 429.367 517.701 318.475
 517.701 87.5253 517.701 429.364 517.701 429.369 517.701 173.592
 517.701 429.363 517.701 224.08 517.701 429.115 517.701 429.369
 517.701 247.659 519.711 429.367 519.711 429.367 519.711 309.654
 519.711 94.6661 519.711 429.365 519.711 429.369 519.711 162.681
 519.711 429.364 519.711 212.88 519.711 429.16 519.711 429.369
 519.711 236.714 521.72 429.368 521.72 429.368 521.72 300.457 521.72
 102.48 521.72 429.366 521.72 429.369 521.72 152.002 521.72 429.365
 521.72 201.643 521.72 429.197 521.72 429.369 521.72 225.622 523.729
 429.368 523.729 429.368 523.729 290.901 523.729 110.913 523.729
 429.366 523.729 429.369 523.729 141.619 523.729 429.366 523.729
 190.423 523.729 429.227 523.729 429.369 523.729 214.432 525.739
 429.368 525.739 429.368 525.739 281.01 525.739 119.906 525.739
 429.367 525.739 429.369 525.739 131.597 525.739 429.367 525.739
 179.279 525.739 429.253 525.739 429.369 525.739 203.196 527.748
 429.368 527.748 429.368 527.748 270.811 527.748 129.401 527.748
 429.367 527.748 429.369 527.748 121.998 527.748 429.367 527.748
 168.273 527.748 429.274 527.748 429.369 527.748 191.97 529.758
 429.368 529.758 429.368 529.758 260.336 529.758 139.333 529.758
 429.368 529.758 429.369 529.758 112.887 529.758 429.367 529.758
 157.466 529.758 429.292 529.758 429.369 529.758 180.813 531.767
 429.368 531.767 429.368 531.767 249.622 531.767 149.641 531.767
 429.368 531.767 429.369 531.767 104.323 531.767 429.368 531.767
 146.923 531.767 429.306 531.767 429.369 531.767 169.784 533.776
 429.369 533.776 429.369 533.776 238.708 533.776 160.259 533.776
 429.368 533.776 429.369 533.776 96.3651 533.776 429.368 533.776
 136.707 533.776 429.318 533.776 429.369 533.776 158.946 535.786
 429.369 535.786 429.369 535.786 227.639 535.786 171.124 535.786
 429.368 535.786 429.369 535.786 89.0685 535.786 429.368 535.786
 126.882 535.786 429.328 535.786 429.369 535.786 148.362 537.795
 429.369 537.795 429.369 537.795 216.463 537.795 182.172 537.795
 429.368 537.795 429.369 537.795 82.4847 537.795 429.368 537.795
 117.513 537.795 429.336 537.795 429.369 537.795 138.097 539.804
 429.369 539.804 429.369 539.804 205.232 539.804 193.341 539.804
 429.368 539.804 429.369 539.804 76.6609 539.804 429.368 539.804
 108.659 539.804 429.342 539.804 429.369 539.804 128.215 541.814
 429.369 541.814 429.369 541.814 194 541.814 204.571 541.814 429.369
 541.814 429.369 541.814 71.6392 541.814 429.368 541.814 100.383
 541.814 429.347 541.814 429.369 541.814 118.778 543.823 429.369
 543.823 429.369 543.823 182.826 543.823 215.804 543.823 429.369
 543.823 429.369 543.823 67.4564 543.823 429.369 543.823 92.7388
 543.823 429.352 543.823 429.369 543.823 109.85 545.833 429.369
 545.833 429.369 545.833 171.769 545.833 226.985 545.833 429.369
 545.833 429.369 545.833 64.1436 545.833 429.369 545.833 85.7819
 545.833 429.355 545.833 429.369 545.833 101.49 547.842 429.369
 547.842 429.369 547.842 160.891 547.842 238.061 547.842 429.369
 547.842 429.369 547.842 61.7253 547.842 429.369 547.842 79.5613
 547.842 429.358 547.842 429.369 547.842 93.7556 549.851 429.369
 549.851 429.369 549.851 150.257 549.851 248.986 549.851 429.369
 549.851 429.369 549.851 60.2196 549.851 429.369 549.851 74.1217
 549.851 429.36 549.851 429.369 549.851 86.7007 551.861 429.369
 551.861 429.369 551.861 139.93 551.861 259.713 551.861 429.369
 551.861 429.369 551.861 59.638 551.861 429.369 551.861 69.5028
 551.861 429.362 551.861 429.369 551.861 80.3755 553.87 429.369
 553.87 429.369 553.87 129.973 553.87 270.203 553.87 429.369 553.87
 429.369 553.87 59.9847 553.87 429.369 553.87 65.7387 553.87 429.363
 553.87 429.369 553.87 74.8255 555.879 429.369 555.879 429.369
 555.879 120.451 555.879 280.418 555.879 429.369 555.879 429.369
 555.879 61.2571 555.879 429.369 555.879 62.8572 555.879 429.364
 555.879 429.369 555.879 70.091 557.889 429.369 557.889 429.369
 557.889 111.426 557.889 290.328 557.889 429.369 557.889 429.369
 557.889 63.4457 557.889 429.369 557.889 60.8799 557.889 429.365
 557.889 429.369 557.889 66.2069 559.898 429.369 559.898 429.369
 559.898 102.959 559.898 299.905 559.898 429.369 559.898 429.369
 559.898 66.534 559.898 429.369 559.898 59.8216 559.898 429.366
 559.898 429.369 559.898 63.202 561.907 429.369 561.907 429.369
 561.907 95.1073 561.907 309.124 561.907 429.369 561.907 429.369
 561.907 70.4991 561.907 429.369 561.907 59.6903 561.907 429.367
 561.907 429.369 561.907 61.0987 563.917 429.369 563.917 429.369
 563.917 87.9255 563.917 317.967 563.917 429.369 563.917 429.369
 563.917 75.3116 563.917 429.369 563.917 60.4869 563.917 429.367
 563.917 429.369 563.917 59.9128 565.926 429.369 565.926 429.369
 565.926 81.4647 565.926 326.419 565.926 429.369 565.926 429.369
 565.926 80.9361 565.926 429.369 565.926 62.2055 565.926 429.368
 565.926 429.369 565.926 59.6531 567.936 429.369 567.936 429.369
 567.936 75.7711 567.936 334.468 567.936 429.369 567.936 429.369
 567.936 87.3317 567.936 429.369 567.936 64.8331 567.936 429.368
 567.936 429.369 567.936 60.3216 569.945 429.369 569.945 429.369
 569.945 70.8862 569.945 342.107 569.945 429.369 569.945 429.369
 569.945 94.4525 569.945 429.369 569.945 68.3501 569.945 429.368
 569.945 429.369 569.945 61.9134 571.954 429.369 571.954 429.369
 571.954 66.8458 571.954 349.333 571.954 429.369 571.954 429.369
 571.954 102.248 571.954 429.369 571.954 72.7305 571.954 429.368
 571.954 429.369 571.954 64.4164 573.964 429.369 573.964 429.369
 573.964 63.6799 573.964 356.145 573.964 429.369 573.964 429.369
 573.964 110.664 573.964 429.369 573.964 77.9417 573.964 429.368
 573.964 429.369 573.964 67.8119 575.973 429.369 575.973 429.369
 575.973 61.4119 575.973 362.545 575.973 429.369 575.973 429.369
 575.973 119.642 575.973 429.369 575.973 83.9458 575.973 429.368
 575.973 429.369 575.973 72.0747 577.982 429.369 577.982 429.369
 577.982 60.059 577.982 368.538 577.982 429.369 577.982 429.369
 577.982 129.123 577.982 429.369 577.982 90.6993 577.982 429.368
 577.982 429.369 577.982 77.1733 579.992 429.369 579.992 429.369
 579.992 59.6313 579.992 374.134 579.992 429.369 579.992 429.369
 579.992 139.044 579.992 429.369 579.992 98.154 579.992 429.369
 579.992 429.369 579.992 83.0702 582.001 429.369 582.001 429.369
 582.001 60.1319 582.001 379.34 582.001 429.369 582.001 429.369
 582.001 149.342 582.001 429.369 582.001 106.257 582.001 429.369
 582.001 429.369 582.001 89.7229 584.011 429.369 584.011 429.369
 584.011 61.5572 584.011 384.169 584.011 429.369 584.011 429.369
 584.011 159.952 584.011 429.369 584.011 114.954 584.011 429.369
 584.011 429.369 584.011 97.0837 586.02 429.369 586.02 429.369 586.02
 63.8964 586.02 388.635 586.02 429.369 586.02 429.369 586.02 170.811
 586.02 429.369 586.02 124.184 586.02 429.369 586.02 429.369 586.02
 105.101 588.029 429.369 588.029 429.369 588.029 67.132 588.029
 392.751 588.029 429.369 588.029 429.369 588.029 181.854 588.029
 429.369 588.029 133.886 588.029 429.369 588.029 429.369 588.029
 113.718 590.039 429.369 590.039 429.369 590.039 71.2398 590.039
 396.534 590.039 429.369 590.039 429.369 590.039 193.021 590.039
 429.369 590.039 143.998 590.039 429.369 590.039 429.369 590.039
 122.878 592.048 429.369 592.048 429.369 592.048 76.1897 592.048 400
 592.048 429.369 592.048 429.369 592.048 204.25 592.048 429.369
 592.048 154.455 592.048 429.369 592.048 429.369 592.048 132.519
 594.057 429.369 594.057 429.369 594.057 81.9451 594.057 403.167
 594.057 429.369 594.057 429.369 594.057 215.483 594.057 429.369
 594.057 165.194 594.057 429.369 594.057 429.369 594.057 142.578
 596.067 429.369 596.067 429.369 596.067 88.4643 596.067 406.05
 596.067 429.369 596.067 429.369 596.067 226.666 596.067 429.369
 596.067 176.15 596.067 429.369 596.067 429.369 596.067 152.991
 598.076 429.369 598.076 429.369 598.076 95.7006 598.076 408.668
 598.076 429.369 598.076 429.369 598.076 237.747 598.076 429.369
 598.076 187.261 598.076 429.369 598.076 429.369 598.076 163.695
 600.085 429.369 600.085 429.369 600.085 103.603 600.085 411.039
 600.085 429.369 600.085 429.369 600.085 248.676 600.085 429.369
 600.085 198.465 600.085 429.369 600.085 429.369 600.085 174.625
 602.095 429.369 602.095 429.369 602.095 112.116 602.095 413.178
 602.095 429.369 602.095 429.369 602.095 259.41 602.095 429.369
 602.095 209.703 602.095 429.369 602.095 429.369 602.095 185.718
 604.104 429.369 604.104 429.369 604.104 121.182 604.104 415.104
 604.104 429.369 604.104 429.369 604.104 269.907 604.104 429.369
 604.104 220.919 604.104 429.369 604.104 429.369 604.104 196.913
 606.114 429.369 606.114 429.369 606.114 130.74 606.114 416.832
 606.114 429.369 606.114 429.369 606.114 280.131 606.114 429.369
 606.114 232.059 606.114 429.369 606.114 429.369 606.114 208.15
 608.123 429.369 608.123 429.369 608.123 140.728 608.123 418.379
 608.123 429.369 608.123 429.369 608.123 290.05 608.123 429.369
 608.123 243.072 608.123 429.369 608.123 429.369 608.123 219.372
 610.132 429.369 610.132 429.369 610.132 151.082 610.132 419.759
 610.132 429.369 610.132 429.369 610.132 299.636 610.132 429.369
 610.132 253.911 610.132 429.369 610.132 429.369 610.132 230.525
 612.142 429.369 612.142 429.369 612.142 161.738 612.142 420.987
 612.142 429.369 612.142 429.369 612.142 308.866 612.142 429.369
 612.142 264.535 612.142 429.369 612.142 429.369 612.142 241.559
 614.151 429.369 614.151 429.369 614.151 172.632 614.151 422.076
 614.151 429.369 614.151 429.369 614.151 317.72 614.151 429.369
 614.151 274.904 614.151 429.369 614.151 429.369 614.151 252.425
 616.16 429.369 616.16 429.369 616.16 183.7 616.16 423.039 616.16
 429.369 616.16 429.369 616.16 326.183 616.16 429.369 616.16 284.984
 616.16 429.369 616.16 429.369 616.16 263.081 618.17 429.369 618.17
 429.369 618.17 194.881 618.17 423.889 618.17 429.369 618.17 429.369
 618.17 334.244 618.17 429.369 618.17 294.744 618.17 429.369 618.17
 429.369 618.17 273.487 620.179 429.369 620.179 429.369 620.179
 206.115 620.179 424.637 620.179 429.369 620.179 429.369 620.179
 341.895 620.179 429.369 620.179 304.16 620.179 429.369 620.179
 429.369 620.179 283.609 622.188 429.369 622.188 429.369 622.188
 217.344 622.188 425.293 622.188 429.369 622.188 429.369 622.188
 349.132 622.188 429.369 622.188 313.21 622.188 429.369 622.188
 429.369 622.188 293.415 624.198 429.369 624.198 429.369 624.198
 228.513 624.198 425.867 624.198 429.369 624.198 429.369 624.198
 355.956 624.198 429.369 624.198 321.876 624.198 429.369 624.198
 429.369 624.198 302.88 626.207 429.369 626.207 429.369 626.207
 239.572 626.207 426.368 626.207 429.369 626.207 429.369 626.207
 362.368 626.207 429.369 626.207 330.145 626.207 429.369 626.207
 429.369 626.207 311.982 628.217 429.369 628.217 429.369 628.217
 250.472 628.217 426.803 628.217 429.369 628.217 429.369 628.217
 368.373 628.217 429.369 628.217 338.008 628.217 429.369 628.217
 429.369 628.217 320.701 630.226 429.369 630.226 429.369 630.226
 261.169 630.226 427.181 630.226 429.369 630.226 429.369 630.226
 373.979 630.226 429.369 630.226 345.458 630.226 429.369 630.226
 429.369 630.226 329.026 632.235 429.369 632.235 429.369 632.235
 271.623 632.235 427.508 632.235 429.369 632.235 429.369 632.235
 379.196 632.235 429.369 632.235 352.495 632.235 429.369 632.235
 429.369 632.235 336.945 634.245 429.369 634.245 429.369 634.245
 281.798 634.245 427.79 634.245 429.369 634.245 429.369 634.245
 384.036 634.245 429.369 634.245 359.118 634.245 429.369 634.245
 429.369 634.245 344.453 636.254 429.369 636.254 429.369 636.254
 291.664 636.254 428.032 636.254 429.369 636.254 429.369 636.254
 388.512 636.254 429.369 636.254 365.332 636.254 429.369 636.254
 429.369 636.254 351.547 638.263 429.369 638.263 429.369 638.263
 301.193 638.263 428.241 638.263 429.369 638.263 429.369 638.263
 392.638 638.263 429.369 638.263 371.142 638.263 429.369 638.263
 429.369 638.263 358.227 640.273 429.369 640.273 429.369 640.273
 310.361 640.273 428.419 640.273 429.369 640.273 429.369 640.273
 396.431 640.273 429.369 640.273 376.559 640.273 429.369 640.273
 429.369 640.273 364.497 642.282 429.369 642.282 429.369 642.282
 319.151 642.282 428.571 642.282 429.369 642.282 429.369 642.282
 399.906 642.282 429.369 642.282 381.591 642.282 429.369 642.282
 429.369 642.282 370.363 644.292 429.369 644.292 429.369 644.292
 327.548 644.292 428.7 644.292 429.369 644.292 429.369 644.292 403.08
 644.292 429.369 644.292 386.253 644.292 429.369 644.292 429.369
 644.292 375.833 646.301 429.369 646.301 429.369 646.301 335.542
 646.301 428.81 646.301 429.369 646.301 429.369 646.301 405.971
 646.301 429.369 646.301 390.557 646.301 429.369 646.301 429.369
 646.301 380.918 648.31 429.369 648.31 429.369 648.31 343.124 648.31
 428.903 648.31 429.369 648.31 429.369 648.31 408.597 648.31 429.369
 648.31 394.519 648.31 429.369 648.31 429.369 648.31 385.63 650.32
 429.369 650.32 429.369 650.32 350.293 650.32 428.981 650.32 429.369
 650.32 429.369 650.32 410.974 650.32 429.369 650.32 398.155 650.32
 429.369 650.32 429.369 650.32 389.983 652.329 429.369 652.329
 429.369 652.329 357.048 652.329 429.047 652.329 429.369 652.329
 429.369 652.329 413.12 652.329 429.369 652.329 401.482 652.329
 429.369 652.329 429.369 652.329 393.991 654.338 429.369 654.338
 429.369 654.338 363.392 654.338 429.103 654.338 429.369 654.338
 429.369 654.338 415.052 654.338 429.369 654.338 404.517 654.338
 429.369 654.338 429.369 654.338 397.672 656.348 429.369 656.348
 429.369 656.348 369.33 656.348 429.149 656.348 429.369 656.348
 429.369 656.348 416.786 656.348 429.369 656.348 407.278 656.348
 429.369 656.348 429.369 656.348 401.04 658.357 429.369 658.357
 429.369 658.357 374.871 658.357 429.188 658.357 429.369 658.357
 429.369 658.357 418.337 658.357 429.369 658.357 409.78 658.357
 429.369 658.357 429.369 658.357 404.115 660.366 429.369 660.366
 429.369 660.366 380.025 660.366 429.22 660.366 429.369 660.366
 429.369 660.366 419.722 660.366 429.369 660.366 412.043 660.366
 429.369 660.366 429.369 660.366 406.912 662.376 429.369 662.376
 429.369 662.376 384.804 662.376 429.247 662.376 429.369 662.376
 429.369 662.376 420.953 662.376 429.369 662.376 414.083 662.376
 429.369 662.376 429.369 662.376 409.449 664.385 429.369 664.385
 429.369 664.385 389.22 664.385 429.269 664.385 429.369 664.385
 429.369 664.385 422.046 664.385 429.369 664.385 415.917 664.385
 429.369 664.385 429.369 664.385 411.744 666.395 429.369 666.395
 429.369 666.395 393.29 666.395 429.288 666.395 429.369 666.395
 429.369 666.395 423.014 666.395 429.369 666.395 417.56 666.395
 429.369 666.395 429.369 666.395 413.814 668.404 429.369 668.404
 429.369 668.404 397.029 668.404 429.303 668.404 429.369 668.404
 429.369 668.404 423.867 668.404 429.369 668.404 419.029 668.404
 429.369 668.404 429.369 668.404 415.675 670.413 429.369 670.413
 429.369 670.413 400.453 670.413 429.315 670.413 429.369 670.413
 429.369 670.413 424.617 670.413 429.369 670.413 420.338 670.413
 429.369 670.413 429.369 670.413 417.344 672.423 429.369 672.423
 429.369 672.423 403.579 672.423 429.326 672.423 429.369 672.423
 429.369 672.423 425.276 672.423 429.369 672.423 421.5 672.423
 429.369 672.423 429.369 672.423 418.836 674.432 429.369 674.432
 429.369 674.432 406.425 674.432 429.334 674.432 429.369 674.432
 429.369 674.432 425.852 674.432 429.369 674.432 422.531 674.432
 429.369 674.432 429.369 674.432 420.166 676.441 429.369 676.441
 429.369 676.441 409.008 676.441 429.341 676.441 429.369 676.441
 429.369 676.441 426.354 676.441 429.369 676.441 423.441 676.441
 429.369 676.441 429.369 676.441 421.348 678.451 429.369 678.451
 429.369 678.451 411.346 678.451 429.346 678.451 429.369 678.451
 429.369 678.451 426.792 678.451 429.369 678.451 424.243 678.451
 429.369 678.451 429.369 678.451 422.396 680.46 429.369 680.46
 429.369 680.46 413.455 680.46 429.351 680.46 429.369 680.46 429.369
 680.46 427.171 680.46 429.369 680.46 424.948 680.46 429.369 680.46
 429.369 680.46 423.322 682.47 429.369 682.47 429.369 682.47 415.353
 682.47 429.354 682.47 429.369 682.47 429.369 682.47 427.499 682.47
 429.369 682.47 425.565 682.47 429.369 682.47 429.369 682.47 424.138
 684.479 429.369 684.479 429.369 684.479 417.055 684.479 429.357
 684.479 429.369 684.479 429.369 684.479 427.782 684.479 429.369
 684.479 426.104 684.479 429.369 684.479 429.369 684.479 424.856
 686.488 429.369 686.488 429.369 686.488 418.578 686.488 429.36
 686.488 429.369 686.488 429.369 686.488 428.026 686.488 429.369
 686.488 426.574 686.488 429.369 686.488 429.369 686.488 425.485
 688.498 429.369 688.498 429.369 688.498 419.936 688.498 429.362
 688.498 429.369 688.498 429.369 688.498 428.235 688.498 429.369
 688.498 426.982 688.498 429.369 688.498 429.369 688.498 426.034
 690.507 429.369 690.507 429.369 690.507 421.144 690.507 429.363
 690.507 429.369 690.507 429.369 690.507 428.414 690.507 429.369
 690.507 427.336 690.507 429.369 690.507 429.369 690.507 426.513
 692.516 429.369 692.516 429.369 692.516 422.215 692.516 429.364
 692.516 429.369 692.516 429.369 692.516 428.567 692.516 429.369
 692.516 427.642 692.516 429.369 692.516 429.369 692.516 426.929
 694.526 429.369 694.526 429.369 694.526 423.163 694.526 429.365
 694.526 429.369 694.526 429.369 694.526 428.697 694.526 429.369
 694.526 427.905 694.526 429.369 694.526 429.369 694.526 427.29
 696.535 429.369 696.535 429.369 696.535 423.998 696.535 429.366
 696.535 429.369 696.535 429.369 696.535 428.807 696.535 429.369
 696.535 428.132 696.535 429.369 696.535 429.369 696.535 427.602
 698.544 429.369 698.544 429.369 698.544 424.733 698.544 429.367
 698.544 429.369 698.544 429.369 698.544 428.9 698.544 429.369
 698.544 428.325 698.544 429.369 698.544 429.369 698.544 427.871
 700.554 429.369 700.554 429.369 700.554 425.377 700.554 429.367
 700.554 429.369 700.554 429.369 700.554 428.979 700.554 429.369
 700.554 428.491 700.554 429.369 700.554 429.369 700.554 428.102
 702.563 429.369 702.563 429.369 702.563 425.94 702.563 429.367
 702.563 429.369 702.563 429.369 702.563 429.046 702.563 429.369
 702.563 428.632 702.563 429.369 702.563 429.369 702.563 428.3
 704.573 429.369 704.573 429.369 704.573 426.431 704.573 429.368
 704.573 429.369 704.573 429.369 704.573 429.101 704.573 429.369
 704.573 428.753 704.573 429.369 704.573 429.369 704.573 428.47
 706.582 429.369 706.582 429.369 706.582 426.858 706.582 429.368
 706.582 429.369 706.582 429.369 706.582 429.148 706.582 429.369
 706.582 428.854 706.582 429.369 706.582 429.369 706.582 428.614
 708.591 429.369 708.591 429.369 708.591 427.229 708.591 429.368
 708.591 429.369 708.591 429.369 708.591 429.187 708.591 429.369
 708.591 428.94 708.591 429.369 708.591 429.369 708.591 428.737
 710.601 429.369 710.601 429.369 710.601 427.549 710.601 429.368
 710.601 429.369 710.601 429.369 710.601 429.22 710.601 429.369
 710.601 429.013 710.601 429.369 710.601 429.369 710.601 428.841
 712.61 429.369 712.61 429.369 712.61 427.825 712.61 429.368 712.61
 429.369 712.61 429.369 712.61 429.247 712.61 429.369 712.61 429.074
 712.61 429.369 712.61 429.369 712.61 428.929 714.619 429.369 714.619
 429.369 714.619 428.063 714.619 429.368 714.619 429.369 714.619
 429.369 714.619 429.269 714.619 429.369 714.619 429.125 714.619
 429.369 714.619 429.369 714.619 429.004 716.629 429.369 716.629
 429.369 716.629 428.267 716.629 429.369 716.629 429.369 716.629
 429.369 716.629 429.287 716.629 429.369 716.629 429.168 716.629
 429.369 716.629 429.369 716.629 429.066 718.638 429.369 718.638
 429.369 718.638 428.441 718.638 429.369 718.638 429.369 718.638
 429.369 718.638 429.303 718.638 429.369 718.638 429.204 718.638
 429.369 718.638 429.369 718.638 429.119 720.647 429.369 720.647
 429.369 720.647 428.59 720.647 429.369 720.647 429.369 720.647
 429.369 720.647 429.315 720.647 429.369 720.647 429.233 720.647
 429.369 720.647 429.369 720.647 429.162 722.657 429.369 722.657
 429.369 722.657 428.716 722.657 429.369 722.657 429.369 722.657
 429.369 722.657 429.325 722.657 429.369 722.657 429.258 722.657
 429.369 722.657 429.369 722.657 429.199 724.666 429.369 724.666
 429.369 724.666 428.824 724.666 429.369 724.666 429.369 724.666
 429.369 724.666 429.334 724.666 429.369 724.666 429.278 724.666
 429.369 724.666 429.369 724.666 429.229 726.676 429.369 726.676
 429.369 726.676 428.914 726.676 429.369 726.676 429.369 726.676
 429.369 726.676 429.341 726.676 429.369 726.676 429.295 726.676
 429.369 726.676 429.369 726.676 429.255 728.685 429.369 728.685
 429.369 728.685 428.991 728.685 429.369 728.685 429.369 728.685
 429.369 728.685 429.346 728.685 429.369 728.685 429.309 728.685
 429.369 728.685 429.369 728.685 429.276 730.694 429.369 730.694
 429.369 730.694 429.056 730.694 429.369 730.694 429.369 730.694
 429.369 730.694 429.351 730.694 429.369 730.694 429.32 730.694
 429.369 730.694 429.369 730.694 429.293 732.704 429.369 732.704
 429.369 732.704 429.11 732.704 429.369 732.704 429.369 732.704
 429.369 732.704 429.354 732.704 429.369 732.704 429.33 732.704
 429.369 732.704 429.369 732.704 429.307 734.713 429.369 734.713
 429.369 734.713 429.155 734.713 429.369 734.713 429.369 734.713
 429.369 734.713 429.357 734.713 429.369 734.713 429.337 734.713
 429.369 734.713 429.369 734.713 429.319 736.722 429.369 736.722
 429.369 736.722 429.193 736.722 429.369 736.722 429.369 736.722
 429.369 736.722 429.36 736.722 429.369 736.722 429.343 736.722
 429.369 736.722 429.369 736.722 429.328 738.732 429.369 738.732
 429.369 738.732 429.224 738.732 429.369 738.732 429.369 738.732
 429.369 738.732 429.361 738.732 429.369 738.732 429.348 738.732
 429.369 738.732 429.369 738.732 429.336 740.741 429.369 740.741
 429.369 740.741 429.251 740.741 429.369 740.741 429.369 740.741
 429.369 740.741 429.363 740.741 429.369 740.741 429.352 740.741
 429.369 740.741 429.369 740.741 429.343 742.751 429.369 742.751
 429.369 742.751 429.272 742.751 429.369 742.751 429.369 742.751
 429.369 742.751 429.364 742.751 429.369 742.751 429.356 742.751
 429.369 742.751 429.369 742.751 429.348 744.76 429.369 744.76
 429.369 744.76 429.29 744.76 429.369 744.76 429.369 744.76 429.369
 744.76 429.365 744.76 429.369 744.76 429.358 744.76 429.369 744.76
 429.369 744.76 429.352 746.769 429.369 746.769 429.369 746.769
 429.305 746.769 429.369 746.769 429.369 746.769 429.369 746.769
 429.366 746.769 429.369 746.769 429.361 746.769 429.369 746.769
 429.369 746.769 429.355 748.779 429.369 748.779 429.369 748.779
 429.317 748.779 429.369 748.779 429.369 748.779 429.369 748.779
 429.367 748.779 429.369 748.779 429.362 748.779 429.369 748.779
 429.369 748.779 429.358 750.788 429.369 750.788 429.369 750.788
 429.327 750.788 429.369 750.788 429.369 750.788 429.369 750.788
 429.367 750.788 429.369 750.788 429.364 750.788 429.369 750.788
 429.369 750.788 429.36 752.797 429.369 752.797 429.369 752.797
 429.335 752.797 429.369 752.797 429.369 752.797 429.369 752.797
 429.367 752.797 429.369 752.797 429.365 752.797 429.369 752.797
 429.369 752.797 429.362 754.807 429.369 754.807 429.369 754.807
 429.342 754.807 429.369 754.807 429.369 754.807 429.369 754.807
 429.368 754.807 429.369 754.807 429.366 754.807 429.369 754.807
 429.369 754.807 429.363 756.816 429.369 756.816 429.369 756.816
 429.347 756.816 429.369 756.816 429.369 756.816 429.369 756.816
 429.368 756.816 429.369 756.816 429.366 756.816 429.369 756.816
 429.369 756.816 429.365 758.825 429.369 758.825 429.369 758.825
 429.351 758.825 429.369 758.825 429.369 758.825 429.369 758.825
 429.368 758.825 429.369 758.825 429.367 758.825 429.369 758.825
 429.369 758.825 429.365 760.835 429.369 760.835 429.369 760.835
 429.355 760.835 429.369 760.835 429.369 760.835 429.369 760.835
 429.368 760.835 429.369 760.835 429.367 760.835 429.369 760.835
 429.369 760.835 429.366 762.844 429.369 762.844 429.369 762.844
 429.358 762.844 429.369 762.844 429.369 762.844 429.369 762.844
 429.368 762.844 429.369 762.844 429.368 762.844 429.369 762.844
 429.369 762.844 429.367 764.854 429.369 764.854 429.369 764.854
 429.36 764.854 429.369 764.854 429.369 764.854 429.369 764.854
 429.368 764.854 429.369 764.854 429.368 764.854 429.369 764.854
 429.369 764.854 429.367 766.863 429.369 766.863 429.369 766.863
 429.362 766.863 429.369 766.863 429.369 766.863 429.369 766.863
 429.369 766.863 429.369 766.863 429.368 766.863 429.369 766.863
 429.369 766.863 429.368 768.872 429.369 768.872 429.369 768.872
 429.363 768.872 429.369 768.872 429.369 768.872 429.369 768.872
 429.369 768.872 429.369 768.872 429.368 768.872 429.369 768.872
 429.369 768.872 429.368 770.882 429.369 770.882 429.369 770.882
 429.364 770.882 429.369 770.882 429.369 770.882 429.369 770.882
 429.369 770.882 429.369 770.882 429.368 770.882 429.369 770.882
 429.369 770.882 429.368 772.891 429.369 772.891 429.369 772.891
 429.365 772.891 429.369 772.891 429.369 772.891 429.369 772.891
 429.369 772.891 429.369 772.891 429.368 772.891 429.369 772.891
 429.369 772.891 429.368 774.9 429.369 774.9 429.369 774.9 429.366
 774.9 429.369 774.9 429.369 774.9 429.369 774.9 429.369 774.9
 429.369 774.9 429.369 774.9 429.369 774.9 429.369 774.9 429.368
 776.91 429.369 776.91 429.369 776.91 429.367 776.91 429.369 776.91
 429.369 776.91 429.369 776.91 429.369 776.91 429.369 776.91 429.369
 776.91 429.369 776.91 429.369 776.91 429.368 778.919 429.369 778.919
 429.369 778.919 429.367 778.919 429.369 778.919 429.369 778.919
 429.369 778.919 429.369 778.919 429.369 778.919 429.369 778.919
 429.369 778.919 429.369 778.919 429.368 780.928 429.369 780.928
 429.369 780.928 429.367 780.928 429.369 780.928 429.369 780.928
 429.369 780.928 429.369 780.928 429.369 780.928 429.369 780.928
 429.369 780.928 429.369 780.928 429.369 782.938 429.369 782.938
 429.369 782.938 429.368 782.938 429.369 782.938 429.369 782.938
 429.369 782.938 429.369 782.938 429.369 782.938 429.369 782.938
 429.369 782.938 429.369 782.938 429.369 784.947 429.369 784.947
 429.369 784.947 429.368 784.947 429.369 784.947 429.369 784.947
 429.369 784.947 429.369 784.947 429.369 784.947 429.369 784.947
 429.369 784.947 429.369 784.947 429.369 786.957 429.369 786.957
 429.369 786.957 429.368 786.957 429.369 786.957 429.369 786.957
 429.369 786.957 429.369 786.957 429.369 786.957 429.369 786.957
 429.369 786.957 429.369 786.957 429.369 788.966 429.369 788.966
 429.369 788.966 429.368 788.966 429.369 788.966 429.369 788.966
 429.369 788.966 429.369 788.966 429.369 788.966 429.369 788.966
 429.369 788.966 429.369 788.966 429.369 790.975 429.369 790.975
 429.369 790.975 429.368 790.975 429.369 790.975 429.369 790.975
 429.369 790.975 429.369 790.975 429.369 790.975 429.369 790.975
 429.369 790.975 429.369 790.975 429.369 792.985 429.369 792.985
 429.369 792.985 429.368 792.985 429.369 792.985 429.369 792.985
 429.369 792.985 429.369 792.985 429.369 792.985 429.369 792.985
 429.369 792.985 429.369 792.985 429.369 794.994 429.369 794.994
 429.369 794.994 429.369 794.994 429.369 794.994 429.369 794.994
 429.369 794.994 429.369 794.994 429.369 794.994 429.369 794.994
 429.369 794.994 429.369 794.994 429.369 797.003 429.369 797.003
 429.369 797.003 429.369 797.003 429.369 797.003 429.369 797.003
 429.369 797.003 429.369 797.003 429.369 797.003 429.369 797.003
 429.369 797.003 429.369 797.003 429.369 799.013 429.369 799.013
 429.369 799.013 429.369 799.013 429.369 799.013 429.369 799.013
 429.369 799.013 429.369 799.013 429.369 799.013 429.369 799.013
 429.369 799.013 429.369 799.013 429.369 801.022 429.369 801.022
 429.369 801.022 429.369 801.022 429.369 801.022 429.369 801.022
 429.369 801.022 429.369 801.022 429.369 801.022 429.369 801.022
 429.369 801.022 429.369 801.022 429.369 803.032 429.369 803.032
 429.369 803.032 429.369 803.032 429.369 803.032 429.369 803.032
 429.369 803.032 429.369 803.032 429.369 803.032 429.369 803.032
 429.369 803.032 429.369 803.032 429.369 805.041 429.369 805.041
 429.369 805.041 429.369 805.041 429.369 805.041 429.369 805.041
 429.369 805.041 429.369 805.041 429.369 805.041 429.369 805.041
 429.369 805.041 429.369 805.041 429.369 807.05 429.369 807.05
 429.369 807.05 429.369 807.05 429.369 807.05 429.369 807.05 429.369
 807.05 429.369 807.05 429.369 807.05 429.369 807.05 429.369 807.05
 429.369 807.05 429.369 809.06 429.369 809.06 429.369 809.06 429.369
 809.06 429.369 809.06 429.369 809.06 429.369 809.06 429.369 809.06
 429.369 809.06 429.369 809.06 429.369 809.06 429.369 809.06 429.369
 811.069 429.369 811.069 429.369 811.069 429.369 811.069 429.369
 811.069 429.369 811.069 429.369 811.069 429.369 811.069 429.369
 811.069 429.369 811.069 429.369 811.069 429.369 811.069 429.369
 813.078 429.369 813.078 429.369 813.078 429.369 813.078 429.369
 813.078 429.369 813.078 429.369 813.078 429.369 813.078 429.369
 813.078 429.369 813.078 429.369 813.078 429.369 813.078 429.369
 815.088 429.369 815.088 429.369 815.088 429.369 815.088 429.369
 815.088 429.369 815.088 429.369 815.088 429.369 815.088 429.369
 815.088 429.369 815.088 429.369 815.088 429.369 815.088 429.369
 817.097 429.369 817.097 429.369 817.097 429.369 817.097 429.369
 817.097 429.369 817.097 429.369 817.097 429.369 817.097 429.369
 817.097 429.369 817.097 429.369 817.097 429.369 817.097 429.369
 819.106 429.369 819.106 429.369 819.106 429.369 819.106 429.369
 819.106 429.369 819.106 429.369 819.106 429.369 819.106 429.369
 819.106 429.369 819.106 429.369 819.106 429.369 819.106 429.369
 821.116 429.369 821.116 429.369 821.116 429.369 821.116 429.369
 821.116 429.369 821.116 429.369 821.116 429.369 821.116 429.369
 821.116 429.369 821.116 429.369 821.116 429.369 821.116 429.369
 823.125 429.369 823.125 429.369 823.125 429.369 823.125 429.369
 823.125 429.369 823.125 429.369 823.125 429.369 823.125 429.369
 823.125 429.369 823.125 429.369 823.125 429.369 823.125 429.369
 825.135 429.369 825.135 429.369 825.135 429.369 825.135 429.369
 825.135 429.369 825.135 429.369 825.135 429.369 825.135 429.369
 825.135 429.369 825.135 429.369 825.135 429.369 825.135 429.369
 827.144 429.369 827.144 429.369 827.144 429.369 827.144 429.369
 827.144 429.369 827.144 429.369 827.144 429.369 827.144 429.369
 827.144 429.369 827.144 429.369 827.144 429.369 827.144 429.369
 829.153 429.369 829.153 429.369 829.153 429.369 829.153 429.369
 829.153 429.369 829.153 429.369 829.153 429.369 829.153 429.369
 829.153 429.369 829.153 429.369 829.153 429.369 829.153 429.369
 831.163 429.369 831.163 429.369 831.163 429.369 831.163 429.369
 831.163 429.369 831.163 429.369 831.163 429.369 831.163 429.369
 831.163 429.369 831.163 429.369 831.163 429.369 831.163 429.369
 833.172 429.369 833.172 429.369 833.172 429.369 833.172 429.369
 833.172 429.369 833.172 429.369 833.172 429.369 833.172 429.369
 833.172 429.369 833.172 429.369 833.172 429.369 833.172 429.369
 835.181 429.369 835.181 429.369 835.181 429.369 835.181 429.369
 835.181 429.369 835.181 429.369 835.181 429.369 835.181 429.369
 835.181 429.369 835.181 429.369 835.181 429.369 835.181 429.369
 837.191 429.369 837.191 429.369 837.191 429.369 837.191 429.369
 837.191 429.369 837.191 429.369 837.191 429.369 837.191 429.369
 837.191 429.369 837.191 429.369 837.191 429.369 837.191 429.369
 839.2 429.369 839.2 429.369 839.2 429.369 839.2 429.369 839.2
 429.369 839.2 429.369 839.2 429.369 839.2 429.369 839.2 429.369
 839.2 429.369 839.2 429.369 839.2 429.369 841.21 429.369 841.21
 429.369 841.21 429.369 841.21 429.369 841.21 429.369 841.21 429.369
 841.21 429.369 841.21 429.369 841.21 429.369 841.21 429.369 841.21
 429.369 841.21 429.369 843.219 429.369 843.219 429.369 843.219
 429.369 843.219 429.369 843.219 429.369 843.219 429.369 843.219
 429.369 843.219 429.369 843.219 429.369 843.219 429.369 843.219
 429.369 843.219 429.369 845.228 429.369 845.228 429.369 845.228
 429.369 845.228 429.369 845.228 429.369 845.228 429.369 845.228
 429.369 845.228 429.369 845.228 429.369 845.228 429.369 845.228
 429.369 845.228 429.369 847.238 429.369 847.238 429.369 847.238
 429.369 847.238 429.369 847.238 429.369 847.238 429.369 847.238
 429.369 847.238 429.369 847.238 429.369 847.238 429.369 847.238
 429.369 847.238 429.369 849.247 429.369 849.247 429.369 849.247
 429.369 849.247 429.369 849.247 429.369 849.247 429.369 849.247
 429.369 849.247 429.369 849.247 429.369 849.247 429.369 849.247
 429.369 849.247 429.369 851.256 429.369 851.256 429.369 851.256
 429.369 851.256 429.369 851.256 429.369 851.256 429.369 851.256
 429.369 851.256 429.369 851.256 429.369 851.256 429.369 851.256
 429.369 851.256 429.369 853.266 429.369 853.266 429.369 853.266
 429.369 853.266 429.369 853.266 429.369 853.266 429.369 853.266
 429.369 853.266 429.369 853.266 429.369 853.266 429.369 853.266
 429.369 853.266 429.369 855.275 429.369 855.275 429.369 855.275
 429.369 855.275 429.369 855.275 429.369 855.275 429.369 855.275
 429.369 855.275 429.369 855.275 429.369 855.275 429.369 855.275
 429.369 855.275 429.369 857.284 429.369 857.284 429.369 857.284
 429.369 857.284 429.369 857.284 429.369 857.284 429.369 857.284
 429.369 857.284 429.369 857.284 429.369 857.284 429.369 857.284
 429.369 857.284 429.369 859.294 429.369 859.294 429.369 859.294
 429.369 859.294 429.369 859.294 429.369 859.294 429.369 859.294
 429.369 859.294 429.369 859.294 429.369 859.294 429.369 859.294
 429.369 859.294 429.369 861.303 429.369 861.303 429.369 861.303
 429.369 861.303 429.369 861.303 429.369 861.303 429.369 861.303
 429.369 861.303 429.369 861.303 429.369 861.303 429.369 861.303
 429.369 861.303 429.369 863.313 429.369 863.313 429.369 863.313
 429.369 863.313 429.369 863.313 429.369 863.313 429.369 863.313
 429.369 863.313 429.369 863.313 429.369 863.313 429.369 863.313
 429.369 863.313 429.369 865.322 429.369 865.322 429.369 865.322
 429.369 865.322 429.369 865.322 429.369 865.322 429.369 865.322
 429.369 865.322 429.369 865.322 429.369 865.322 429.369 865.322
 429.369 865.322 429.369 867.331 429.369 867.331 429.369 867.331
 429.369 867.331 429.369 867.331 429.369 867.331 429.369 867.331
 429.369 867.331 429.369 867.331 429.369 867.331 429.369 867.331
 429.369 867.331 429.369 869.341 429.369 869.341 429.369 869.341
 429.369 869.341 429.369 869.341 429.369 869.341 429.369 869.341
 429.369 869.341 429.369 869.341 429.369 869.341 429.369 869.341
 429.369 869.341 429.369 871.35 429.369 871.35 429.369 871.35 429.369
 871.35 429.369 871.35 429.369 871.35 429.369 871.35 429.369 871.35
 429.369 871.35 429.369 871.35 429.369 871.35 429.369 871.35 429.369
 873.359 429.369 873.359 429.369 873.359 429.369 873.359 429.369
 873.359 429.369 873.359 429.369 873.359 429.369 873.359 429.369
 873.359 429.369 873.359 429.369 873.359 429.369 873.359 429.369
 875.369 429.369 875.369 429.369 875.369 429.369 875.369 429.369
 875.369 429.369 875.369 429.369 875.369 429.369 875.369 429.369
 875.369 429.369 875.369 429.369 875.369 429.369 875.369 429.369" style="stroke:#55a868;fill:none;stroke-width:3" />
<path d="M 73.6312 429.369 75.6406 429.369 77.65 429.369 79.6594 429.369
 81.6687 429.369 83.6781 429.369 85.6875 429.369 87.6968 429.369
 89.7062 429.369 91.7156 429.369 93.7249 429.369 95.7343 429.368
 97.7437 429.368 99.753 429.368 101.762 429.368 103.772 429.368
 105.781 429.368 107.79 429.367 109.8 429.367 111.809 429.367 113.819
 429.366 115.828 429.365 117.837 429.365 119.847 429.364 121.856
 429.362 123.865 429.361 125.875 429.359 127.884 429.357 129.894
 429.354 131.903 429.351 133.912 429.346 135.922 429.342 137.931
 429.336 139.94 429.328 141.95 429.32 143.959 429.309 145.968 429.297
 147.978 429.282 149.987 429.264 151.997 429.244 154.006 429.219
 156.015 429.19 158.025 429.155 160.034 429.115 162.043 429.068
 164.053 429.013 166.062 428.949 168.072 428.874 170.081 428.788
 172.09 428.687 174.1 428.572 176.109 428.439 178.118 428.287 180.128
 428.112 182.137 427.913 184.146 427.685 186.156 427.427 188.165
 427.135 190.175 426.804 192.184 426.431 194.193 426.011 196.203
 425.54 198.212 425.013 200.221 424.425 202.231 423.77 204.24 423.042
 206.249 422.236 208.259 421.345 210.268 420.363 212.278 419.284
 214.287 418.101 216.296 416.806 218.306 415.394 220.315 413.858
 222.324 412.191 224.334 410.387 226.343 408.439 228.353 406.342
 230.362 404.091 232.371 401.68 234.381 399.105 236.39 396.362
 238.399 393.449 240.409 390.364 242.418 387.105 244.427 383.672
 246.437 380.067 248.446 376.291 250.456 372.348 252.465 368.243
 254.474 363.982 256.484 359.572 258.493 355.023 260.502 350.345
 262.512 345.549 264.521 340.65 266.53 335.661 268.54 330.599 270.549
 325.481 272.559 320.325 274.568 315.152 276.577 309.982 278.587
 304.835 280.596 299.736 282.605 294.705 284.615 289.766 286.624
 284.943 288.634 280.259 290.643 275.736 292.652 271.398 294.662
 267.268 296.671 263.365 298.68 259.712 300.69 256.326 302.699
 253.227 304.708 250.431 306.718 247.952 308.727 245.804 310.737
 243.999 312.746 242.545 314.755 241.449 316.765 240.718 318.774
 240.353 320.783 240.355 322.793 240.724 324.802 241.454 326.812
 242.541 328.821 243.977 330.83 245.753 332.84 247.855 334.849
 250.273 336.858 252.99 338.868 255.99 340.877 259.256 342.886
 262.769 344.896 266.51 346.905 270.459 348.915 274.595 350.924
 278.895 352.933 283.34 354.943 287.908 356.952 292.577 358.961
 297.325 360.971 302.134 362.98 306.981 364.989 311.848 366.999
 316.715 369.008 321.566 371.018 326.382 373.027 331.147 375.036
 335.847 377.046 340.468 379.055 344.997 381.064 349.421 383.074
 353.73 385.083 357.914 387.093 361.966 389.102 365.876 391.111
 369.639 393.121 373.25 395.13 376.703 397.139 379.994 399.149
 383.122 401.158 386.083 403.167 388.875 405.177 391.499 407.186
 393.953 409.196 396.239 411.205 398.356 413.214 400.306 415.224
 402.09 417.233 403.711 419.242 405.169 421.252 406.469 423.261
 407.611 425.271 408.599 427.28 409.436 429.289 410.125 431.299
 410.668 433.308 411.07 435.317 411.332 437.327 411.459 439.336
 411.453 441.345 411.318 443.355 411.056 445.364 410.672 447.374
 410.167 449.383 409.546 451.392 408.811 453.402 407.965 455.411
 407.012 457.42 405.953 459.43 404.792 461.439 403.532 463.448
 402.174 465.458 400.722 467.467 399.178 469.477 397.545 471.486
 395.824 473.495 394.018 475.505 392.13 477.514 390.16 479.523
 388.112 481.533 385.987 483.542 383.788 485.552 381.517 487.561
 379.176 489.57 376.767 491.58 374.293 493.589 371.758 495.598
 369.163 497.608 366.513 499.617 363.812 501.626 361.062 503.636
 358.271 505.645 355.442 507.655 352.581 509.664 349.695 511.673
 346.791 513.683 343.877 515.692 340.962 517.701 338.054 519.711
 335.163 521.72 332.3 523.729 329.477 525.739 326.704 527.748 323.995
 529.758 321.361 531.767 318.817 533.776 316.376 535.786 314.051
 537.795 311.856 539.804 309.805 541.814 307.911 543.823 306.187
 545.833 304.645 547.842 303.297 549.851 302.155 551.861 301.228
 553.87 300.525 555.879 300.054 557.889 299.822 559.898 299.833
 561.907 300.092 563.917 300.599 565.926 301.355 567.936 302.359
 569.945 303.608 571.954 305.096 573.964 306.819 575.973 308.767
 577.982 310.931 579.992 313.301 582.001 315.865 584.011 318.608
 586.02 321.517 588.029 324.577 590.039 327.771 592.048 331.083
 594.057 334.496 596.067 337.992 598.076 341.554 600.085 345.166
 602.095 348.809 604.104 352.467 606.114 356.124 608.123 359.765
 610.132 363.375 612.142 366.939 614.151 370.445 616.16 373.881
 618.17 377.236 620.179 380.5 622.188 383.665 624.198 386.723 626.207
 389.668 628.217 392.495 630.226 395.2 632.235 397.779 634.245
 400.231 636.254 402.556 638.263 404.752 640.273 406.821 642.282
 408.764 644.292 410.583 646.301 412.282 648.31 413.863 650.32
 415.331 652.329 416.689 654.338 417.943 656.348 419.097 658.357
 420.156 660.366 421.125 662.376 422.01 664.385 422.815 666.395
 423.546 668.404 424.207 670.413 424.804 672.423 425.341 674.432
 425.824 676.441 426.256 678.451 426.642 680.46 426.986 682.47
 427.291 684.479 427.561 686.488 427.8 688.498 428.011 690.507
 428.196 692.516 428.358 694.526 428.5 696.535 428.624 698.544
 428.731 700.554 428.825 702.563 428.906 704.573 428.975 706.582
 429.035 708.591 429.087 710.601 429.131 712.61 429.169 714.619
 429.201 716.629 429.228 718.638 429.251 720.647 429.271 722.657
 429.287 724.666 429.301 726.676 429.313 728.685 429.323 730.694
 429.331 732.704 429.338 734.713 429.343 736.722 429.348 738.732
 429.352 740.741 429.355 742.751 429.357 744.76 429.36 746.769
 429.361 748.779 429.363 750.788 429.364 752.797 429.365 754.807
 429.366 756.816 429.366 758.825 429.367 760.835 429.367 762.844
 429.368 764.854 429.368 766.863 429.368 768.872 429.368 770.882
 429.368 772.891 429.368 774.9 429.368 776.91 429.369 778.919 429.369
 780.928 429.369 782.938 429.369 784.947 429.369 786.957 429.369
 788.966 429.369 790.975 429.369 792.985 429.369 794.994 429.369
 797.003 429.369 799.013 429.369 801.022 429.369 803.032 429.369
 805.041 429.369 807.05 429.369 809.06 429.369 811.069 429.369
 813.078 429.369 815.088 429.369 817.097 429.369 819.106 429.369
 821.116 429.369 823.125 429.369 825.135 429.369 827.144 429.369
 829.153 429.369 831.163 429.369 833.172 429.369 835.181 429.369
 837.191 429.369 839.2 429.369 841.21 429.369 843.219 429.369 845.228
 429.369 847.238 429.369 849.247 429.369 851.256 429.369 853.266
 429.369 855.275 429.369 857.284 429.369 859.294 429.369 861.303
 429.369 863.313 429.369 865.322 429.369 867.331 429.369 869.341
 429.369 871.35 429.369 873.359 429.369 875.369 429.369" style="stroke:#c44e52;fill:none;stroke-width:3" />
<path d="M 73.6312 429.369 75.6406 429.369 77.65 429.369 79.6594 429.369
 81.6687 429.369 83.6781 429.369 85.6875 429.369 87.6968 429.369
 89.7062 429.369 91.7156 429.369 93.7249 429.369 95.7343 429.369
 97.7437 429.369 99.753 429.369 101.762 429.369 103.772 429.369
 105.781 429.369 107.79 429.368 109.8 429.368 111.809 429.368 113.819
 429.368 115.828 429.368 117.837 429.368 119.847 429.368 121.856
 429.367 123.865 429.367 125.875 429.366 127.884 429.366 129.894
 429.365 131.903 429.364 133.912 429.363 135.922 429.361 137.931
 429.359 139.94 429.357 141.95 429.354 143.959 429.351 145.968
 429.347 147.978 429.341 149.987 429.335 151.997 429.327 154.006
 429.318 156.015 429.307 158.025 429.294 160.034 429.278 162.043
 429.259 164.053 429.236 166.062 429.208 168.072 429.176 170.081
 429.138 172.09 429.092 174.1 429.039 176.109 428.976 178.118 428.903
 180.128 428.817 182.137 428.717 184.146 428.602 186.156 428.467
 188.165 428.312 190.175 428.133 192.184 427.928 194.193 427.693
 196.203 427.424 198.212 427.118 200.221 426.77 202.231 426.376
 204.24 425.93 206.249 425.429 208.259 424.865 210.268 424.234
 212.278 423.529 214.287 422.744 216.296 421.873 218.306 420.908
 220.315 419.842 222.324 418.67 224.334 417.383 226.343 415.975
 228.353 414.44 230.362 412.77 232.371 410.96 234.381 409.003 236.39
 406.895 238.399 404.631 240.409 402.207 242.418 399.621 244.427
 396.87 246.437 393.954 248.446 390.873 250.456 387.63 252.465
 384.226 254.474 380.667 256.484 376.96 258.493 373.112 260.502
 369.133 262.512 365.034 264.521 360.829 266.53 356.532 268.54 352.16
 270.549 347.731 272.559 343.265 274.568 338.782 276.577 334.305
 278.587 329.857 280.596 325.462 282.605 321.145 284.615 316.932
 286.624 312.848 288.634 308.919 290.643 305.17 292.652 301.625
 294.662 298.309 296.671 295.244 298.68 292.452 300.69 289.953
 302.699 287.764 304.708 285.902 306.718 284.38 308.727 283.209
 310.737 282.399 312.746 281.955 314.755 281.881 316.765 282.177
 318.774 282.842 320.783 283.869 322.793 285.251 324.802 286.979
 326.812 289.039 328.821 291.416 330.83 294.093 332.84 297.052
 334.849 300.27 336.858 303.726 338.868 307.396 340.877 311.257
 342.886 315.282 344.896 319.446 346.905 323.724 348.915 328.091
 350.924 332.52 352.933 336.989 354.943 341.472 356.952 345.947
 358.961 350.393 360.971 354.79 362.98 359.119 364.989 363.362
 366.999 367.504 369.008 371.532 371.018 375.433 373.027 379.197
 375.036 382.814 377.046 386.279 379.055 389.585 381.064 392.729
 383.074 395.708 385.083 398.521 387.093 401.169 389.102 403.652
 391.111 405.973 393.121 408.134 395.13 410.141 397.139 411.998
 399.149 413.709 401.158 415.28 403.167 416.718 405.177 418.028
 407.186 419.217 409.196 420.29 411.205 421.254 413.214 422.115
 415.224 422.878 417.233 423.548 419.242 424.131 421.252 424.631
 423.261 425.053 425.271 425.399 427.28 425.672 429.289 425.876
 431.299 426.012 433.308 426.082 435.317 426.085 437.327 426.022
 439.336 425.893 441.345 425.696 443.355 425.429 445.364 425.091
 447.374 424.677 449.383 424.185 451.392 423.61 453.402 422.949
 455.411 422.196 457.42 421.345 459.43 420.392 461.439 419.329
 463.448 418.153 465.458 416.855 467.467 415.43 469.477 413.872
 471.486 412.175 473.495 410.333 475.505 408.342 477.514 406.196
 479.523 403.891 481.533 401.425 483.542 398.794 485.552 395.997
 487.561 393.035 489.57 389.907 491.58 386.617 493.589 383.168
 495.598 379.565 497.608 375.816 499.617 371.928 501.626 367.912
 503.636 363.781 505.645 359.547 507.655 355.226 509.664 350.836
 511.673 346.393 513.683 341.92 515.692 337.437 517.701 332.966
 519.711 328.531 521.72 324.157 523.729 319.869 525.739 315.692
 527.748 311.652 529.758 307.774 531.767 304.084 533.776 300.605
 535.786 297.362 537.795 294.377 539.804 291.671 541.814 289.263
 543.823 287.17 545.833 285.409 547.842 283.991 549.851 282.928
 551.861 282.227 553.87 281.894 555.879 281.931 557.889 282.338
 559.898 283.112 561.907 284.247 563.917 285.734 565.926 287.563
 567.936 289.72 569.945 292.189 571.954 294.952 573.964 297.991
 575.973 301.283 577.982 304.806 579.992 308.536 582.001 312.448
 584.011 316.518 586.02 320.719 588.029 325.026 590.039 329.414
 592.048 333.858 594.057 338.334 596.067 342.817 598.076 347.286
 600.085 351.719 602.095 356.098 604.104 360.403 606.114 364.618
 608.123 368.728 610.132 372.72 612.142 376.581 614.151 380.303
 616.16 383.877 618.17 387.296 620.179 390.556 622.188 393.654
 624.198 396.586 626.207 399.353 628.217 401.956 630.226 404.396
 632.235 406.676 634.245 408.799 636.254 410.771 638.263 412.595
 640.273 414.279 642.282 415.828 644.292 417.248 646.301 418.546
 648.31 419.73 650.32 420.806 652.329 421.781 654.338 422.661 656.348
 423.455 658.357 424.167 660.366 424.805 662.376 425.375 664.385
 425.883 666.395 426.334 668.404 426.733 670.413 427.085 672.423
 427.395 674.432 427.667 676.441 427.906 678.451 428.114 680.46
 428.295 682.47 428.453 684.479 428.589 686.488 428.707 688.498
 428.808 690.507 428.895 692.516 428.969 694.526 429.033 696.535
 429.087 698.544 429.133 700.554 429.172 702.563 429.205 704.573
 429.233 706.582 429.256 708.591 429.276 710.601 429.292 712.61
 429.306 714.619 429.317 716.629 429.327 718.638 429.334 720.647
 429.341 722.657 429.346 724.666 429.35 726.676 429.354 728.685
 429.357 730.694 429.359 732.704 429.361 734.713 429.363 736.722
 429.364 738.732 429.365 740.741 429.366 742.751 429.366 744.76
 429.367 746.769 429.367 748.779 429.368 750.788 429.368 752.797
 429.368 754.807 429.368 756.816 429.368 758.825 429.368 760.835
 429.368 762.844 429.369 764.854 429.369 766.863 429.369 768.872
 429.369 770.882 429.369 772.891 429.369 774.9 429.369 776.91 429.369
 778.919 429.369 780.928 429.369 782.938 429.369 784.947 429.369
 786.957 429.369 788.966 429.369 790.975 429.369 792.985 429.369
 794.994 429.369 797.003 429.369 799.013 429.369 801.022 429.369
 803.032 429.369 805.041 429.369 807.05 429.369 809.06 429.369
 811.069 429.369 813.078 429.369 815.088 429.369 817.097 429.369
 819.106 429.369 821.116 429.369 823.125 429.369 825.135 429.369
 827.144 429.369 829.153 429.369 831.163 429.369 833.172 429.369
 835.181 429.369 837.191 429.369 839.2 429.369 841.21 429.369 843.219
 429.369 845.228 429.369 847.238 429.369 849.247 429.369 851.256
 429.369 853.266 429.369 855.275 429.369 857.284 429.369 859.294
 429.369 861.303 429.369 863.313 429.369 865.322 429.369 867.331
 429.369 869.341 429.369 871.35 429.369 873.359 429.369 875.369
 429.369" style="stroke:#4c72b0;fill:none;stroke-width:3" />
</g>
<path d="M53 39V450H896" style="stroke:#888; fill:none; stroke-width:2" />
<path d="M114 450v-8M194 450v-8M274 450v-8M354 450v-8M434 450v-8M515 450v-8
M595 450v-8M675 450v-8M755 450v-8M835 450v-8M74 450v-4M154 450v-4
M234 450v-4M314 450v-4M394 450v-4M475 450v-4M555 450v-4M635 450v-4
M715 450v-4M795 450v-4M875 450v-4" style="stroke:#888; stroke-width:2" />
<path d="M53 429h8M53 244h8M53 392h4M53 355h4M53 318h4M53 281h4M53 208h4
M53 171h4M53 134h4M53 97h4" style="stroke:#888; stroke-width:2" />
<text x="47" y="430" text-anchor="end" dy=".3em" fill="#666" >0</text>
<text x="47" y="244" text-anchor="end" dy=".3em" fill="#666" >0.5</text>
<text x="113" y="455" text-anchor="middle" dy="1em" fill="#666" >-4</text>
<text x="193" y="455" text-anchor="middle" dy="1em" fill="#666" >-3</text>
<text x="273" y="455" text-anchor="middle" dy="1em" fill="#666" >-2</text>
<text x="354" y="455" text-anchor="middle" dy="1em" fill="#666" >-1</text>
<text x="434" y="455" text-anchor="middle" dy="1em" fill="#666" >0</text>
<text x="514" y="455" text-anchor="middle" dy="1em" fill="#666" >1</text>
<text x="594" y="455" text-anchor="middle" dy="1em" fill="#666" >2</text>
<text x="674" y="455" text-anchor="middle" dy="1em" fill="#666" >3</text>
<text x="755" y="455" text-anchor="middle" dy="1em" fill="#666" >4</text>
<text x="835" y="455" text-anchor="middle" dy="1em" fill="#666" >5</text>
<clipPath id="clip1" ><rect x="52" y="0" width="843" height="34" />
</clipPath>
<g clip-path="url(#clip1)" >
<text x="474" y="17" text-anchor="middle" dy=".3em" >Step 2: Mean embedding μ̂_P  [n=12, σ=0.50]</text>
</g>
<clipPath id="clip2" ><rect x="52" y="477" width="843" height="22" />
</clipPath>
<g clip-path="url(#clip2)" >
<text x="474" y="488" text-anchor="middle" dy=".3em" >t</text>
</g>
<clipPath id="clip3" ><rect x="0" y="38" width="22" height="412" />
</clipPath>
<g clip-path="url(#clip3)" >
<text x="11" y="244" text-anchor="middle" dy=".3em" transform="rotate(-90 11 244)" >value</text>
</g>
</svg>
