<?xml version="1.0"?>
<!-- Generated by SVGo -->
<svg width="900" height="500"
     font-size="14px" font-family="Roboto,&quot;Helvetica Neue&quot;,Helvetica,Arial,sans-serif"
     xmlns="http://www.w3.org/2000/svg"
     xmlns:xlink="http://www.w3.org/1999/xlink">
<clipPath id="clip0" ><rect x="53" y="39" width="843" height="411" />
</clipPath>
<g clip-path="url(#clip0)" >
<rect x="53" y="39" width="843" height="411" style="fill:#eee" />
<path d="M114 39v411M194 39v411M274 39v411M354 39v411M434 39v411M515 39v411
M595 39v411M675 39v411M755 39v411M835 39v411" style="stroke: #fff; stroke-width:2" />
<path d="M53 429h843M53 357h843M53 285h843M53 212h843M53 140h843M53 68h843" style="stroke: #fff; stroke-width:2" />
<path d="M 73.6312 429.369 75.6406 429.369 77.65 429.369 79.6594 429.369
 81.6687 429.369 83.6781 429.369 85.6875 429.369 87.6968 429.369
 89.7062 429.368 91.7156 429.368 93.7249 429.368 95.7343 429.368
 97.7437 429.368 99.753 429.368 101.762 429.368 103.772 429.367
 105.781 429.367 107.79 429.366 109.8 429.366 111.809 429.365 113.819
 429.364 115.828 429.362 117.837 429.361 119.847 429.359 121.856
 429.356 123.865 429.353 125.875 429.35 127.884 429.345 129.894
 429.34 131.903 429.333 133.912 429.325 135.922 429.315 137.931
 429.304 139.94 429.29 141.95 429.273 143.959 429.252 145.968 429.228
 147.978 429.199 149.987 429.165 151.997 429.124 154.006 429.076
 156.015 429.019 158.025 428.951 160.034 428.873 162.043 428.78
 164.053 428.673 166.062 428.547 168.072 428.401 170.081 428.232
 172.09 428.036 174.1 427.81 176.109 427.55 178.118 427.252 180.128
 426.91 182.137 426.52 184.146 426.076 186.156 425.571 188.165
 424.998 190.175 424.351 192.184 423.621 194.193 422.801 196.203
 421.879 198.212 420.848 200.221 419.698 202.231 418.416 204.24
 416.993 206.249 415.416 208.259 413.673 210.268 411.753 212.278
 409.642 214.287 407.327 216.296 404.795 218.306 402.033 220.315
 399.028 222.324 395.767 224.334 392.238 226.343 388.428 228.353
 384.326 230.362 379.922 232.371 375.206 234.381 370.169 236.39
 364.804 238.399 359.106 240.409 353.071 242.418 346.696 244.427
 339.981 246.437 332.928 248.446 325.542 250.456 317.83 252.465 309.8
 254.474 301.464 256.484 292.839 258.493 283.94 260.502 274.788
 262.512 265.408 264.521 255.824 266.53 246.065 268.54 236.163
 270.549 226.152 272.559 216.067 274.568 205.947 276.577 195.833
 278.587 185.767 280.596 175.791 282.605 165.95 284.615 156.289
 286.624 146.855 288.634 137.692 290.643 128.845 292.652 120.36
 294.662 112.28 296.671 104.646 298.68 97.499 300.69 90.8768 302.699
 84.8145 304.708 79.3445 306.718 74.4961 308.727 70.295 310.737
 66.7633 312.746 63.919 314.755 61.7763 316.765 60.3452 318.774
 59.6313 320.783 59.6359 322.793 60.3564 324.802 61.7856 326.812
 63.9123 328.821 66.7213 330.83 70.1938 332.84 74.3072 334.849
 79.0356 336.858 84.3501 338.868 90.2189 340.877 96.6077 342.886
 103.48 344.896 110.799 346.905 118.523 348.915 126.612 350.924
 135.025 352.933 143.72 354.943 152.655 356.952 161.787 358.961
 171.076 360.971 180.482 362.98 189.964 364.989 199.484 366.999
 209.005 369.008 218.493 371.018 227.914 373.027 237.236 375.036
 246.43 377.046 255.469 379.055 264.327 381.064 272.981 383.074
 281.41 385.083 289.595 387.093 297.52 389.102 305.17 391.111 312.531
 393.121 319.594 395.13 326.348 397.139 332.787 399.149 338.904
 401.158 344.696 403.167 350.159 405.177 355.291 407.186 360.092
 409.196 364.563 411.205 368.704 413.214 372.519 415.224 376.009
 417.233 379.179 419.242 382.032 421.252 384.574 423.261 386.808
 425.271 388.741 427.28 390.379 429.289 391.726 431.299 392.789
 433.308 393.574 435.317 394.087 437.327 394.335 439.336 394.323
 441.345 394.058 443.355 393.547 445.364 392.795 447.374 391.808
 449.383 390.593 451.392 389.155 453.402 387.501 455.411 385.635
 457.42 383.565 459.43 381.294 461.439 378.828 463.448 376.173
 465.458 373.333 467.467 370.313 469.477 367.118 471.486 363.752
 473.495 360.219 475.505 356.525 477.514 352.672 479.523 348.666
 481.533 344.51 483.542 340.208 485.552 335.765 487.561 331.185
 489.57 326.473 491.58 321.635 493.589 316.675 495.598 311.6 497.608
 306.416 499.617 301.131 501.626 295.754 503.636 290.293 505.645
 284.758 507.655 279.163 509.664 273.518 511.673 267.838 513.683
 262.138 515.692 256.434 517.701 250.746 519.711 245.091 521.72
 239.491 523.729 233.968 525.739 228.544 527.748 223.245 529.758
 218.094 531.767 213.117 533.776 208.342 535.786 203.794 537.795
 199.501 539.804 195.488 541.814 191.783 543.823 188.41 545.833
 185.394 547.842 182.758 549.851 180.523 551.861 178.71 553.87
 177.335 555.879 176.414 557.889 175.96 559.898 175.982 561.907
 176.487 563.917 177.479 565.926 178.958 567.936 180.922 569.945
 183.365 571.954 186.277 573.964 189.646 575.973 193.457 577.982
 197.691 579.992 202.327 582.001 207.341 584.011 212.708 586.02
 218.398 588.029 224.383 590.039 230.631 592.048 237.11 594.057
 243.786 596.067 250.625 598.076 257.593 600.085 264.658 602.095
 271.784 604.104 278.94 606.114 286.094 608.123 293.216 610.132
 300.276 612.142 307.248 614.151 314.106 616.16 320.827 618.17 327.39
 620.179 333.775 622.188 339.966 624.198 345.948 626.207 351.709
 628.217 357.239 630.226 362.53 632.235 367.576 634.245 372.373
 636.254 376.919 638.263 381.215 640.273 385.262 642.282 389.063
 644.292 392.621 646.301 395.944 648.31 399.037 650.32 401.909
 652.329 404.566 654.338 407.019 656.348 409.276 658.357 411.348
 660.366 413.244 662.376 414.974 664.385 416.549 666.395 417.978
 668.404 419.272 670.413 420.44 672.423 421.491 674.432 422.435
 676.441 423.28 678.451 424.035 680.46 424.707 682.47 425.304 684.479
 425.833 686.488 426.301 688.498 426.713 690.507 427.075 692.516
 427.392 694.526 427.67 696.535 427.912 698.544 428.122 700.554
 428.305 702.563 428.463 704.573 428.599 706.582 428.717 708.591
 428.817 710.601 428.904 712.61 428.978 714.619 429.04 716.629
 429.094 718.638 429.139 720.647 429.177 722.657 429.21 724.666
 429.237 726.676 429.26 728.685 429.279 730.694 429.294 732.704
 429.308 734.713 429.319 736.722 429.328 738.732 429.335 740.741
 429.342 742.751 429.347 744.76 429.351 746.769 429.354 748.779
 429.357 750.788 429.359 752.797 429.361 754.807 429.363 756.816
 429.364 758.825 429.365 760.835 429.366 762.844 429.366 764.854
 429.367 766.863 429.367 768.872 429.368 770.882 429.368 772.891
 429.368 774.9 429.368 776.91 429.368 778.919 429.368 780.928 429.368
 782.938 429.369 784.947 429.369 786.957 429.369 788.966 429.369
 790.975 429.369 792.985 429.369 794.994 429.369 797.003 429.369
 799.013 429.369 801.022 429.369 803.032 429.369 805.041 429.369
 807.05 429.369 809.06 429.369 811.069 429.369 813.078 429.369
 815.088 429.369 817.097 429.369 819.106 429.369 821.116 429.369
 823.125 429.369 825.135 429.369 827.144 429.369 829.153 429.369
 831.163 429.369 833.172 429.369 835.181 429.369 837.191 429.369
 839.2 429.369 841.21 429.369 843.219 429.369 845.228 429.369 847.238
 429.369 849.247 429.369 851.256 429.369 853.266 429.369 855.275
 429.369 857.284 429.369 859.294 429.369 861.303 429.369 863.313
 429.369 865.322 429.369 867.331 429.369 869.341 429.369 871.35
 429.369 873.359 429.369 875.369 429.369" style="stroke:#55a868;fill:none;stroke-width:3" />
<path d="M 73.6312 429.369 75.6406 429.369 77.65 429.369 79.6594 429.369
 81.6687 429.369 83.6781 429.369 85.6875 429.369 87.6968 429.369
 89.7062 429.369 91.7156 429.369 93.7249 429.369 95.7343 429.369
 97.7437 429.369 99.753 429.369 101.762 429.369 103.772 429.369
 105.781 429.369 107.79 429.369 109.8 429.369 111.809 429.369 113.819
 429.369 115.828 429.369 117.837 429.369 119.847 429.369 121.856
 429.369 123.865 429.368 125.875 429.368 127.884 429.368 129.894
 429.368 131.903 429.368 133.912 429.368 135.922 429.368 137.931
 429.367 139.94 429.367 141.95 429.366 143.959 429.366 145.968
 429.365 147.978 429.364 149.987 429.363 151.997 429.362 154.006
 429.36 156.015 429.358 158.025 429.355 160.034 429.352 162.043
 429.349 164.053 429.344 166.062 429.339 168.072 429.332 170.081
 429.325 172.09 429.315 174.1 429.304 176.109 429.291 178.118 429.276
 180.128 429.258 182.137 429.236 184.146 429.211 186.156 429.181
 188.165 429.147 190.175 429.106 192.184 429.059 194.193 429.005
 196.203 428.942 198.212 428.87 200.221 428.786 202.231 428.691
 204.24 428.582 206.249 428.457 208.259 428.315 210.268 428.154
 212.278 427.973 214.287 427.767 216.296 427.537 218.306 427.278
 220.315 426.988 222.324 426.665 224.334 426.305 226.343 425.906
 228.353 425.465 230.362 424.978 232.371 424.442 234.381 423.853
 236.39 423.209 238.399 422.507 240.409 421.742 242.418 420.912
 244.427 420.013 246.437 419.043 248.446 417.999 250.456 416.878
 252.465 415.677 254.474 414.395 256.484 413.029 258.493 411.578
 260.502 410.04 262.512 408.415 264.521 406.701 266.53 404.899 268.54
 403.007 270.549 401.027 272.559 398.959 274.568 396.804 276.577
 394.563 278.587 392.237 280.596 389.827 282.605 387.335 284.615
 384.763 286.624 382.112 288.634 379.383 290.643 376.578 292.652
 373.699 294.662 370.745 296.671 367.717 298.68 364.616 300.69
 361.441 302.699 358.191 304.708 354.865 306.718 351.461 308.727
 347.977 310.737 344.41 312.746 340.757 314.755 337.014 316.765
 333.176 318.774 329.24 320.783 325.2 322.793 321.052 324.802 316.791
 326.812 312.413 328.821 307.913 330.83 303.287 332.84 298.532
 334.849 293.647 336.858 288.628 338.868 283.476 340.877 278.192
 342.886 272.777 344.896 267.236 346.905 261.573 348.915 255.796
 350.924 249.912 352.933 243.933 354.943 237.87 356.952 231.738
 358.961 225.551 360.971 219.326 362.98 213.082 364.989 206.838
 366.999 200.615 369.008 194.435 371.018 188.319 373.027 182.291
 375.036 176.372 377.046 170.586 379.055 164.955 381.064 159.5
 383.074 154.241 385.083 149.198 387.093 144.387 389.102 139.826
 391.111 135.527 393.121 131.502 395.13 127.761 397.139 124.309
 399.149 121.152 401.158 118.289 403.167 115.721 405.177 113.442
 407.186 111.447 409.196 109.727 411.205 108.269 413.214 107.061
 415.224 106.087 417.233 105.33 419.242 104.77 421.252 104.389
 423.261 104.165 425.271 104.078 427.28 104.105 429.289 104.226
 431.299 104.42 433.308 104.667 435.317 104.948 437.327 105.245
 439.336 105.542 441.345 105.826 443.355 106.083 445.364 106.305
 447.374 106.483 449.383 106.613 451.392 106.691 453.402 106.718
 455.411 106.696 457.42 106.628 459.43 106.523 461.439 106.389
 463.448 106.236 465.458 106.078 467.467 105.928 469.477 105.802
 471.486 105.717 473.495 105.689 475.505 105.736 477.514 105.876
 479.523 106.127 481.533 106.507 483.542 107.031 485.552 107.718
 487.561 108.58 489.57 109.634 491.58 110.89 493.589 112.361 495.598
 114.055 497.608 115.98 499.617 118.143 501.626 120.548 503.636
 123.197 505.645 126.091 507.655 129.23 509.664 132.61 511.673
 136.227 513.683 140.077 515.692 144.152 517.701 148.445 519.711
 152.946 521.72 157.645 523.729 162.531 525.739 167.594 527.748
 172.821 529.758 178.2 531.767 183.717 533.776 189.361 535.786
 195.119 537.795 200.976 539.804 206.922 541.814 212.942 543.823
 219.024 545.833 225.156 547.842 231.325 549.851 237.521 551.861
 243.73 553.87 249.943 555.879 256.148 557.889 262.335 559.898
 268.493 561.907 274.612 563.917 280.682 565.926 286.695 567.936
 292.641 569.945 298.511 571.954 304.297 573.964 309.991 575.973
 315.585 577.982 321.072 579.992 326.444 582.001 331.695 584.011
 336.819 586.02 341.809 588.029 346.661 590.039 351.37 592.048
 355.931 594.057 360.341 596.067 364.595 598.076 368.693 600.085
 372.631 602.095 376.407 604.104 380.022 606.114 383.475 608.123
 386.765 610.132 389.894 612.142 392.863 614.151 395.674 616.16
 398.329 618.17 400.832 620.179 403.186 622.188 405.394 624.198
 407.46 626.207 409.39 628.217 411.188 630.226 412.859 632.235
 414.407 634.245 415.84 636.254 417.161 638.263 418.378 640.273
 419.494 642.282 420.517 644.292 421.451 646.301 422.303 648.31
 423.077 650.32 423.778 652.329 424.413 654.338 424.985 656.348
 425.501 658.357 425.963 660.366 426.377 662.376 426.747 664.385
 427.076 666.395 427.369 668.404 427.628 670.413 427.857 672.423
 428.06 674.432 428.237 676.441 428.393 678.451 428.53 680.46 428.649
 682.47 428.752 684.479 428.842 686.488 428.92 688.498 428.988
 690.507 429.046 692.516 429.095 694.526 429.138 696.535 429.175
 698.544 429.206 700.554 429.232 702.563 429.255 704.573 429.274
 706.582 429.29 708.591 429.303 710.601 429.314 712.61 429.324
 714.619 429.332 716.629 429.338 718.638 429.344 720.647 429.348
 722.657 429.352 724.666 429.355 726.676 429.358 728.685 429.36
 730.694 429.362 732.704 429.363 734.713 429.364 736.722 429.365
 738.732 429.366 740.741 429.366 742.751 429.367 744.76 429.367
 746.769 429.368 748.779 429.368 750.788 429.368 752.797 429.368
 754.807 429.368 756.816 429.368 758.825 429.368 760.835 429.369
 762.844 429.369 764.854 429.369 766.863 429.369 768.872 429.369
 770.882 429.369 772.891 429.369 774.9 429.369 776.91 429.369 778.919
 429.369 780.928 429.369 782.938 429.369 784.947 429.369 786.957
 429.369 788.966 429.369 790.975 429.369 792.985 429.369 794.994
 429.369 797.003 429.369 799.013 429.369 801.022 429.369 803.032
 429.369 805.041 429.369 807.05 429.369 809.06 429.369 811.069
 429.369 813.078 429.369 815.088 429.369 817.097 429.369 819.106
 429.369 821.116 429.369 823.125 429.369 825.135 429.369 827.144
 429.369 829.153 429.369 831.163 429.369 833.172 429.369 835.181
 429.369 837.191 429.369 839.2 429.369 841.21 429.369 843.219 429.369
 845.228 429.369 847.238 429.369 849.247 429.369 851.256 429.369
 853.266 429.369 855.275 429.369 857.284 429.369 859.294 429.369
 861.303 429.369 863.313 429.369 865.322 429.369 867.331 429.369
 869.341 429.369 871.35 429.369 873.359 429.369 875.369 429.369" style="stroke:#c44e52;fill:none;stroke-width:3" />
<path d="M 73.6312 429.369 75.6406 429.369 77.65 429.369 79.6594 429.369
 81.6687 429.369 83.6781 429.369 85.6875 429.369 87.6968 429.369
 89.7062 429.368 91.7156 429.368 93.7249 429.368 95.7343 429.368
 97.7437 429.368 99.753 429.368 101.762 429.368 103.772 429.367
 105.781 429.367 107.79 429.366 109.8 429.366 111.809 429.365 113.819
 429.364 115.828 429.362 117.837 429.361 119.847 429.359 121.856
 429.357 123.865 429.354 125.875 429.35 127.884 429.346 129.894
 429.34 131.903 429.334 133.912 429.326 135.922 429.317 137.931
 429.305 139.94 429.292 141.95 429.275 143.959 429.255 145.968
 429.232 147.978 429.204 149.987 429.171 151.997 429.131 154.006
 429.084 156.015 429.03 158.025 428.965 160.034 428.889 162.043
 428.801 164.053 428.697 166.062 428.577 168.072 428.438 170.081
 428.276 172.09 428.089 174.1 427.875 176.109 427.628 178.118 427.345
 180.128 427.021 182.137 426.653 184.146 426.234 186.156 425.758
 188.165 425.221 190.175 424.614 192.184 423.931 194.193 423.164
 196.203 422.306 198.212 421.348 200.221 420.28 202.231 419.094
 204.24 417.78 206.249 416.328 208.259 414.727 210.268 412.967
 212.278 411.038 214.287 408.928 216.296 406.627 218.306 404.124
 220.315 401.409 222.324 398.471 224.334 395.301 226.343 391.89
 228.353 388.23 230.362 384.313 232.371 380.133 234.381 375.685
 236.39 370.964 238.399 365.968 240.409 360.698 242.418 355.153
 244.427 349.337 246.437 343.254 248.446 336.912 250.456 330.321
 252.465 323.491 254.474 316.438 256.484 309.178 258.493 301.731
 260.502 294.117 262.512 286.362 264.521 278.491 266.53 270.535
 268.54 262.524 270.549 254.493 272.559 246.476 274.568 238.512
 276.577 230.639 278.587 222.899 280.596 215.333 282.605 207.984
 284.615 200.895 286.624 194.112 288.634 187.677 290.643 181.635
 292.652 176.03 294.662 170.904 296.671 166.298 298.68 162.252 300.69
 158.805 302.699 155.992 304.708 153.848 306.718 152.404 308.727
 151.686 310.737 151.722 312.746 152.53 314.755 154.131 316.765
 156.538 318.774 159.76 320.783 163.805 322.793 168.673 324.802
 174.363 326.812 180.868 328.821 188.177 330.83 196.276 332.84
 205.144 334.849 214.758 336.858 225.091 338.868 236.112 340.877
 247.785 342.886 260.072 344.896 272.932 346.905 286.319 348.915
 300.185 350.924 314.482 352.933 329.156 354.943 344.153 356.952
 359.418 358.961 374.895 360.971 390.525 362.98 406.251 364.989
 422.015 366.999 420.979 369.008 405.31 371.018 389.774 373.027
 374.423 375.036 359.311 377.046 344.486 379.055 329.997 381.064
 315.888 383.074 302.2 385.083 288.971 387.093 276.236 389.102
 264.025 391.111 252.365 393.121 241.278 395.13 230.782 397.139
 220.891 399.149 211.616 401.158 202.962 403.167 194.931 405.177
 187.52 407.186 180.724 409.196 174.533 411.205 168.934 413.214
 163.911 415.224 159.447 417.233 155.52 419.242 152.107 421.252
 149.184 423.261 146.726 425.271 144.705 427.28 143.095 429.289
 141.869 431.299 141 433.308 140.462 435.317 140.229 437.327 140.279
 439.336 140.588 441.345 141.136 443.355 141.905 445.364 142.879
 447.374 144.044 449.383 145.389 451.392 146.905 453.402 148.586
 455.411 150.429 457.42 152.432 459.43 154.598 461.439 156.929
 463.448 159.432 465.458 162.114 467.467 164.984 469.477 168.053
 471.486 171.334 473.495 174.838 475.505 178.58 477.514 182.573
 479.523 186.83 481.533 191.366 483.542 196.192 485.552 201.322
 487.561 206.764 489.57 212.529 491.58 218.624 493.589 225.055
 495.598 231.824 497.608 238.933 499.617 246.381 501.626 254.163
 503.636 262.273 505.645 270.702 507.655 279.436 509.664 288.461
 511.673 297.759 513.683 307.308 515.692 317.087 517.701 327.068
 519.711 337.223 521.72 347.522 523.729 357.932 525.739 368.418
 527.748 378.945 529.758 389.475 531.767 399.969 533.776 410.388
 535.786 420.693 537.795 427.893 539.804 417.935 541.814 408.21
 543.823 398.755 545.833 389.607 547.842 380.801 549.851 372.371
 551.861 364.348 553.87 356.761 555.879 349.635 557.889 342.994
 559.898 336.858 561.907 331.244 563.917 326.166 565.926 321.632
 567.936 317.65 569.945 314.222 571.954 311.348 573.964 309.024
 575.973 307.24 577.982 305.988 579.992 305.252 582.001 305.015
 584.011 305.258 586.02 305.958 588.029 307.091 590.039 308.63
 592.048 310.548 594.057 312.814 596.067 315.398 598.076 318.269
 600.085 321.396 602.095 324.745 604.104 328.287 606.114 331.988
 608.123 335.82 610.132 339.751 612.142 343.754 614.151 347.801
 616.16 351.867 618.17 355.927 620.179 359.958 622.188 363.941
 624.198 367.857 626.207 371.688 628.217 375.42 630.226 379.04
 632.235 382.537 634.245 385.902 636.254 389.127 638.263 392.206
 640.273 395.136 642.282 397.914 644.292 400.539 646.301 403.01
 648.31 405.33 650.32 407.499 652.329 409.522 654.338 411.402 656.348
 413.144 658.357 414.753 660.366 416.235 662.376 417.596 664.385
 418.841 666.395 419.978 668.404 421.012 670.413 421.951 672.423
 422.8 674.432 423.566 676.441 424.256 678.451 424.874 680.46 425.427
 682.47 425.921 684.479 426.36 686.488 426.749 688.498 427.094
 690.507 427.398 692.516 427.665 694.526 427.9 696.535 428.106
 698.544 428.285 700.554 428.441 702.563 428.577 704.573 428.694
 706.582 428.796 708.591 428.883 710.601 428.958 712.61 429.022
 714.619 429.077 716.629 429.124 718.638 429.164 720.647 429.198
 722.657 429.226 724.666 429.25 726.676 429.27 728.685 429.287
 730.694 429.302 732.704 429.314 734.713 429.323 736.722 429.332
 738.732 429.338 740.741 429.344 742.751 429.349 744.76 429.352
 746.769 429.356 748.779 429.358 750.788 429.36 752.797 429.362
 754.807 429.363 756.816 429.364 758.825 429.365 760.835 429.366
 762.844 429.367 764.854 429.367 766.863 429.367 768.872 429.368
 770.882 429.368 772.891 429.368 774.9 429.368 776.91 429.368 778.919
 429.368 780.928 429.369 782.938 429.369 784.947 429.369 786.957
 429.369 788.966 429.369 790.975 429.369 792.985 429.369 794.994
 429.369 797.003 429.369 799.013 429.369 801.022 429.369 803.032
 429.369 805.041 429.369 807.05 429.369 809.06 429.369 811.069
 429.369 813.078 429.369 815.088 429.369 817.097 429.369 819.106
 429.369 821.116 429.369 823.125 429.369 825.135 429.369 827.144
 429.369 829.153 429.369 831.163 429.369 833.172 429.369 835.181
 429.369 837.191 429.369 839.2 429.369 841.21 429.369 843.219 429.369
 845.228 429.369 847.238 429.369 849.247 429.369 851.256 429.369
 853.266 429.369 855.275 429.369 857.284 429.369 859.294 429.369
 861.303 429.369 863.313 429.369 865.322 429.369 867.331 429.369
 869.341 429.369 871.35 429.369 873.359 429.369 875.369 429.369" style="stroke:#4c72b0;fill:none;stroke-width:3" />
</g>
<path d="M53 39V450H896" style="stroke:#888; fill:none; stroke-width:2" />
<path d="M114 450v-8M194 450v-8M274 450v-8M354 450v-8M434 450v-8M515 450v-8
M595 450v-8M675 450v-8M755 450v-8M835 450v-8M74 450v-4M154 450v-4
M234 450v-4M314 450v-4M394 450v-4M475 450v-4M555 450v-4M635 450v-4
M715 450v-4M795 450v-4M875 450v-4" style="stroke:#888; stroke-width:2" />
<path d="M53 429h8M53 357h8M53 285h8M53 212h8M53 140h8M53 68h8M53 393h4M53 321
h4M53 249h4M53 176h4M53 104h4" style="stroke:#888; stroke-width:2" />
<text x="47" y="430" text-anchor="end" dy=".3em" fill="#666" >0</text>
<text x="47" y="357" text-anchor="end" dy=".3em" fill="#666" >0.1</text>
<text x="47" y="284" text-anchor="end" dy=".3em" fill="#666" >0.2</text>
<text x="47" y="212" text-anchor="end" dy=".3em" fill="#666" >0.3</text>
<text x="47" y="139" text-anchor="end" dy=".3em" fill="#666" >0.4</text>
<text x="47" y="66" text-anchor="end" dy=".3em" fill="#666" >0.5</text>
<text x="113" y="455" text-anchor="middle" dy="1em" fill="#666" >-4</text>
<text x="193" y="455" text-anchor="middle" dy="1em" fill="#666" >-3</text>
<text x="273" y="455" text-anchor="middle" dy="1em" fill="#666" >-2</text>
<text x="354" y="455" text-anchor="middle" dy="1em" fill="#666" >-1</text>
<text x="434" y="455" text-anchor="middle" dy="1em" fill="#666" >0</text>
<text x="514" y="455" text-anchor="middle" dy="1em" fill="#666" >1</text>
<text x="594" y="455" text-anchor="middle" dy="1em" fill="#666" >2</text>
<text x="674" y="455" text-anchor="middle" dy="1em" fill="#666" >3</text>
<text x="755" y="455" text-anchor="middle" dy="1em" fill="#666" >4</text>
<text x="835" y="455" text-anchor="middle" dy="1em" fill="#666" >5</text>
<clipPath id="clip1" ><rect x="52" y="0" width="843" height="34" />
</clipPath>
<g clip-path="url(#clip1)" >
<text x="474" y="17" text-anchor="middle" dy=".3em" >Step 3: MMD(P,Q) = 0.6256  |  MMD² = 0.391355  [σ=0.50]</text>
</g>
<clipPath id="clip2" ><rect x="52" y="477" width="843" height="22" />
</clipPath>
<g clip-path="url(#clip2)" >
<text x="474" y="488" text-anchor="middle" dy=".3em" >t</text>
</g>
<clipPath id="clip3" ><rect x="0" y="38" width="22" height="412" />
</clipPath>
<g clip-path="url(#clip3)" >
<text x="11" y="244" text-anchor="middle" dy=".3em" transform="rotate(-90 11 244)" >value</text>
</g>
</svg>
