<?xml version="1.0"?>
<!-- Generated by SVGo -->
<svg width="900" height="400"
     font-size="14px" font-family="Roboto,&quot;Helvetica Neue&quot;,Helvetica,Arial,sans-serif"
     xmlns="http://www.w3.org/2000/svg"
     xmlns:xlink="http://www.w3.org/1999/xlink">
<clipPath id="clip0" ><rect x="53" y="39" width="843" height="311" />
</clipPath>
<g clip-path="url(#clip0)" >
<rect x="53" y="39" width="843" height="311" style="fill:#eee" />
<path d="M181 39v311M321 39v311M461 39v311M600 39v311M740 39v311M880 39v311" style="stroke: #fff; stroke-width:2" />
<path d="M53 301h843M53 254h843M53 207h843M53 160h843M53 113h843M53 67h843" style="stroke: #fff; stroke-width:2" />
<path d="M 68.6312 255.926 82.3895 235.076 96.1478 216.86 109.906 200.804
 123.664 187.544 137.423 177.501 151.181 170.569 164.939 166.377
 178.697 164.488 192.456 164.498 206.214 166.073 219.972 168.952
 233.73 172.925 247.489 177.816 261.247 183.464 275.005 189.712
 288.763 196.41 302.522 203.416 316.28 210.595 330.038 217.828
 343.797 225.014 357.555 232.065 371.313 238.916 385.071 245.515
 398.83 251.825 412.588 257.823 426.346 263.496 440.104 268.838
 453.863 273.852 467.621 278.545 481.379 282.927 495.137 287.012
 508.896 290.815 522.654 294.351 536.412 297.637 550.17 300.689
 563.929 303.522 577.687 306.153 591.445 308.595 605.203 310.863
 618.962 312.97 632.72 314.928 646.478 316.749 660.237 318.442
 673.995 320.019 687.753 321.488 701.511 322.856 715.27 324.133
 729.028 325.325 742.786 326.439 756.544 327.48 770.303 328.455
 784.061 329.368 797.819 330.223 811.577 331.025 825.336 331.779
 839.094 332.487 852.852 333.152 866.61 333.779 880.369 334.369" style="stroke:#55a868;fill:none;stroke-width:3" />
<path d="M 68.6312 140.224 82.3895 117.886 96.1478 100.013 109.906 85.2654
 123.664 73.6827 137.423 65.226 151.181 59.534 164.939 56.1456
 178.697 54.6313 192.456 54.6389 206.214 55.901 219.972 58.2217
 233.73 61.4559 247.489 65.4878 261.247 70.2158 275.005 75.5425
 288.763 81.3715 302.522 87.6071 316.28 94.1561 330.038 100.93
 343.797 107.848 357.555 114.838 371.313 121.835 385.071 128.785
 398.83 135.645 412.588 142.377 426.346 148.954 440.104 155.353
 453.863 161.558 467.621 167.56 481.379 173.35 495.137 178.927
 508.896 184.288 522.654 189.436 536.412 194.375 550.17 199.108
 563.929 203.642 577.687 207.983 591.445 212.138 605.203 216.113
 618.962 219.916 632.72 223.555 646.478 227.037 660.237 230.368
 673.995 233.556 687.753 236.608 701.511 239.53 715.27 242.329
 729.028 245.011 742.786 247.581 756.544 250.045 770.303 252.408
 784.061 254.675 797.819 256.852 811.577 258.942 825.336 260.951
 839.094 262.881 852.852 264.737 866.61 266.522 880.369 268.24" style="stroke:#4c72b0;fill:none;stroke-width:3" />
</g>
<path d="M53 39V350H896" style="stroke:#888; fill:none; stroke-width:2" />
<path d="M181 350v-8M321 350v-8M461 350v-8M600 350v-8M740 350v-8M880 350v-8
M69 350v-4M97 350v-4M125 350v-4M153 350v-4M209 350v-4M237 350v-4
M265 350v-4M293 350v-4M349 350v-4M377 350v-4M405 350v-4M433 350v-4
M488 350v-4M516 350v-4M544 350v-4M572 350v-4M628 350v-4M656 350v-4
M684 350v-4M712 350v-4M768 350v-4M796 350v-4M824 350v-4M852 350v-4" style="stroke:#888; stroke-width:2" />
<path d="M53 301h8M53 254h8M53 207h8M53 160h8M53 113h8M53 67h8M53 324h4M53 278
h4M53 231h4M53 184h4M53 137h4M53 90h4" style="stroke:#888; stroke-width:2" />
<text x="47" y="301" text-anchor="end" dy=".3em" fill="#666" >0.1</text>
<text x="47" y="254" text-anchor="end" dy=".3em" fill="#666" >0.2</text>
<text x="47" y="207" text-anchor="end" dy=".3em" fill="#666" >0.3</text>
<text x="47" y="160" text-anchor="end" dy=".3em" fill="#666" >0.4</text>
<text x="47" y="112" text-anchor="end" dy=".3em" fill="#666" >0.5</text>
<text x="47" y="65" text-anchor="end" dy=".3em" fill="#666" >0.6</text>
<text x="180" y="355" text-anchor="middle" dy="1em" fill="#666" >0.5</text>
<text x="320" y="355" text-anchor="middle" dy="1em" fill="#666" >1</text>
<text x="460" y="355" text-anchor="middle" dy="1em" fill="#666" >1.5</text>
<text x="600" y="355" text-anchor="middle" dy="1em" fill="#666" >2</text>
<text x="740" y="355" text-anchor="middle" dy="1em" fill="#666" >2.5</text>
<text x="880" y="355" text-anchor="middle" dy="1em" fill="#666" >3</text>
<clipPath id="clip1" ><rect x="52" y="0" width="843" height="34" />
</clipPath>
<g clip-path="url(#clip1)" >
<text x="474" y="17" text-anchor="middle" dy=".3em" >Sigma sweep: bimodal vs gaussian  [n=12]</text>
</g>
<clipPath id="clip2" ><rect x="52" y="377" width="843" height="22" />
</clipPath>
<g clip-path="url(#clip2)" >
<text x="474" y="388" text-anchor="middle" dy=".3em" >σ (bandwidth)</text>
</g>
<clipPath id="clip3" ><rect x="0" y="38" width="22" height="312" />
</clipPath>
<g clip-path="url(#clip3)" >
<text x="11" y="194" text-anchor="middle" dy=".3em" transform="rotate(-90 11 194)" >distance</text>
</g>
</svg>
